<?xml version="1.0" encoding="utf-8"?>
<!-- Generator: Adobe Illustrator 20.1.0, SVG Export Plug-In . SVG Version: 6.00 Build 0)  -->
<svg version="1.1" id="Layer_1" xmlns="http://www.w3.org/2000/svg" xmlns:xlink="http://www.w3.org/1999/xlink" x="0px" y="0px"
	 viewBox="0 0 74 123" style="enable-background:new 0 0 74 123;" xml:space="preserve">
<style type="text/css">
	.st0{fill:#F4CF19;}
</style>
<g>
	<circle class="st0" cx="4.5" cy="4.5" r="4.5"/>
	<circle class="st0" cx="26.2" cy="4.5" r="4.5"/>
	<circle class="st0" cx="47.8" cy="4.5" r="4.5"/>
	<circle class="st0" cx="69.5" cy="4.5" r="4.5"/>
	<circle class="st0" cx="4.5" cy="50.1" r="4.5"/>
	<circle class="st0" cx="26.2" cy="50.1" r="4.5"/>
	<circle class="st0" cx="47.8" cy="50.1" r="4.5"/>
	<circle class="st0" cx="69.5" cy="50.1" r="4.5"/>
	<circle class="st0" cx="4.5" cy="27.3" r="4.5"/>
	<circle class="st0" cx="26.2" cy="27.3" r="4.5"/>
	<circle class="st0" cx="47.8" cy="27.3" r="4.5"/>
	<circle class="st0" cx="69.5" cy="27.3" r="4.5"/>
	<circle class="st0" cx="4.5" cy="72.9" r="4.5"/>
	<circle class="st0" cx="26.2" cy="72.9" r="4.5"/>
	<circle class="st0" cx="47.8" cy="72.9" r="4.5"/>
	<circle class="st0" cx="69.5" cy="72.9" r="4.5"/>
	<circle class="st0" cx="4.5" cy="118.5" r="4.5"/>
	<circle class="st0" cx="26.2" cy="118.5" r="4.5"/>
	<circle class="st0" cx="47.8" cy="118.5" r="4.5"/>
	<circle class="st0" cx="69.5" cy="118.5" r="4.5"/>
	<circle class="st0" cx="4.5" cy="95.7" r="4.5"/>
	<circle class="st0" cx="26.2" cy="95.7" r="4.5"/>
	<circle class="st0" cx="47.8" cy="95.7" r="4.5"/>
	<circle class="st0" cx="69.5" cy="95.7" r="4.5"/>
</g>
</svg>
