<?xml version="1.0" encoding="utf-8"?>
<!-- Generator: Adobe Illustrator 20.1.0, SVG Export Plug-In . SVG Version: 6.00 Build 0)  -->
<svg version="1.1" id="Layer_1" xmlns="http://www.w3.org/2000/svg" xmlns:xlink="http://www.w3.org/1999/xlink" x="0px" y="0px"
	 viewBox="0 0 72 93" style="enable-background:new 0 0 72 93;" xml:space="preserve">
<style type="text/css">
	.st0{fill:#32CC00;}
	.st1{fill:#7CFC51;}
</style>
<g>
	<path class="st0" d="M34.7,60c0,2.8,0,5.6,0,8.4c0,1.1-0.4,1.8-1.5,2.2c-4.7,2-9.3,4-13.9,6.1c-1.3,0.6-2.4,0.6-3.7,0
		c-4.7-2.1-9.4-4.1-14.1-6.3c-0.6-0.3-1.3-1.3-1.4-2C0.1,62.8,0.2,57,0.2,51.3c0-1.1,0.5-1.7,1.6-2.2c4.6-1.9,9.2-4,13.8-6
		c1.3-0.6,2.4-0.7,3.7-0.1c4.6,2.1,9.3,4.1,14,6c1.1,0.5,1.6,1.1,1.6,2.4C34.7,54.3,34.7,57.2,34.7,60z M31.5,50.4
		c-4.7-2.1-8.9-4-13.1-5.7c-0.7-0.3-1.8,0-2.6,0.3c-3.2,1.3-6.4,2.8-9.6,4.2c-0.7,0.3-1.4,0.6-2.6,1.2c4.8,2.1,9.1,3.9,13.4,5.7
		c0.3,0.1,0.9,0.1,1.2-0.1C22.5,54.3,26.7,52.5,31.5,50.4z M2.2,67.9c4.8-2.1,9.3-4,13.8-6c1-0.5,0.8-3.5-0.2-4
		c-4.4-2-8.9-3.9-13.5-6C2.2,57.3,2.2,62.4,2.2,67.9z M32.7,52.2c-0.4,0.1-0.6,0.1-0.8,0.2c-4.1,1.8-8.2,3.6-12.3,5.3
		c-1.2,0.5-1.1,1.5-1.1,2.4c0,1,0.2,1.7,1.3,2.1c1.8,0.7,3.5,1.5,5.2,2.3c2.5,1.1,5,2.1,7.7,3.3C32.7,62.5,32.7,57.4,32.7,52.2z
		 M16.5,63.8c-4.3,1.9-8.3,3.7-12.9,5.6c4.6,2,8.6,3.8,12.9,5.6C16.5,71.2,16.5,67.6,16.5,63.8z M18.6,75c4.4-1.9,8.4-3.7,12.8-5.6
		c-4.5-2-8.6-3.7-12.8-5.6C18.6,67.6,18.6,71.1,18.6,75z"/>
	<path class="st0" d="M53.4,29.7c0,2.8,0,5.6,0,8.4c0,1.2-0.4,1.9-1.5,2.4c-4.8,2.1-9.6,4.2-14.5,6.2c-0.7,0.3-1.8,0.3-2.6,0
		c-4.9-2-9.7-4.1-14.5-6.2c-1.1-0.5-1.6-1.2-1.6-2.4c0-5.5,0.1-11,0-16.5c0-1.4,0.5-2.2,1.8-2.7c4.7-2,9.3-4.1,14-6
		c0.9-0.4,2.2-0.4,3.1,0c4.8,2,9.5,4.2,14.3,6.2c1.1,0.5,1.5,1.1,1.4,2.2C53.4,24.1,53.4,26.9,53.4,29.7z M49.9,20.3
		c-0.8-0.4-1.3-0.7-1.8-0.9c-2.3-1-4.8-1.9-7-3.2c-3.1-1.7-6-2.2-9.2-0.3c-2.9,1.6-6,2.8-9.5,4.3c3.3,1.5,6.1,2.7,8.9,4
		c4.7,2.2,4.7,2.2,9.6,0c0.7-0.3,1.4-0.5,2-0.8C45.1,22.5,47.3,21.5,49.9,20.3z M20.9,21.8c0,5.4,0,10.5,0,15.9
		c4.6-2,8.9-3.9,13.3-5.7c1.2-0.5,1.2-1.5,1-2.5c-0.1-0.7-0.5-1.6-1-1.9C30,25.7,25.6,23.8,20.9,21.8z M51.3,37.7
		c0-5.4,0-10.5,0-15.9c-4.6,2-9,3.9-13.3,5.9c-1.3,0.6-1.5,3.5-0.3,4C42.2,33.7,46.7,35.7,51.3,37.7z M22.2,39.3
		c4.5,1.9,8.6,3.7,12.9,5.6c0-3.9,0-7.4,0-11.2C30.8,35.5,26.7,37.3,22.2,39.3z M37.3,44.8c4.3-1.9,8.3-3.6,12.8-5.6
		c-4.5-1.9-8.5-3.7-12.8-5.6C37.3,37.6,37.3,41.1,37.3,44.8z"/>
	<path class="st0" d="M72.1,60.1c0,2.8,0,5.5,0,8.3c0,1.1-0.4,1.8-1.4,2.3c-4.8,2.1-9.6,4.3-14.5,6.3c-0.8,0.3-2.1,0.3-2.9,0
		c-4.8-2-9.5-4.2-14.3-6.2c-1.1-0.5-1.5-1.1-1.5-2.2c0-5.7-0.1-11.4,0.1-17.1c0-0.8,0.8-1.9,1.4-2.2c4.8-2.2,9.6-4.3,14.5-6.3
		c0.7-0.3,1.7-0.4,2.4-0.1c5,2.1,10,4.2,15,6.5c0.6,0.3,1.1,1.4,1.2,2.2C72.2,54.4,72.1,57.2,72.1,60.1z M68.2,50.7
		c0-0.2,0-0.4,0-0.5c-4.2-1.9-8.5-3.8-12.7-5.5c-0.5-0.2-1.4,0.1-2.1,0.3c-3.2,1.3-6.3,2.7-9.4,4.1c-0.9,0.4-1.7,0.8-2.9,1.4
		c4.6,2,8.8,3.8,13,5.6c0.4,0.2,0.9,0.2,1.2,0.1C59.6,54.4,63.9,52.6,68.2,50.7z M39.6,67.9c4.8-2.1,9.3-4,13.8-6.1
		c1.1-0.5,0.9-3.4-0.2-3.9c-4.4-2-8.9-3.9-13.5-6C39.6,57.3,39.6,62.4,39.6,67.9z M70,67.8c0-5.4,0-10.5,0-15.9
		c-4.7,2-9.1,3.9-13.5,5.9c-1.2,0.6-1.2,3.5,0,4.1C60.9,64,65.4,65.8,70,67.8z M53.9,75.1c0-4,0-7.5,0-11.3
		c-4.3,1.9-8.4,3.7-12.9,5.7C45.5,71.4,49.5,73.2,53.9,75.1z M68.7,69.3c-4.5-1.9-8.5-3.7-12.7-5.5c0,3.9,0,7.4,0,11.2
		c3.9-1.7,7.5-3.3,11.1-4.9C67.5,70,67.8,69.8,68.7,69.3z"/>
</g>
<path class="st1" d="M-78.5,92.6c4.2,1.3,18.9,1.1,28.7-25.3C-39,38-33.8,33.4-24.9,24.1c12.2-12.9,0.4-32.2-22.5-20.5
	c-23,11.8-44.9,49.5-44.6,66.5C-91.8,81.5-88.4,89.7-78.5,92.6z"/>
<path class="st0" d="M-36.3,5.3c-0.4,0-0.8,0.1-1.1,0.4c0,0-17,15.3-29.6,37.4c-9.3,16.3-11.3,38.4-11.8,49.5c0.1,0,0.1,0.1,0.2,0.1
	c0.7,0.2,1.7,0.3,2.8,0.4c0.5-10.7,2.5-32.8,11.4-48.4C-52.1,23-35.4,8-35.4,8c0.6-0.6,0.7-1.5,0.1-2.1C-35.5,5.5-35.9,5.3-36.3,5.3
	z"/>
<g>
	<path class="st1" d="M34.6,60.4c0,2.8,0,5.6,0,8.4c0,1.1-0.4,1.8-1.5,2.2c-4.7,2-9.3,4-13.9,6.1c-1.3,0.6-2.4,0.6-3.7,0
		c-4.7-2.1-9.4-4.1-14.1-6.3c-0.6-0.3-1.3-1.3-1.4-2C0,63.1,0,57.4,0,51.6c0-1.1,0.5-1.7,1.6-2.2c4.6-1.9,9.2-4,13.8-6
		c1.3-0.6,2.4-0.7,3.7-0.1c4.6,2.1,9.3,4.1,14,6c1.1,0.5,1.6,1.1,1.6,2.4C34.5,54.7,34.6,57.5,34.6,60.4z M31.3,50.8
		c-4.7-2.1-8.9-4-13.1-5.7c-0.7-0.3-1.8,0-2.6,0.3c-3.2,1.3-6.4,2.8-9.6,4.2c-0.7,0.3-1.4,0.6-2.6,1.2c4.8,2.1,9.1,3.9,13.4,5.7
		c0.3,0.1,0.9,0.1,1.2-0.1C22.3,54.7,26.5,52.9,31.3,50.8z M2.1,68.3c4.8-2.1,9.3-4,13.8-6c1-0.5,0.8-3.5-0.2-4
		c-4.4-2-8.9-3.9-13.5-6C2.1,57.7,2.1,62.8,2.1,68.3z M32.5,52.6c-0.4,0.1-0.6,0.1-0.8,0.2c-4.1,1.8-8.2,3.6-12.3,5.3
		c-1.2,0.5-1.1,1.5-1.1,2.4c0,1,0.2,1.7,1.3,2.1c1.8,0.7,3.5,1.5,5.2,2.3c2.5,1.1,5,2.1,7.7,3.3C32.5,62.8,32.5,57.7,32.5,52.6z
		 M16.3,64.1C12,66,7.9,67.8,3.4,69.8c4.6,2,8.6,3.8,12.9,5.6C16.3,71.5,16.3,68,16.3,64.1z M18.5,75.4c4.4-1.9,8.4-3.7,12.8-5.6
		c-4.5-2-8.6-3.7-12.8-5.6C18.5,68,18.5,71.5,18.5,75.4z"/>
	<path class="st1" d="M53.3,30.1c0,2.8,0,5.6,0,8.4c0,1.2-0.4,1.9-1.5,2.4c-4.8,2.1-9.6,4.2-14.5,6.2c-0.7,0.3-1.8,0.3-2.6,0
		c-4.9-2-9.7-4.1-14.5-6.2c-1.1-0.5-1.6-1.2-1.6-2.4c0-5.5,0.1-11,0-16.5c0-1.4,0.5-2.2,1.8-2.7c4.7-2,9.3-4.1,14-6
		c0.9-0.4,2.2-0.4,3.1,0c4.8,2,9.5,4.2,14.3,6.2c1.1,0.5,1.5,1.1,1.4,2.2C53.2,24.4,53.3,27.3,53.3,30.1z M49.7,20.7
		c-0.8-0.4-1.3-0.7-1.8-0.9c-2.3-1-4.8-1.9-7-3.2c-3.1-1.7-6-2.2-9.2-0.3c-2.9,1.6-6,2.8-9.5,4.3c3.3,1.5,6.1,2.7,8.9,4
		c4.7,2.2,4.7,2.2,9.6,0c0.7-0.3,1.4-0.5,2-0.8C45,22.8,47.1,21.8,49.7,20.7z M20.8,22.2c0,5.4,0,10.5,0,15.9
		c4.6-2,8.9-3.9,13.3-5.7c1.2-0.5,1.2-1.5,1-2.5c-0.1-0.7-0.5-1.6-1-1.9C29.8,26,25.4,24.2,20.8,22.2z M51.2,38.1
		c0-5.4,0-10.5,0-15.9c-4.6,2-9,3.9-13.3,5.9c-1.3,0.6-1.5,3.5-0.3,4C42,34.1,46.5,36,51.2,38.1z M22.1,39.6
		c4.5,1.9,8.6,3.7,12.9,5.6c0-3.9,0-7.4,0-11.2C30.6,35.9,26.5,37.7,22.1,39.6z M37.1,45.2c4.3-1.9,8.3-3.6,12.8-5.6
		c-4.5-1.9-8.5-3.7-12.8-5.6C37.1,38,37.1,41.4,37.1,45.2z"/>
	<path class="st1" d="M72,60.5c0,2.8,0,5.5,0,8.3c0,1.1-0.4,1.8-1.4,2.3c-4.8,2.1-9.6,4.3-14.5,6.3c-0.8,0.3-2.1,0.3-2.9,0
		c-4.8-2-9.5-4.2-14.3-6.2c-1.1-0.5-1.5-1.1-1.5-2.2c0-5.7-0.1-11.4,0.1-17.1c0-0.8,0.8-1.9,1.4-2.2c4.8-2.2,9.6-4.3,14.5-6.3
		c0.7-0.3,1.7-0.4,2.4-0.1c5,2.1,10,4.2,15,6.5c0.6,0.3,1.1,1.4,1.2,2.2C72.1,54.7,72,57.6,72,60.5z M68,51.1c0-0.2,0-0.4,0-0.5
		c-4.2-1.9-8.5-3.8-12.7-5.5c-0.5-0.2-1.4,0.1-2.1,0.3c-3.2,1.3-6.3,2.7-9.4,4.1c-0.9,0.4-1.7,0.8-2.9,1.4c4.6,2,8.8,3.8,13,5.6
		c0.4,0.2,0.9,0.2,1.2,0.1C59.5,54.8,63.8,52.9,68,51.1z M39.5,68.3c4.8-2.1,9.3-4,13.8-6.1c1.1-0.5,0.9-3.4-0.2-3.9
		c-4.4-2-8.9-3.9-13.5-6C39.5,57.7,39.5,62.8,39.5,68.3z M69.9,68.2c0-5.4,0-10.5,0-15.9c-4.7,2-9.1,3.9-13.5,5.9
		c-1.2,0.6-1.2,3.5,0,4.1C60.8,64.3,65.2,66.2,69.9,68.2z M53.7,75.4c0-4,0-7.5,0-11.3c-4.3,1.9-8.4,3.7-12.9,5.7
		C45.3,71.8,49.4,73.5,53.7,75.4z M68.5,69.7C64,67.8,60,66,55.8,64.2c0,3.9,0,7.4,0,11.2c3.9-1.7,7.5-3.3,11.1-4.9
		C67.3,70.4,67.7,70.1,68.5,69.7z"/>
</g>
</svg>
