<?xml version="1.0" encoding="utf-8"?>
<!-- Generator: Adobe Illustrator 20.1.0, SVG Export Plug-In . SVG Version: 6.00 Build 0)  -->
<svg version="1.1" id="Layer_1" xmlns="http://www.w3.org/2000/svg" xmlns:xlink="http://www.w3.org/1999/xlink" x="0px" y="0px"
	 viewBox="0 0 464 291" style="enable-background:new 0 0 464 291;" xml:space="preserve">
<style type="text/css">
	.st0{fill:#A23DF2;}
	.st1{fill:#E921F4;}
</style>
<path class="st0" d="M461.2,290.3c0,0-2.5,2.3-4.5-1.7c-1.9-4-10.7-24.4-22.3-38.2c-11.6-13.7-23.6-29.5-45.5-28.6
	c-21.9,0.9-28.5-8-35.6-14.7c-7.1-6.6-13.3-10.6-31.6-8.3c-18.3,2.3-18.3,18.1-37.3,22.2c-19,4.2-29.4,3.7-52.6-12.3
	c-23.1-16.1-40.1-2-59.5,0.9c-19.4,2.9-32.7-2.5-49.9-10.4c-17.2-7.9-33.4-25.4-40.8-50.9c-7.4-25.5-2.2-31.2-46.9-44.8
	C-9.8,90.1-0.7,40.4,4.2,26.8c4.8-13.7,43-25.8,43-25.8s26.9-0.1,44.4,30c17.4,30.1,37.3,38,52.5,31.9s30.1-14.6,60.2,2.6
	c30.1,17.2,64.7,69.2,76.1,78.1C291.7,152.6,460.5,210.9,461.2,290.3z"/>
<path class="st1" d="M39,0c3.9,0,7.8,0.6,11.6,1.9c24,8.3,21.4,17,31.6,41.1c10.2,24.1,31.5,28.6,60.9,19.3
	c43.9-13.9,61.8,28.3,74.2,39.5c24.9,21.8,92.5,34.9,139.9,54.6c68.5,28.4,97.9,84.9,104,107.3c6.2,22.4-0.1,26.8-0.1,26.8
	c-2.4,2.2-3.9-6.4-9.5-21.1c-5.5-14.7-19.4-36.4-28.5-40.6c-9.1-4.2-14.6-13.1-24.8-16.7c-10.2-3.6-11.7,1.4-30.5-17.1
	c-18.8-18.5-35.1-24.1-63.5,2.5c-28.4,26.5-49.3,29.3-59.2,12.7c-9.9-16.7-33.6-34.9-61.3-16.7c-27.7,18.2-60.7,17.6-80.8-12.7
	c-20-30.3-4.3-58-32.1-72.5C43.3,93.6,7.9,99.5,2,56C-2.9,19.2,18,0.1,39,0z M49.5,51.3c0,0,0.8,1.3,2.8,3.6
	c9.9,12.2,47.7,53.7,130.6,88.4c98.3,41.1,139.6,36.1,139.6,36.1s-66.2-8.6-162.4-55.5C84.8,87.1,59.7,63.5,52.3,55
	C50.5,52.7,49.5,51.3,49.5,51.3L49.5,51.3z"/>
</svg>
