<?xml version="1.0" encoding="utf-8"?>
<!-- Generator: Adobe Illustrator 20.1.0, SVG Export Plug-In . SVG Version: 6.00 Build 0)  -->
<svg version="1.1" id="Layer_1" xmlns="http://www.w3.org/2000/svg" xmlns:xlink="http://www.w3.org/1999/xlink" x="0px" y="0px"
	 viewBox="0 0 84 68" style="enable-background:new 0 0 84 68;" xml:space="preserve">
<style type="text/css">
	.st0{fill:#F49351;}
	.st1{fill:#436FDD;}
</style>
<path class="st0" d="M58.7,67.1c0,0,23.2-1,24.7-20.9C85,26.4,73.8,0.9,40.1,0s-45,37.9-38.3,52.6C8.4,67.3,25.6,68.1,33.4,68
	c7.8-0.1,17.4-0.1,17.4-0.1L46.8,40L58.7,67.1z"/>
<path class="st1" d="M50,1.1l-1.2,27.3l8.9-25.1C55.3,2.3,52.7,1.6,50,1.1L50,1.1z M29.3,1.2c-3,0.8-5.9,2-8.6,3.5l13.9,26.1
	L29.3,1.2L29.3,1.2z M75.4,16.6l-10.8,14l14.7-7.5C78.2,20.8,76.9,18.6,75.4,16.6L75.4,16.6z M6.2,19.8C4.4,22.9,3,26.2,2,29.6
	l18.5,1.5L6.2,19.8L6.2,19.8z M83.4,38.3l-29.9,4.2l30.1,2.1C83.6,42.5,83.6,40.4,83.4,38.3L83.4,38.3z M37,40.6l-29.4,20
	c3,2.6,6.5,4.3,10,5.4L37,40.6z"/>
</svg>
