<?xml version="1.0" encoding="utf-8"?>
<!-- Generator: Adobe Illustrator 20.1.0, SVG Export Plug-In . SVG Version: 6.00 Build 0)  -->
<svg version="1.1" id="Layer_1" xmlns="http://www.w3.org/2000/svg" xmlns:xlink="http://www.w3.org/1999/xlink" x="0px" y="0px"
	 viewBox="0 0 346 285" style="enable-background:new 0 0 346 285;" xml:space="preserve">
<style type="text/css">
	.st0{fill:#FFCE00;}
	.st1{fill:#E8A615;}
</style>
<path class="st0" d="M345.2,45.8c3.9-5.3-7-24.2-47.9-37.5c-40.9-13.3-78-7.5-93.2-4.3c-15.2,3.2-25.1,0.4-46.7-3.4
	c-21.7-3.8-36.2,11.1-32.8,29.3c3.4,18.2,1.1,18.8-33.2,26.9C57,65,16.9,77,29.3,120.8c12.4,43.8-2.4,37.4-13.9,46.8
	c-11.6,9.4-24.8,39.6-6,59.9c10.3,11.1,19.6,17.8,18,31.2c-2.4,19.6,1.1,30.4,16.1,24.8c15-5.6,22.9-24.2,25.5-38.3
	c2.6-14.1,7.1-21.1,33.9-20.1c15.7,0.6,23.9-15.6,26.3-28.2c1.6-8.3-1.6-15.8-1.2-22.1c1.3-21,15.2-17,40.1-24.8
	c27.4-8.6,32.6-32.7,31.9-53.9c-0.6-21.2,3.5-63.1,43.5-70.3c20.7-3.8,51,3.6,70.4,11.1C332,43.9,339.8,50.9,345.2,45.8L345.2,45.8z
	"/>
<path class="st1" d="M40.9,279l4.5,1.5c0,0,4.4-64.3,29.2-125.3c26.8-65.8,71.4-104,115.5-126c-60.1,25.7-92.8,62-122,123.7
	C36.7,219.4,40.9,279,40.9,279z"/>
</svg>
