<?xml version="1.0" encoding="utf-8"?>
<!-- Generator: Adobe Illustrator 20.1.0, SVG Export Plug-In . SVG Version: 6.00 Build 0)  -->
<svg version="1.1" id="Layer_1" xmlns="http://www.w3.org/2000/svg" xmlns:xlink="http://www.w3.org/1999/xlink" x="0px" y="0px"
	 viewBox="0 0 99.1 129" style="enable-background:new 0 0 99.1 129;" xml:space="preserve">
<style type="text/css">
	.st0{fill:#A23DF2;}
	.st1{fill:#E921F4;}
</style>
<path class="st0" d="M-52,87.1c0,0,24.9,14.4,28.9,6.6C-4.4,57.2-75,38.9-94,34.8c-23.6-5.2-39.7-11.2-55.7-27.9
	c-16-16.6-48.3-0.1-36.9,15.9c11.3,16,16,5.3,32.3,17.1c16.1,11.6,10,35.1,42.3,44.1C-89.5,90.3-52,87.1-52,87.1L-52,87.1z"/>
<path class="st1" d="M-172.1,3.8c-4.7,0-9,1.1-12.4,2.9c-4.6,4.3-6.3,10.2-2.1,16.1c3.1,4.4,5.7,6.8,8.2,8.1c9-0.3,21-0.7,29,13.5
	C-139.1,56.8-140.5,76-112,84c1.6,0.5,3.3,0.9,5.1,1.2c5.7-5.3,21.9-17.2,46.7-9.8C-28.8,84.7-20,97-21.9,80.8c-1-9.1-11-21-24-29.6
	c-8.4-4.4-17.6-7.9-26.1-10.7c-2.5-0.4-5-0.6-7.5-0.5c-25.5,0.8-55.9,1-67.6-19.7C-154,8-163.6,3.9-172.1,3.8z"/>
<path class="st1" d="M59.4,82.6c0,3.1,0,6.1,0,9.2c-0.1,3.2-0.1,6,3,8.3c2.8,2.1,2.2,6.7-0.5,9c-2.7,2.3-6.7,2.1-9.1-0.6
	c-2.5-2.8-2.6-6.8,0.4-8.9c2.6-1.8,2.9-3.9,2.9-6.6c-0.1-7.4-0.1-14.8,0-22.3c0-2.5-0.8-3.2-3.2-3.2c-7.7,0-7.7-0.1-7.7,7.5
	c0,1.7-0.3,3.5,0,5.2c1.2,6.7-1.4,12-6.5,16c-6.3,5-5.9,11.6-5.4,18.4c0.1,0.9,1,1.8,1.8,2.4c3.2,2.6,3.7,7,1.1,9.8
	c-2.7,2.9-7,2.9-9.8-0.2c-2.6-2.9-2.2-7,1.2-9.4c1.7-1.2,2.3-2.4,2.1-4.3c-1-7.7,0.5-14.4,6.9-19.5c4.6-3.6,5.5-8.5,5-14
	c-0.3-3-0.2-6.1,0-9.2c0.1-2.2-0.8-2.9-2.9-2.8c-8.9,0.2-7.9-1.1-7.5,7.3c0.3,6.4-0.8,11.8-6.2,15.7c-1.2,0.9-2.3,2.1-3.1,3.4
	c-0.7,1.1-1.2,2.5-1.1,3.7c0.4,4.5-1.8,7.6-5.8,7.9c-4.2,0.3-7.2-2.5-7.1-6.7c0.1-3.8,3.5-6.3,7.7-6.2c1.3,0,2.6-0.8,3.9-1.3
	c0.3-0.1,0.5-0.4,0.7-0.7c8.2-8.6,8.1-8.6,7.5-20.4c-0.1-1.9-0.7-2.8-2.7-2.7c-1.7,0.1-3.5,0-5.2,0c-9.8-0.1-16.9-5.9-19.4-15.8
	c-2.2-8.7,2-18.9,9.8-23c2.3-1.2,3.5-2.6,4.3-5.2C17.6,13.8,27,8.9,36.6,11.8c1.8,0.6,2.7,0.3,3.8-1.2c6-8.4,14.4-11.6,23.3-8.9
	c8.7,2.6,15.2,11,15.5,20.6c0.1,3,1,4,4,4.4C93.6,28.2,101,40.1,98.7,51c-2,9.3-9.6,17.3-20.4,16.6c-4.8-0.3-4.8,0-4.9,4.7
	c0,0.4,0.1,0.9,0,1.3c-0.8,5,0.7,9,4.9,11.9c3,2.1,4.2,5,3.7,8.8c-0.3,1.8,0,3.7-0.1,5.6c-0.1,3.2,0,5.9,3,8.3
	c2.9,2.2,2.4,6.5-0.3,9c-2.4,2.2-6.5,2.1-8.9-0.3c-2.4-2.5-2.9-6.7-0.2-8.8c3-2.2,3.1-4.9,3-8c0-0.3,0-0.7,0-1
	c1.1-6.3-1.5-11-6.3-15c-1.3-1-2-3.3-2.2-5c-0.4-3,0.1-6.1-0.2-9.1c-0.1-0.8-1.4-2.1-2.2-2.2c-8.2-0.9-8.2-0.8-8.2,7.4
	C59.4,77.6,59.4,80.1,59.4,82.6z M49.3,64.5c4.8,0,9.6,0,14.4,0c4.9,0,9.8,0.1,14.7,0c10.2-0.3,17.2-7.5,17.1-17.6
	c-0.1-10.1-6.9-17.2-16.9-17.3c-2.2,0-3.3-0.7-3-3c0.1-1,0.1-2,0.1-2.9c0-9-5.8-16.7-13.8-18.9c-7.6-2.1-16.7,2.3-20.1,10.2
	c-0.9,2-2,2.1-3.9,1.3c-10.2-4.2-18.6,0.3-20.9,11c-0.3,1.2-1.5,2.7-2.6,3.2C5.9,34.4,2,42.2,4,51.3c1.8,8.2,8.5,13.2,17.9,13.2
	C31,64.5,40.2,64.5,49.3,64.5z M31.6,117.9c-1.5,2.1-3.1,3.4-3,4.5c0.1,1.1,1.8,2.6,3,2.8c0.8,0.1,2.7-1.7,2.7-2.7
	C34.3,121.4,32.9,120.1,31.6,117.9z M56.6,107.6c0.5,0,1,0,1.5,0.1c0.8-1.1,2.4-2.3,2.3-3.3c-0.1-1.2-1.7-2.2-2.7-3.3
	c-1.1,1-2.8,1.8-3,3C54.5,105,55.9,106.4,56.6,107.6z M81.2,108.8c-0.5,0-1-0.1-1.4-0.1c-0.9,1.1-2.5,2.4-2.3,3.4
	c0.2,1.2,1.7,2.8,2.9,3c0.8,0.2,2.7-1.6,2.9-2.7C83.3,111.4,81.9,110,81.2,108.8z M14.3,103.5c1.5-2,3.1-3.2,3-4.1
	c-0.1-1.2-1.6-2.7-2.8-3c-0.8-0.2-2.8,1.6-2.8,2.5C11.6,100.1,13,101.4,14.3,103.5z"/>
<path class="st0" d="M60.5,8.6c5.4-0.1,10.8,5,10.7,9.8c0,0.8-0.8,1.6-1.3,2.3c-0.7-0.7-1.8-1.2-1.9-2c-0.9-3.9-3-6.4-7.1-7.1
	c-0.7-0.1-1.3-1.1-1.9-1.7C59.5,9.5,60.2,8.9,60.5,8.6z"/>
</svg>
