<?xml version="1.0" encoding="utf-8"?>
<!-- Generator: Adobe Illustrator 20.1.0, SVG Export Plug-In . SVG Version: 6.00 Build 0)  -->
<svg version="1.1" id="Layer_1" xmlns="http://www.w3.org/2000/svg" xmlns:xlink="http://www.w3.org/1999/xlink" x="0px" y="0px"
	 viewBox="0 0 317.8 285" style="enable-background:new 0 0 317.8 285;" xml:space="preserve">
<style type="text/css">
	.st0{fill:#F75B41;}
</style>
<g>
	<path d="M-227.3-82.1c0-7.4,0-14.7,0-22.1c0-3.9,1-5,4.9-5c5.7,0,11.3,0,17,0c3.2,0,4.4,0.9,5.3,4.1c1.6,6.1,1.6,6.1,7.8,6.1
		c7.1,0,14.2,0,21.3,0c3.2,0,4.2,1,4.2,4.2c0,1.4,0.1,2.8,0,4.3c-0.1,1.6,0.4,2.3,2.1,2.2c2-0.1,4-0.1,6,0c3,0,3.9,1.2,2.9,4
		c-2.7,7.3-5.6,14.5-8.4,21.8c-0.6,1.5-1.1,2.9-1.7,4.4c-0.9,2.2-2.5,3.3-5,3.2c-7.2,0-14.5,0-21.7,0c-1.8,0-2.4,0.5-2.3,2.3
		c0.1,2.3,0.1,4.7,0,7c0,1.2,0.4,1.7,1.6,1.6c2,0,4-0.1,5.9,0.1c0.6,0.1,1.7,1,1.7,1.5c0,1.7,0.9,1.9,2.3,1.9c7.7,0,15.4,0,23.2,0
		c1.1,0,2.7-0.6,2.8,1.2c0,0.3-1.8,0.9-2.8,1c-7.7,0.1-15.3,0.1-23,0c-1.5,0-2.6,0.1-2.5,2.1c0,0.4-0.9,1.4-1.4,1.4
		c-5.9,0.1-11.9,0.1-17.8,0c-0.6,0-1.6-1.1-1.6-1.7c-0.1-1.6-0.8-1.8-2.2-1.8c-7.6,0-15.2,0-22.7,0c-0.5,0-1,0.1-1.5-0.1
		c-0.5-0.2-0.8-0.7-1.2-1c0.4-0.4,0.7-1,1.1-1c1.5-0.2,3-0.2,4.5-0.2c6.5,0,13,0,19.6,0.1c1.4,0,2.5-0.1,2.4-2
		c0-0.5,1.1-1.3,1.8-1.4c1.9-0.2,3.8-0.1,5.7-0.1c1.3,0,1.8-0.4,1.8-1.7c-0.1-2.3-0.1-4.5,0-6.8c0.1-1.8-0.5-2.5-2.4-2.4
		c-7.5,0.1-15,0-22.5,0c-4.4,0-5.3-0.9-5.3-5.4C-227.3-67.6-227.3-74.9-227.3-82.1z M-157.5-86.2c-1.1-0.1-1.8-0.2-2.6-0.2
		c-16.7,0-33.3,0-50,0c-2.4,0-3.6,0.9-4.4,3.1c-2.3,6.1-4.7,12.1-7.1,18.2c-1,2.5-1.8,5-2.8,7.6c0.7,0.1,1,0.2,1.3,0.2
		c17.4,0,34.9,0,52.3-0.1c0.9,0,2.3-1,2.7-1.9C-164.5-68-161.1-76.9-157.5-86.2z M-225-63.2c0.1,0,0.3,0.1,0.4,0.1
		c0.3-0.7,0.6-1.4,0.9-2.1c2.5-6.4,4.9-12.8,7.4-19.2c1.3-3.4,2.2-4,5.9-4c12.1,0,24.2,0.1,36.4,0c6,0,4.9,0.9,5-5
		c0.1-3.3,0-3.3-3.5-3.3c-8.4,0-16.9,0-25.3,0c-1.7,0-2.6-0.6-2.9-2.3c-0.4-2-1.1-4-1.6-5.9c-0.4-1.3-1.2-2-2.6-1.9
		c-6,0-11.9,0-17.9,0c-1.5,0-2.2,0.5-2.2,2.1C-225-90.9-225-77.1-225-63.2z M-195.9-37.1C-195.9-37.1-195.9-37.1-195.9-37.1
		c2.1,0.1,4.2,0,6.4,0.1c1.7,0.1,2-0.9,1.9-2.3c-0.1-1.3,0.2-2.6-1.8-2.6c-4.3,0.1-8.6,0.1-12.9,0c-1.7,0-2,0.8-1.9,2.2
		c0.1,1.3-0.1,2.6,1.8,2.6C-200.3-37.2-198.1-37.1-195.9-37.1z"/>
</g>
<g>
	<path d="M213-216.1c1-0.3,1.5-0.4,2-0.7c2.9-1.9,5.6-1.4,8.6,0c5.6,2.7,11.4,5.1,17.1,7.6c1.3,0.6,1.8,1.3,1.8,2.7
		c-0.1,7.6-0.1,15.2,0,22.7c0,1.8-0.5,2.9-2.3,3.6c-6.6,2.8-13.2,5.8-19.9,8.6c-0.7,0.3-1.7,0.2-2.4-0.1c-4.2-1.7-8.3-3.6-12.4-5.5
		c-1.1-0.5-1.8-0.4-2.8,0.3c-3.9,2.6-7.8,5.1-11.8,7.5c-1.6,1-3.5,1-5.1,0c-4.1-2.6-8.3-5.1-12.2-8c-2.9-2-6-4.1-7.3-7.5
		c-1.1-2.9-2.3-5.9-2.4-8.9c-0.3-9.5-0.1-19-0.1-28.5c0-3,0-3,3-3.2c7.8-0.6,14.6-3.5,20.1-9c1.3-1.3,2.1-1.4,3.4,0
		c5.7,5.7,12.6,8.7,20.7,9.1c1.7,0.1,2.2,0.9,2.2,2.4C213-220.8,213-218.6,213-216.1z M188-232.5c0.2-0.1,0-0.1-0.1,0.1
		c-5.7,5.4-12.3,8.5-20.1,9.1c-1.5,0.1-2,0.8-1.9,2.3c0.1,9.2,0,18.4,0.1,27.6c0,4,1.3,7.8,4.3,10.3c4.8,4,10,7.6,15.2,11.1
		c1.2,0.8,3.5,1,4.8,0.4c3.9-1.9,7.5-4.4,11.7-7c-1.9-0.9-3.1-1.5-4.3-2c-1.2-0.5-1.6-1.3-1.6-2.6c0-7.8,0-15.6,0.1-23.4
		c0-0.9,0.9-2.1,1.7-2.5c2.4-1.3,4.9-2.2,7.4-3.3c5.8-2.4,5.7-2.4,5.8-8.6c0-1.7-0.7-2.1-2.2-2.4c-3.2-0.7-6.5-1.2-9.4-2.5
		C195.4-227.7,191.9-230.2,188-232.5z M220.5-174.3c0.5-0.1,0.9-0.1,1.2-0.2c5.7-2.5,11.4-4.9,17.1-7.5c0.7-0.3,1.3-1.6,1.3-2.5
		c0.1-6.6,0-13.2,0-19.7c0-0.5-0.1-0.9-0.2-1.4c-0.4,0.1-0.7,0.1-1,0.2c-5.8,2.5-11.7,5-17.5,7.7c-0.6,0.3-1.1,1.4-1.1,2.2
		c-0.1,6.4-0.1,12.9,0,19.3C220.3-175.7,220.4-175.1,220.5-174.3z M198.5-205.9c-0.1,0.6-0.3,0.8-0.3,1.1c0,6.9-0.1,13.9,0.1,20.8
		c0,0.7,0.9,1.7,1.6,2c4.8,2.2,9.7,4.3,14.6,6.4c1.1,0.5,2.2,0.9,3.4,1.5c0.1-0.5,0.2-0.8,0.2-1c0-6.9,0.1-13.9,0-20.8
		c0-0.7-0.9-1.7-1.6-2c-4.8-2.2-9.6-4.2-14.4-6.3C200.9-204.8,199.7-205.3,198.5-205.9z M199.8-207.7c6.6,2.9,12.6,5.6,18.6,8.1
		c0.5,0.2,1.3,0.1,1.8-0.2c4-1.7,8-3.5,12.1-5.3c1.9-0.8,3.8-1.6,6.2-2.7c-6.6-2.9-12.7-5.5-18.7-8.2c-0.3-0.2-0.9-0.2-1.2,0
		C212.5-213.3,206.5-210.6,199.8-207.7z"/>
</g>
<g>
	<path d="M-224.4-220.4c0,5.1,0,10.2,0,15.3c0,1.5,0.4,2.5,1.9,3.1c3.8,1.4,5.5,4.3,5.5,8.2c0,4.1-2.1,6.8-5.8,8.2
		c-1.3,0.5-1.6,0.9-1.6,2.4c0.2,5.1,0.1,10.2,0,15.3c0,0.4,0,0.8-0.1,1c-0.3,0.4-0.7,0.8-1,1.1c-0.3-0.4-0.9-0.8-0.9-1.2
		c-0.1-1-0.1-2.1-0.1-3.2c0-4.4-0.1-8.8,0-13.2c0-1.1-0.2-1.7-1.4-2.2c-4.1-1.5-6.2-4.6-6.1-8.5c0-3.8,2.1-6.8,6.1-8.3
		c1.5-0.5,1.4-1.5,1.4-2.6c0-10.4,0-20.8,0-31.2c0-0.9,0.7-1.8,1-2.6c0.4,0.9,1,1.8,1.1,2.7C-224.3-230.9-224.4-225.6-224.4-220.4z
		 M-219.2-194.1c0.1-3.5-2.6-6.4-6-6.4c-3.8-0.1-6.6,2.8-6.6,6.7c0,3.5,2.8,6.4,6.3,6.4C-221.7-187.3-219.3-189.9-219.2-194.1z"/>
	<path d="M-162.9-214.7c0,7.1,0,14.2,0,21.3c0,1.5,0.3,2.4,1.9,3c3.5,1.2,5.6,4.6,5.6,8.2c0,3.6-2.2,7-5.7,8.2
		c-1.5,0.5-1.9,1.4-1.9,2.8c0.1,1.3,0.1,2.6-0.1,3.8c-0.1,0.6-0.7,1-1,1.6c-0.3-0.5-0.9-1-1-1.6c-0.2-1.4,0.1-2.9-0.2-4.2
		c-0.1-0.8-0.8-1.8-1.4-2.1c-3.8-1.8-5.9-4.6-5.9-8.5c0-3.9,2-6.9,6-8.4c1.4-0.5,1.5-1.5,1.5-2.7c0-13.8-0.1-27.6-0.1-41.5
		c0-1.1,0-2.1,0.2-3.2c0.1-0.3,0.6-0.9,0.9-0.8c0.3,0,0.8,0.5,0.9,0.9c0.2,0.6,0.1,1.3,0.1,1.9
		C-162.9-228.8-162.9-221.7-162.9-214.7z M-170.2-182.2c0,3.7,2.8,6.6,6.3,6.6c3.5,0,6.3-3,6.3-6.6c0-3.5-3-6.7-6.4-6.7
		C-167.3-188.9-170.2-185.8-170.2-182.2z"/>
	<path d="M-195.8-187.2c0-6.3,0-12.6,0-18.9c0-1.5-0.3-2.4-1.9-3c-3.5-1.2-5.6-4.5-5.5-8.3c0-3.8,2.3-7.1,5.8-8.3
		c1.3-0.4,1.6-1.1,1.6-2.3c0-2.7-0.1-5.4,0-8.1c0.1-1,0.7-1.9,1.1-2.8c0.4,1,1,1.9,1,2.9c0.1,2.6,0.1,5.2,0,7.9c0,1.3,0.3,2,1.7,2.5
		c3.7,1.3,5.7,4.3,5.7,8.3c0,3.9-1.9,6.9-5.5,8.2c-1.5,0.5-1.9,1.3-1.9,2.8c0,12.5,0,25.1,0,37.6c0,1-0.7,2.8-1,2.8
		c-1.8-0.2-1.2-1.8-1.2-2.8C-195.9-174.8-195.8-181-195.8-187.2z M-201-217.1c0,3.7,2.9,6.7,6.4,6.6c3.6-0.1,6.2-3,6.1-6.8
		c0-3.8-2.8-6.6-6.4-6.5C-198.4-223.8-201-220.9-201-217.1z"/>
</g>
<g>
	<path d="M-221.5-430.9c-0.8-0.1-1.2-0.2-1.6-0.2c-2.1,0.2-3.1-0.7-2.9-2.8c0.1-1.4-0.5-1.9-1.9-1.8c-1.5,0.1-3,0.1-4.5,0
		c-0.6-0.1-1-0.7-1.6-1c0.5-0.4,1-1.1,1.5-1.1c1.6-0.2,3.3,0,4.9-0.1c0.5-0.1,1-0.8,1.5-1.2c-0.5-0.4-0.9-1-1.4-1.1
		c-1.5-0.1-3.1,0-4.7-0.1c-0.6-0.1-1.2-0.7-1.8-1.1c0.6-0.4,1.2-1,1.8-1c1.5-0.2,3,0,4.5-0.1c0.6-0.1,1.1-0.8,1.6-1.2
		c-0.5-0.4-1-1.1-1.5-1.2c-1.5-0.2-3.1,0-4.7-0.1c-0.6-0.1-1.1-0.7-1.7-1.1c0.5-0.4,1-1,1.6-1c1.6-0.1,3.3,0,4.9-0.1
		c0.5,0,0.9-0.7,1.4-1.1c-0.4-0.4-0.9-1.1-1.3-1.2c-1.6-0.2-3.3,0-4.9-0.1c-0.6-0.1-1.1-0.8-1.6-1.2c0.5-0.3,1.1-0.9,1.6-1
		c1.6-0.1,3.3,0,4.9-0.1c0.5,0,0.9-0.7,1.4-1.1c-0.5-0.4-0.9-1.1-1.4-1.2c-1.6-0.2-3.3,0-4.9-0.1c-0.6-0.1-1.1-0.6-1.6-1
		c0.6-0.4,1.1-1,1.7-1.1c1.5-0.2,3.1,0,4.7-0.1c0.5-0.1,1-0.8,1.5-1.2c-0.5-0.4-0.9-1.1-1.4-1.1c-1.6-0.2-3.3,0-4.9-0.2
		c-0.5-0.1-1-0.7-1.5-1.1c0.5-0.3,1-0.9,1.6-1c1.6-0.1,3.3,0,4.9-0.1c0.5,0,0.9-0.7,1.4-1.1c-0.4-0.4-0.8-1.2-1.3-1.2
		c-1.6-0.2-3.3,0-4.9-0.2c-0.6-0.1-1.1-0.7-1.7-1.2c0.5-0.3,1.1-0.9,1.6-0.9c1.6-0.1,3.3,0,4.9-0.1c0.5-0.1,0.9-0.9,1.4-1.3
		c-0.5-0.4-0.9-1-1.4-1.1c-1.5-0.2-3.1,0-4.7-0.1c-0.6-0.1-1.2-0.7-1.8-1c0.6-0.4,1.1-1,1.7-1.1c1.4-0.2,2.8-0.1,4.2-0.1
		c1,0,2.1,0,1.8-1.3c-0.1-0.5-1.1-1.1-1.7-1.2c-1.5-0.2-3,0-4.5-0.1c-0.6-0.1-1.1-0.6-1.6-0.9c0.5-0.3,1-0.9,1.6-1
		c1.5-0.1,3.1,0.1,4.7-0.1c0.6-0.1,1.1-0.7,1.6-1.1c-0.5-0.5-1-1.3-1.6-1.4c-1.3-0.2-2.7,0.1-4-0.1c-0.8-0.1-1.5-0.6-2.3-1
		c0.8-0.4,1.5-1,2.3-1.1c1.3-0.2,2.7,0.1,4-0.1c0.6-0.1,1-0.8,1.5-1.3c-0.5-0.4-1-1-1.6-1.1c-1.3-0.2-2.6,0.1-3.8-0.1
		c-0.8-0.1-1.6-0.6-2.4-1c0.8-0.4,1.7-1,2.6-1.2c1.2-0.2,2.6,0.1,3.8-0.1c0.5-0.1,1-0.8,1.5-1.3c-0.5-0.4-0.9-1-1.4-1.1
		c-1.5-0.1-3,0.1-4.5-0.1c-0.7-0.1-1.3-0.7-2-1c0.6-0.3,1.2-0.9,1.9-1c1.5-0.2,3,0,4.5-0.2c0.6-0.1,1.5-0.7,1.5-1
		c-0.4-3.4,1.6-3.7,4.4-3.3c0.1-2.2,0.1-4.2,0.3-6.2c0.1-0.6,0.6-1.2,1-1.8c0.3,0.6,0.9,1.2,0.9,1.9c0.1,1.5-0.1,3,0.1,4.5
		c0.1,0.6,0.9,1.1,1.3,1.6c0.4-0.5,1.1-1,1.2-1.6c0.2-1.7,0-3.4,0.1-5.1c0-0.5,0.6-0.9,1-1.4c0.4,0.4,1,0.8,1.1,1.3
		c0.2,1.5,0.1,3,0.2,4.5c0.1,0.9-0.4,2.2,1.2,2.2c1.8,0,1.2-1.4,1.3-2.4c0.1-1.4,0-2.8,0.1-4.2c0-0.5,0.6-0.9,1-1.4
		c0.3,0.5,0.9,0.9,1,1.4c0.1,1.7,0,3.4,0.1,5.1c0.1,0.5,0.7,1.3,1.2,1.5c1.1,0.3,1.4-0.5,1.4-1.5c0-1.6-0.1-3.1,0-4.7
		c0.1-0.6,0.7-1.2,1-1.7c0.3,0.6,0.8,1.1,0.9,1.7c0.1,1.6-0.1,3.3,0.1,4.9c0.1,0.5,0.8,1,1.3,1.4c0.4-0.5,1.2-1,1.2-1.5
		c0.2-1.6,0-3.3,0.1-4.9c0-0.6,0.6-1.1,0.9-1.6c0.4,0.6,1,1.1,1.1,1.7c0.2,1.6,0,3.3,0.2,4.9c0.1,0.5,0.9,1,1.3,1.4
		c0.4-0.5,1-0.9,1.1-1.5c0.1-1.7,0-3.4,0.1-5.1c0-0.5,0.6-1,0.9-1.4c0.4,0.5,1.1,0.9,1.2,1.4c0.2,1.6,0,3.3,0.2,4.9
		c0.1,0.6,0.8,1.1,1.3,1.7c0.4-0.5,1-1.1,1.1-1.6c0.2-1.6,0-3.3,0.1-4.9c0-0.5,0.6-1,0.9-1.4c0.4,0.5,1,1,1,1.5
		c0.1,1.6,0,3.3,0.1,4.9c0.1,0.6,0.8,1,1.2,1.6c0.4-0.5,1.1-1,1.2-1.6c0.2-1.7,0.1-3.4,0.3-5.1c0-0.5,0.6-0.9,1-1.3
		c0.3,0.4,0.9,0.9,1,1.3c0.1,1.5,0.1,3.1,0.1,4.7c0,1.7,0.6,2.4,2.5,1.7c0-1.8-0.1-3.7,0.1-5.6c0.1-0.7,0.7-1.4,1.1-2.1
		c0.4,0.7,1,1.4,1.1,2.2c0.2,1.4-0.1,2.8,0.1,4.2c0.1,0.6,0.8,1,1.2,1.5c0.4-0.5,1.1-1,1.1-1.6c0.2-1.7,0-3.4,0.1-5.1
		c0-0.5,0.7-0.9,1-1.3c0.3,0.4,0.8,0.8,0.8,1.3c0.1,1.7,0,3.4,0.1,5.1c0.1,0.6,0.7,1.1,1.1,1.6c0.5-0.5,1.3-1,1.3-1.6
		c0.2-1.6-0.1-3.3,0.1-4.9c0-0.5,0.7-1,1.1-1.5c0.3,0.5,0.9,1,1,1.6c0.1,1.5-0.1,3.1,0.1,4.7c0.1,0.6,0.7,1.6,1.2,1.7
		c1.3,0.3,1.4-0.8,1.4-1.8c0-1.4-0.1-2.8,0-4.2c0.1-0.7,0.7-1.3,1-1.9c0.4,0.7,1,1.3,1.1,2c0.2,1.4,0.1,2.8,0.1,4.2
		c0,1.4,0.5,2,1.9,1.8c1.9-0.2,2.6,0.7,2.5,2.5c-0.1,1.5,0.6,2,2,2c1.6-0.1,3.1,0,4.7,0.1c0.4,0,0.8,0.6,1.2,0.9
		c-0.4,0.4-0.8,1-1.3,1.1c-1.7,0.1-3.4,0-5.1,0.1c-0.5,0-1,0.7-1.5,1c0.5,0.5,0.9,1.2,1.4,1.3c1.5,0.2,3,0,4.5,0.1
		c0.7,0.1,1.3,0.7,2,1.1c-0.6,0.4-1.3,1-1.9,1.1c-1.4,0.2-2.8-0.1-4.2,0.1c-0.6,0.1-1.1,0.8-1.7,1.2c0.6,0.4,1.2,1.1,1.8,1.2
		c1.5,0.2,3,0,4.5,0.1c0.6,0.1,1.1,0.8,1.6,1.2c-0.6,0.3-1.1,0.9-1.7,0.9c-1.5,0.1-3.1-0.1-4.7,0.1c-0.6,0.1-1,0.8-1.6,1.2
		c0.5,0.5,1,1.2,1.6,1.3c1.1,0.2,2.3,0,3.4,0.1c1,0.1,2.5-0.7,2.7,1c0,0.2-1.7,0.8-2.6,0.9c-1,0.2-2.1,0-3.2,0
		c-0.9,0-2.2-0.2-1.8,1.2c0.1,0.5,1.2,1.1,1.9,1.2c1.3,0.2,2.7,0,4,0.1c0.6,0.1,1.2,0.7,1.8,1.1c-0.6,0.4-1.1,1-1.7,1.1
		c-1.5,0.2-3,0-4.4,0.2c-0.6,0.1-1.1,0.9-1.7,1.3c0.5,0.4,1.1,1,1.6,1.1c1.6,0.2,3.3,0,4.9,0.1c0.5,0,0.9,0.6,1.4,1
		c-0.4,0.4-0.8,1-1.3,1.1c-1.5,0.2-3.1,0.1-4.7,0.1c-0.9,0-2.1-0.1-1.8,1.3c0.1,0.5,1.1,1,1.7,1.1c1.5,0.2,3.1,0,4.7,0.1
		c0.5,0,0.9,0.6,1.4,1c-0.4,0.4-0.9,1-1.3,1.1c-1.6,0.1-3.3,0-4.9,0.2c-0.6,0.1-1.1,0.9-1.6,1.3c0.6,0.4,1.1,1,1.7,1.1
		c1.5,0.2,3.1,0,4.7,0.1c0.6,0.1,1,0.7,1.6,1c-0.5,0.4-1,1-1.6,1c-1.2,0.2-2.4,0-3.6,0.1c-1,0.1-2.6-0.7-2.6,1.2
		c-0.1,2,1.6,1.1,2.5,1.2c1,0.1,2.2-0.1,3.2,0.1c0.8,0.1,1.4,0.7,2.1,1.1c-0.7,0.4-1.4,0.9-2.2,1.1c-1.2,0.2-2.4-0.1-3.6,0.1
		c-0.7,0.1-1.9,0.6-2,1.1c-0.3,1.6,1.1,1.2,2,1.2c1.2,0.1,2.4-0.1,3.6,0.1c0.7,0.1,1.4,0.7,2.1,1.1c-0.7,0.4-1.4,0.9-2.2,1
		c-1.3,0.2-2.6-0.1-3.8,0.1c-0.7,0.1-1.7,0.6-1.8,1.1c-0.3,1.4,0.9,1.3,1.8,1.3c1.3,0,2.7-0.1,4,0.1c0.7,0.1,1.3,0.7,1.9,1.1
		c-0.6,0.3-1.2,0.9-1.9,1c-1.5,0.1-3.1,0-4.7,0.1c-0.5,0-0.9,0.8-1.3,1.2c0.4,0.4,0.9,1.1,1.3,1.2c1.6,0.2,3.3,0,4.9,0.1
		c0.6,0.1,1.1,0.8,1.7,1.2c-0.5,0.3-1.1,0.9-1.6,1c-1.5,0.1-3.1,0.1-4.7,0c-1.2,0-1.7,0.4-1.6,1.6c0.2,2-0.4,3.2-2.7,3
		c-1.2-0.1-1.6,0.5-1.6,1.7c0,1.7,0,3.4-0.2,5.1c0,0.4-0.6,0.8-0.9,1.2c-0.4-0.4-1-0.8-1.1-1.3c-0.1-1.7,0-3.4-0.1-5.1
		c-0.1-0.6-0.8-1.1-1.2-1.6c-0.5,0.5-1.3,1-1.3,1.6c-0.2,1.6,0,3.3-0.1,4.9c0,0.5-0.6,0.9-0.9,1.4c-0.4-0.4-1-0.8-1.1-1.3
		c-0.2-1.6,0-3.3-0.2-4.9c-0.1-0.6-0.8-1.1-1.3-1.7c-0.4,0.6-1,1.1-1.1,1.7c-0.2,1.3,0.1,2.7-0.1,4c-0.1,0.8-0.6,1.5-1,2.2
		c-0.3-0.7-0.8-1.4-0.9-2.1c-0.1-1.3,0.1-2.7-0.1-4c-0.1-0.6-0.8-1.2-1.2-1.8c-0.4,0.6-1.1,1.2-1.2,1.8c-0.2,1.5,0,3.1-0.2,4.7
		c0,0.5-0.6,1-1,1.4c-0.4-0.5-1-1-1.1-1.5c-0.2-1.4,0-2.8-0.1-4.2c0-0.9,0.4-2.3-1.2-2.1c-0.5,0.1-1,1.4-1.2,2.2
		c-0.2,0.9,0.1,2-0.1,3c-0.2,0.9-0.7,1.8-1.1,2.7c-0.4-0.9-1-1.7-1.1-2.6c-0.2-1.2,0.1-2.6-0.1-3.8c-0.1-0.6-0.8-1-1.2-1.6
		c-0.4,0.5-1.2,1-1.3,1.5c-0.2,1.6,0,3.3-0.1,4.9c0,0.5-0.7,1-1.1,1.5c-0.3-0.5-0.8-1-0.8-1.5c-0.1-1.6,0-3.3-0.1-4.9
		c0-0.5-0.7-1-1-1.5c-0.4,0.5-1.2,0.9-1.3,1.5c-0.2,1.6,0,3.3-0.2,4.9c-0.1,0.5-0.7,1-1.1,1.5c-0.3-0.5-0.9-1-1-1.6
		c-0.1-1.5,0.1-3.1-0.1-4.7c-0.1-0.6-0.8-1.1-1.3-1.7c-0.4,0.5-1.1,1-1.1,1.6c-0.2,1.6,0,3.3-0.2,4.9c-0.1,0.5-0.7,1-1.1,1.5
		c-0.3-0.5-0.9-0.9-0.9-1.4c-0.1-1.7,0-3.4-0.1-5.1c0-0.5-0.7-0.9-1.1-1.4c-0.5,0.5-1.3,0.9-1.3,1.4c-0.2,1.7,0,3.4-0.2,5.1
		c0,0.5-0.6,0.9-0.9,1.4c-0.3-0.5-0.9-0.9-0.9-1.4c-0.1-1.5-0.1-3.1-0.1-4.7c0-1-0.1-2.1-1.4-1.8c-0.5,0.1-1.1,1-1.2,1.7
		c-0.2,1.2,0.1,2.4-0.1,3.6c-0.1,0.9-0.6,1.7-0.9,2.5c-0.4-0.9-0.9-1.7-1-2.6c-0.2-1.1,0.1-2.3-0.1-3.4c-0.1-0.7-0.7-1.2-1.1-1.8
		c-0.4,0.6-1.2,1.1-1.2,1.7c-0.2,1.5,0,3.1-0.2,4.7c-0.1,0.5-0.7,1-1.1,1.5c-0.3-0.5-0.9-1.1-1-1.6c-0.1-1.4,0-2.8-0.1-4.2
		c0-1,0.2-2.3-1.3-2c-0.5,0.1-1.1,1.2-1.2,1.9c-0.2,1.5,0,3.1-0.1,4.7c0,0.4-0.5,0.9-0.8,1.3c-0.4-0.4-1.1-0.8-1.2-1.2
		C-221.6-426.5-221.5-428.6-221.5-430.9z M-223.8-462.6c0,8.9,0.1,17.7-0.1,26.6c0,2.2,0.7,2.7,2.8,2.7c17.5-0.1,35,0,52.5,0
		c2.8,0,2.9,0,2.9-2.9c0-17.7,0-35.4,0-53.2c0-2-0.7-2.5-2.6-2.5c-17.7,0.1-35.4,0.1-53.2,0c-1.8,0-2.5,0.4-2.5,2.4
		C-223.7-480.6-223.7-471.6-223.8-462.6z"/>
	<path d="M-174.4-462.6c0,6,0,12.1,0,18.1c0,1.8-0.5,2.5-2.4,2.5c-11.9-0.1-23.8-0.1-35.7,0c-1.8,0-2.5-0.6-2.5-2.5
		c0.1-12.1,0.1-24.2,0-36.4c0-1.8,0.6-2.6,2.4-2.6c11.9,0,23.8,0,35.7,0c1.8,0,2.5,0.7,2.5,2.5
		C-174.5-474.8-174.4-468.7-174.4-462.6z M-212.8-462.9c0,5.3,0.1,10.6,0,15.9c0,2,0.6,2.7,2.6,2.6c10.3-0.1,20.7-0.1,31,0
		c1.9,0,2.6-0.4,2.6-2.5c-0.1-10.8-0.1-21.7,0-32.5c0-1.7-0.8-2-2.2-2c-10.6,0-21.2,0.1-31.9,0c-1.7,0-2.2,0.6-2.1,2.2
		C-212.7-473.6-212.8-468.3-212.8-462.9z"/>
</g>
<g>
	<path d="M54.7-226c2.1,0.6,3.1,0.2,2.9-1.9c-0.1-0.8-0.1-1.7,0-2.5c0.1-0.5,0.6-1,0.9-1.4c0.4,0.5,1,0.9,1.1,1.4
		c0.2,1,0,2.1,0.2,3.2c0.1,0.6,0.8,1,1.3,1.5c0.5-0.5,1.3-1,1.4-1.6c0.2-1.1,0-2.3,0.2-3.4c0.1-0.4,0.6-0.8,1-1.2
		c0.4,0.4,1,0.7,1,1.1c0.2,1.1,0,2.3,0.2,3.4c0.1,0.6,0.9,1.1,1.4,1.7c0.5-0.5,1.3-1,1.4-1.6c0.2-1.7,0.2-3.4,0-5.1
		c-0.1-0.7-0.6-1.4-1.1-1.9c-1.2-1.4-1.3-2.8-0.1-4.2c1.2-1.3,2.6-1.4,4-0.4c1.4,0.9,1.6,2.9,0.5,4.3c-2.1,2.5-0.9,5.4-0.9,8.1
		c0,0.2,1,0.7,1.5,0.6c0.4-0.1,1-0.7,1.1-1.2c0.2-1.2,0-2.4,0.1-3.6c0-0.4,0.5-0.8,0.8-1.3c0.4,0.4,1.1,0.7,1.2,1.2
		c0.2,1,0.1,2,0.1,3c0,1.1,0.1,2,1.6,2c1.4,0,1.3-1,1.3-1.9c0-1-0.1-2,0.1-3c0.1-0.4,0.6-0.8,0.8-1.2c0.4,0.4,0.9,0.8,1,1.3
		c0.2,1,0.1,2.1,0,3.2c-0.1,1.2,0.5,1.9,1.6,1.6c0.6-0.2,1.2-0.9,1.5-1.5c0.2-0.4,0.1-1.1,0-1.7c-0.4-2.6,0.5-4.6,2.4-6.4
		c0.8-0.8,1.2-2.1,1.4-3.3c0.3-1.8,1.5-3.2,3.2-3.1c1.7,0.1,2.7,1.2,2.9,2.8c0.2,1.7-1,2.9-3,3.2c-1.7,0.2-4.9,3.4-5,5.2
		c-0.1,1.1-0.2,2.3,0,3.4c0.1,0.5,0.9,1.3,1.3,1.3c0.5,0,1.3-0.7,1.4-1.3c0.2-1.1,0-2.3,0.2-3.4c0.1-0.5,0.8-0.9,1.2-1.4
		c0.3,0.5,0.8,1,0.8,1.5c0.1,0.9,0.1,1.8,0,2.8c0,1,0,1.9,1.4,1.9c1.5,0,1.5-0.9,1.5-2c0-1-0.1-2,0.1-3c0.1-0.5,0.8-0.8,1.2-1.2
		c0.3,0.4,0.7,0.8,0.9,1.2c0.2,0.5,0.1,1.1,0.1,1.7c-0.1,1.8-0.3,3.5,2.4,3.4c0.4,0,1.1,1,1.1,1.5c0,1.6,0.8,1.9,2.2,1.8
		c1-0.1,2-0.1,3,0.1c0.4,0.1,0.8,0.6,1.2,1c-0.4,0.4-0.8,1-1.2,1.1c-1.1,0.2-2.3,0-3.4,0.2c-0.6,0.1-1,0.8-1.5,1.2
		c0.5,0.5,1,1.3,1.6,1.4c1,0.2,2.1,0,3.2,0.1c0.5,0.1,0.9,0.7,1.4,1c-0.5,0.4-0.9,1.1-1.4,1.2c-1.1,0.2-2.3-0.1-3.4,0.1
		c-0.5,0.1-1.5,0.9-1.4,1.2c0.2,0.6,0.8,1.5,1.3,1.6c0.9,0.3,2,0.1,2.9,0c2.7-0.3,5.1,0.4,7.2,2.2c0.6,0.5,1.7,0.7,2.5,0.8
		c1.9,0.2,3.1,1.4,3.1,3.1c-0.1,1.7-1,2.6-2.6,2.9c-1.6,0.3-3.1-0.9-3.5-2.7c-0.4-2.3-2.5-4.1-4.8-4.1c-2,0-4.1,0-6.2,0
		c0,1,0,1.8,0,2.9c1.6,0,3.1-0.1,4.7,0c0.5,0,0.9,0.6,1.4,0.9c-0.4,0.4-0.8,1.1-1.2,1.1c-1.5,0.2-3.1,0.2-4.9,0.3
		c0,0.9-0.1,1.7-0.1,2.8c1.7,0,3.2-0.1,4.6,0c0.5,0.1,1,0.7,1.5,1c-0.5,0.3-0.9,0.8-1.5,0.8c-1.1,0.1-2.3-0.1-3.4,0.2
		c-0.5,0.1-1.4,1-1.3,1.3c0.2,0.7,0.8,1.5,1.3,1.7c1.2,0.3,2.5,0,3.8,0.2c0.4,0,0.7,0.5,1.1,0.8c-0.3,0.4-0.7,1-1,1
		c-1.1,0.2-2.3,0.1-3.4,0.1c-1.1,0-1.7,0.4-1.7,1.6c0,1.3,0.7,1.6,1.8,1.5c2.3-0.1,4.7,0.5,6.7-1.6c1.1-1.1,2.8-0.6,3.8,0.7
		c1.1,1.4,0.9,2.8-0.3,4c-1.2,1.2-2.7,1.3-3.8,0.2c-2.2-2.3-4.8-1-7.2-1.2c-0.3,0-0.9,1-0.8,1.4c0.1,0.5,0.7,1.2,1.2,1.3
		c1.1,0.2,2.3,0,3.4,0.2c0.5,0.1,0.9,0.8,1.4,1.2c-0.5,0.3-0.9,0.8-1.4,0.9c-0.9,0.1-1.8,0.1-2.8,0c-1.1,0-1.9,0.1-2,1.6
		c0,1.4,0.9,1.3,1.9,1.3c0.9,0,1.7-0.1,2.5,0.1c0.6,0.2,1.2,0.7,1.8,1.1c-0.6,0.4-1.1,0.8-1.7,1c-0.5,0.2-1.1,0.1-1.7,0
		c-1.7-0.2-2.9,0.1-2.9,2.3c0,0.4-0.8,1.1-1.3,1.3c-2.3,0.6-2.9,2.6-1.2,4.4c1.1,1.2,1.6,2.3,0.8,3.8c-0.9,1.6-2.7,2.1-4.2,1.1
		c-1.5-1-1.8-2.8-0.9-4.5c0.6-1,1-2.1,1.1-3.2c0-0.5-0.9-1-1.5-1.5c-0.4,0.5-1.2,0.9-1.3,1.5c-0.2,1.1,0,2.3-0.1,3.4
		c-0.1,0.4-0.6,0.8-0.9,1.2c-0.4-0.4-1.1-0.7-1.2-1.2c-0.2-1-0.1-2.1-0.1-3.2c0-1.1-0.3-2-1.5-1.7c-0.6,0.1-1.3,1.1-1.3,1.6
		c0,3.7,0.2,7.4-2.3,10.6c-0.3,0.4,0,1.2-0.1,1.8c-0.2,1.7-1.1,2.8-2.9,2.9c-1.6,0-2.9-0.8-3.1-2.6c-0.2-1.7,0.6-2.9,2.3-3.3
		c2.2-0.6,3.8-2.3,4-4.6c0.1-1.6,0.2-3.3,0-4.9c-0.1-0.6-1-1.4-1.5-1.4c-0.5,0-1.3,0.8-1.5,1.4c-0.3,0.8,0.1,1.7-0.1,2.5
		c-0.1,0.7-0.6,1.4-0.9,2.1c-0.4-0.6-0.9-1.3-1-2c-0.2-0.9,0.2-1.9-0.1-2.7c-0.2-0.6-0.9-1.1-1.4-1.6c-0.5,0.5-1.1,0.9-1.3,1.5
		c-0.2,0.8,0.1,1.7-0.2,2.5c-0.2,0.8-0.8,1.6-1.2,2.3c-0.3-0.8-0.8-1.5-1-2.3c-0.2-0.7,0.2-1.6-0.1-2.3c-0.2-0.6-0.8-1-1.2-1.5
		c-0.5,0.5-1.4,0.9-1.5,1.5c-0.3,1.1-0.1,2.4-0.3,3.6c-0.1,0.4-0.7,0.7-1.1,1.1c-0.3-0.4-0.9-0.8-0.9-1.2c-0.1-1.2,0-2.4-0.1-3.6
		c-0.1-0.5-0.8-1.3-1.2-1.2c-0.6,0.1-1.4,0.7-1.5,1.2c-0.3,1.1-0.1,2.4-0.3,3.6c-0.1,0.4-0.6,0.8-1,1.2c-0.4-0.4-1-0.8-1.1-1.3
		c-0.2-1.1,0.1-2.3-0.1-3.4c-0.1-0.5-0.9-0.9-1.3-1.4c-0.5,0.5-1.3,0.9-1.3,1.4c-0.3,2-0.3,4,1.4,5.5c0.7,0.7,1.6,1.3,2.6,1.5
		c1.9,0.5,3.3,1.7,2.8,3.3c-0.4,1.1-1.6,2.3-2.8,2.7c-1.5,0.5-2.9-1.1-3.2-2.9c-0.2-1.1-0.4-2.3-1.1-3.1c-1.5-1.9-2.3-3.8-2-6.2
		c0.1-1,0.2-2.3-1.4-2.2c-1.5,0-1.3,1.2-1.4,2.1c0,0.9,0.1,1.9-0.2,2.7c-0.1,0.5-0.7,0.8-1.1,1.2c-0.3-0.4-0.7-0.8-0.9-1.2
		c-0.2-0.6-0.1-1.3-0.1-1.9c0.1-1.8,0-3.2-2.4-3.2c-0.4,0-1.2-1-1.2-1.6c-0.1-1.5-0.8-1.9-2.2-1.8c-0.8,0.1-1.6,0.1-2.3,0
		c-0.6-0.2-1.2-0.7-1.7-1c0.6-0.4,1.1-0.9,1.8-1.1c0.7-0.2,1.6,0,2.3-0.1c0.7-0.1,1.5-0.4,1.9-0.9c0.3-0.3,0-1.6-0.3-1.7
		c-0.7-0.3-1.6-0.2-2.4-0.1c-0.4,0.1-0.7,0.6-1.1,1c-1.3,1.1-2.7,1.2-4,0c-1.3-1.1-1.5-2.6-0.5-4c0.9-1.3,2.8-1.6,4.2-0.7
		c0.8,0.5,1.7,1.1,2.6,1.2c0.5,0.1,1.1-0.8,1.7-1.3c-0.5-0.5-1-1.3-1.6-1.4c-1.1-0.2-2.3,0-3.4-0.2c-0.4-0.1-0.7-0.7-1.1-1
		c0.3-0.3,0.7-0.8,1-0.8c1.1-0.1,2.3-0.1,3.4-0.1c1.2,0,1.8-0.6,1.5-1.7c-0.2-0.6-0.9-1.3-1.5-1.4c-1.1-0.2-2.3,0-3.4-0.1
		c-0.4,0-0.7-0.5-1.1-0.8c0.4-0.3,0.7-0.9,1.1-1c1-0.2,2.1-0.1,3.2-0.1c1.1,0,1.8-0.2,1.8-1.5c0-1.2-0.5-1.8-1.7-1.6
		c-1.9,0.2-3.9,0.4-5.8,0.9c-1.4,0.3-2.4,1.2-2.6,2.9c-0.2,1.6-1.5,2.5-3.3,2.3c-1.6-0.2-2.8-1.9-2.5-3.4c0.3-1.8,1.5-2.6,3.3-2.6
		c0.8,0,1.7,0,2.2-0.4c2.5-1.7,5.2-2,8.1-1.8c1,0.1,2.3,0.2,2.2-1.5c0-1.5-1.1-1.4-2.1-1.4c-0.8,0-1.7,0.1-2.5-0.1
		c-0.5-0.1-0.9-0.8-1.4-1.2c0.5-0.3,0.9-0.8,1.4-0.9c1-0.1,2-0.1,3,0c1.1,0,1.9-0.4,1.6-1.6c-0.1-0.5-1-1.1-1.6-1.3
		c-0.9-0.2-1.9,0.1-2.7-0.1c-0.6-0.1-1.1-0.7-1.7-1.1c0.5-0.3,1.1-0.8,1.6-0.9c1-0.2,2,0.1,3-0.1c0.6-0.1,1.4-0.9,1.4-1.3
		c0-0.5-0.7-1.2-1.3-1.5c-0.5-0.3-1.3-0.1-1.9-0.1c-2.7,0.3-5-0.2-6.7-2.6c-0.4-0.6-1.5-0.9-2.4-1.1c-1.8-0.5-2.9-2-2.5-3.6
		c0.4-1.7,1.5-2.5,3.2-2.4c1.8,0.1,2.8,1.5,2.7,3.4c-0.1,1.8,1.2,3.7,3,3.9c1.6,0.2,3.3,0.1,4.9,0c0.4,0,1-0.8,1-1.2
		c-0.1-0.5-0.6-1.3-1-1.4c-0.9-0.2-2,0.1-3-0.1c-0.7-0.1-1.3-0.7-2-1c0.7-0.4,1.4-0.8,2.1-1.2c0.2-0.1,0.4,0,0.6,0
		c1.8,0.1,3.8,0.6,3.6-2.5c0-0.3,1-1,1.6-1c1.6,0,1.9-0.8,1.8-2.1c-0.1-0.8-0.1-1.7,0-2.5c0.1-0.6,0.7-1,1-1.6c0.4,0.5,1,1,1,1.6
		C54.8-228.8,54.7-227.4,54.7-226z M74.1-177.8c6.9,0,13.7,0,20.6,0c1.6,0,2.1-0.5,2.1-2.1c-0.1-13.8-0.1-27.6,0-41.5
		c0-1.7-0.5-2.2-2.2-2.2c-13.8,0.1-27.5,0.1-41.3,0c-1.7,0-2.3,0.5-2.3,2.3c0.1,13.7,0.1,27.4,0,41c0,1.9,0.6,2.4,2.4,2.4
		C60.4-177.8,67.2-177.8,74.1-177.8z"/>
	<path d="M90.1-200.4c0,4.7-0.1,9.5,0,14.2c0,1.6-0.6,2.1-2.1,2.1c-9.4,0-18.8,0-28.2,0c-1.6,0-2.2-0.7-2.2-2.3
		c0.1-9.5,0.1-19,0-28.5c0-1.7,0.7-2.3,2.3-2.3c9.4,0,18.7,0,28.1,0c1.8,0,2.3,0.8,2.3,2.5C90.1-209.9,90.2-205.2,90.1-200.4
		C90.2-200.4,90.1-200.4,90.1-200.4z M59.9-200.8c0,4.1,0,8.2,0,12.3c0,1.5,0.4,2.2,2,2.2c7.9-0.1,15.9,0,23.8,0
		c1.6,0,2.3-0.5,2.3-2.2c-0.1-8.2,0-16.3,0-24.5c0-1.5-0.5-2-2-2c-8,0.1-16,0.1-24,0c-1.6,0-2.1,0.5-2.1,2.1
		C59.9-208.8,59.9-204.8,59.9-200.8z"/>
</g>
<g>
	<path d="M-50.2-433.8c-1.3,0.5-2.2,0.9-3.1,1.3c-24.3,10.4-50.3-8.4-48.1-34.7c1.4-16.7,15.1-30,31.7-31.3
		c18.4-1.4,34.7,12.6,36.4,30.1c0.3,3,0.1,6.1,0,9.1c-0.1,1.3,0.1,2,1.3,2.7c3.1,1.6,4.4,4.5,4.6,7.8c0.1,1.4,0.3,2.3,2,2.2
		c1.6-0.1,2.4,0.9,2.4,2.4c0.1,5,0.1,9.9,0,14.9c0,1.6-1.1,2.5-2.6,2.5c-7.3,0-14.6,0-21.9,0c-1.7,0-2.7-0.9-2.8-2.6
		C-50.2-430.8-50.2-432.1-50.2-433.8z M-67.2-454.1c3.8,0,7.5,0,11.3,0c1.5,0,2.2-0.4,2.2-2c0-5.4,0-10.7,0-16.1
		c0-1.5-0.6-1.9-2.1-1.9c-7.6,0-15.1,0-22.7,0c-1.3,0-2,0.4-2,1.8c0,5.4,0,10.9,0,16.3c0,1.6,0.8,2,2.3,2
		C-74.6-454.1-70.9-454.1-67.2-454.1z M-54.4-451.7c-8.7,0-17,0-25.4,0c1.1,6.3,2.9,12,6.9,16.9c3.1,3.8,7.5,4.1,10.9,0.7
		C-57.3-439-55.8-445.2-54.4-451.7z M-54.7-476.5c0-0.7,0.2-1.4,0-2c-1.1-3.3-1.9-6.7-3.4-9.8c-1.1-2.3-2.7-4.5-4.5-6.3
		c-2.8-2.7-5.8-2.7-8.8-0.2c-4,3.4-5.9,8.1-7.3,12.9c-0.5,1.7-0.8,3.5-1.2,5.4C-71.2-476.5-63.1-476.5-54.7-476.5z M-90.3-454.1
		c1.8,0,3.5-0.1,5.3,0c1.8,0.1,2.3-0.5,2.3-2.3c-0.1-5.2-0.1-10.4,0-15.7c0-1.4-0.2-2.1-1.8-2.1c-3.8,0.1-7.6,0-11.5,0
		c-1.3,0-1.9,0.5-2.2,1.7c-1.3,5.5-1.3,11.1,0,16.6c0.3,1.2,1,1.8,2.2,1.7C-94.1-454.1-92.2-454.1-90.3-454.1z M-43.8-474.1
		c-1.7,0-3.4,0-5.1,0c-2.7,0-2.6,0.1-2.5,2.8c0.1,4.3,0.4,8.6,0.1,12.9c-0.2,4.3-0.5,4.4,3.9,4.3c1.4,0,3.1-0.1,4.1-0.9
		c2-1.5,3.9-2.7,6.4-3c0.6-0.1,1.4-0.8,1.5-1.3c0.7-4.5,0.6-8.9-0.8-13.2c-0.2-0.7-1.3-1.4-2.1-1.5C-40.1-474.2-42-474.1-43.8-474.1
		z M-36.5-429c3.2,0,6.4,0,9.6,0c1.4,0,2.1-0.3,2-1.9c-0.1-3.9-0.1-7.8,0-11.7c0-1.4-0.5-1.9-1.8-1.9c-6.4,0-12.9,0.1-19.3,0.1
		c-1.4,0-2,0.5-2,2c0.1,3.8,0.1,7.6,0,11.5c0,1.5,0.6,2,2,2C-42.8-429.1-39.7-429-36.5-429z M-60.1-495.6c1.3,2,2.8,3.8,3.7,5.8
		c1.5,3.6,2.7,7.4,3.8,11.2c0.5,1.6,1,2.4,2.8,2.3c3.2-0.2,6.5,0,9.8-0.1c0.7,0,1.5-0.1,2.2-0.1C-39.9-484.8-50.4-493.8-60.1-495.6z
		 M-96.7-476.4c4.6,0,9,0,13.3-0.1c0.5,0,1.2-0.7,1.4-1.2c1.4-6.5,3.2-12.7,8-17.9C-82.9-494.3-93.4-486-96.7-476.4z M-96.6-451.9
		c2.4,8.6,13.9,18.4,22.4,19.1c-0.7-0.9-1.3-1.7-1.9-2.5c-3.1-4.5-4.6-9.5-5.8-14.7c-0.2-0.7-1-1.7-1.6-1.7
		C-87.8-451.9-92.1-451.9-96.6-451.9z M-36.4-446.6C-36.4-446.6-36.4-446.6-36.4-446.6c1.8,0,3.5,0,5.3,0c1.1,0,1.6-0.4,1.7-1.6
		c0.2-4.2-3-7.6-7.1-7.5c-4,0-7.2,3.5-6.8,7.6c0.1,0.6,0.9,1.4,1.4,1.5C-40.1-446.5-38.3-446.6-36.4-446.6z M-60-432.9
		c0.1,0.2,0.2,0.4,0.3,0.6c2.7-1.2,5.4-2.2,8.1-3.6c0.7-0.3,1.2-1.5,1.3-2.3c0.2-1.7,0-3.5,0.1-5.3c0.1-1.8,0.7-3.1,2.9-3.2
		c0.5,0,1.4-0.7,1.5-1.2c0.3-1.2,0.2-2.5,0.3-4c-1.5,0-2.8,0.1-4.1,0c-1.8-0.2-2.6,0.5-3,2.3C-53.8-443.5-55.8-437.7-60-432.9z"/>
	<path d="M-36.5-430.6c-0.5,0-1,0-1.5,0c-1.7,0.1-2.2-0.7-1.7-2.2c0.5-1.6,0.7-3-0.3-4.6c-1-1.6-0.3-3.7,1.2-4.7
		c1.6-1.1,3.3-1.2,4.9,0.1c1.6,1.3,1.9,3.1,1.1,4.9c-0.4,0.9-0.8,2-0.7,2.9C-32.9-430.6-32.8-430.6-36.5-430.6z M-36.4-432.8
		c0.3-0.1,0.5-0.3,0.8-0.4c-0.5-1.8-1.2-3.5,0.6-5c0.3-0.2-0.1-1.6-0.5-2.1c-0.3-0.3-1.6-0.3-2,0.1c-0.4,0.5-0.7,1.8-0.3,2.2
		c1.3,1.2,1.3,2.5,0.8,4C-37.1-433.7-36.6-433.2-36.4-432.8z"/>
</g>
<g>
	<path d="M197.5-41.4c-10.6,0-21.3,0-31.9,0c-2.8,0-2.9-0.1-2.9-2.9c0-15.5,0-30.9,0-46.4c0-2.6,0.2-2.8,2.8-2.8
		c13.9,0,27.8,0,41.7,0c2,0,3.2-0.5,4-2.3c0.8-1.8,1.9-3.5,2.9-5.2c1.2-2.1,2-2.1,3.2,0.1c1.1,1.9,2.2,3.8,3.2,5.7
		c0.6,1.3,1.5,1.7,2.9,1.7c2.2-0.1,4.4,0,6.6,0c1.7-0.1,2.4,0.6,2.4,2.4c-0.1,4.9-0.1,9.8,0,14.7c0,1.1,0.3,2.3,0.8,3.2
		c3.3,5.9,6.7,11.8,10.1,17.7c1.4,2.5,1.2,3-1.8,3c-2.4,0-4.8,0.1-7.2,0c-1.4,0-1.9,0.5-1.9,1.9c0.1,2.3-0.1,4.5,0,6.8
		c0.1,1.9-0.7,2.5-2.5,2.4C219.1-41.4,208.3-41.4,197.5-41.4z M203.8-83.1c-1.3,0-2,0-2.7,0c-11.2,0-22.4,0-33.6,0
		c-2,0-2.6,0.6-2.6,2.6c0.1,11.3,0,22.5,0,33.8c0,3,0,3.1,3,3.1c18.8,0,37.5,0,56.3,0c6,0,5.9,0,6.1-6.1c0.1-2.2-0.5-2.8-2.7-2.7
		c-12.7,0.1-25.4,0.1-38,0c-2.6,0-2.9-0.6-1.7-2.9c3-5.3,6.1-10.5,9.1-15.8C199.3-75,201.4-78.8,203.8-83.1z M241.1-54.8
		c-8.5-14.9-16.9-29.4-25.5-44.4c-8.6,15-16.9,29.5-25.4,44.4C207.3-54.8,223.9-54.8,241.1-54.8z M208.3-90.9
		c-0.6-0.1-0.9-0.2-1.1-0.2c-13.5,0-27,0-40.5,0c-1.3,0-1.8,0.4-1.7,1.7c0,0.7,0.1,1.4,0,2.1c-0.1,1.4,0.4,2,1.9,2
		c12.2,0,24.5,0,36.7,0c0.6,0,1.6-0.2,1.9-0.6C206.5-87.5,207.3-89.1,208.3-90.9z M222.9-91.1c0.9,1.6,1.8,2.8,2.4,4.2
		c0.8,2.2,2.6,1.8,4.1,1.5c0.5-0.1,0.7-1.6,1-2.5c0.1-0.6,0.2-1.3,0-1.9c-0.2-0.5-0.7-1.1-1.1-1.2C227.2-91.2,225.3-91.1,222.9-91.1
		z M227.7-82.8c0.8,1.4,1.5,2.7,2.5,4.5C230.5-83.2,230.4-83.3,227.7-82.8z"/>
	<path d="M216.8-76.8c0,2.1,0.1,4.2-0.1,6.4c0,0.6-0.7,1.2-1.1,1.8c-0.4-0.6-1-1.1-1.1-1.7c-0.1-4.3-0.1-8.6,0-12.9
		c0-0.6,0.7-1.2,1-1.8c0.4,0.6,1.1,1.1,1.1,1.7C216.9-81.2,216.8-79,216.8-76.8C216.8-76.8,216.8-76.8,216.8-76.8z"/>
	<path d="M218.8-62.5c0,1.7-1.7,3.2-3.4,3.1c-1.5-0.1-2.9-1.5-2.9-3.1c0-1.7,1.6-3.3,3.2-3.2C217.3-65.7,218.9-64.1,218.8-62.5z"/>
	<path d="M179.2-88.3c-1.1,0.6-1.6,1.1-2,1.1c-0.5,0-1-0.5-1.5-0.8c0.4-0.4,0.7-1.1,1.2-1.1C177.4-89.3,178-88.8,179.2-88.3z"/>
	<path d="M167.1-87c-0.4-0.4-0.7-0.8-1.1-1.3c0.5-0.3,0.9-1,1.4-0.9c0.5,0,1.2,0.6,1.3,1c0.1,0.5-0.4,1.1-0.6,1.7
		C167.7-86.6,167.4-86.8,167.1-87z"/>
	<path d="M172.4-86.8c-0.7-0.6-1.1-1-1.5-1.4c0.4-0.4,0.8-1,1.2-1c0.5,0,0.9,0.5,1.4,0.9C173.2-87.9,172.8-87.4,172.4-86.8z"/>
</g>
<g>
	<path d="M-70.3-231.9c2.6-4.4,6.2-7.8,11.6-8.8c9-1.7,17.7,4.3,19.5,13.5c0.3,1.5,0.4,3.1,0.4,4.6c0,1.3,0.4,1.8,1.8,2
		c7.3,0.8,13.1,6.5,14,13.6c1,8.3-2.7,15.4-9.8,18.2c-1.7,0.7-3.7,1-5.6,1c-6.7,0.1-13.5,0.2-20.2,0c-1.9,0-2.5,0.7-2.5,2.4
		c0,3.8,0,7.5,0.2,11.3c0,0.5,0.9,1.4,1.5,1.4c1.8,0.2,3.7,0,5.5,0.2c0.7,0.1,1.8,0.9,1.8,1.4c0,1.9,1,2,2.5,2
		c7.4,0,14.9,0,22.3,0.1c0.5,0,1-0.1,1.5,0.1c0.4,0.2,0.9,0.6,0.9,1c0,0.3-0.6,0.8-0.9,0.9c-0.5,0.2-1.1,0.1-1.7,0.1
		c-7.3,0-14.6,0-21.9,0c-1.5,0-2.7,0-2.6,2c0,0.5-1.2,1.4-1.8,1.4c-5.5,0.1-11.1,0.1-16.6,0.1c-1.2,0-2-0.4-1.9-1.7
		c0.1-1.7-0.9-1.7-2.1-1.7c-7.1,0-14.2,0-21.3,0c-0.6,0-1.3,0.1-1.9-0.1c-0.4-0.1-0.8-0.6-0.9-1c-0.1-0.2,0.4-0.8,0.7-0.8
		c0.7-0.2,1.5-0.2,2.3-0.2c6.9,0,13.7,0,20.6,0c1.4,0,2.5-0.1,2.6-1.9c0-0.5,1.1-1.3,1.8-1.4c1.7-0.2,3.4-0.2,5.1-0.1
		c1.8,0.1,2.3-0.7,2.3-2.4c-0.1-3.7-0.1-7.4,0-11.1c0-1.4-0.6-1.8-1.9-1.8c-6.7,0-13.3-0.1-20,0c-7,0.1-12.1-3-14.9-9.3
		c-2.9-6.5-2.1-12.9,2.7-18.5c1.3-1.6,3.4-2.5,5-3.9c0.8-0.7,1.6-1.5,1.9-2.5c1.8-6.1,5.5-10.1,11.9-11
		C-75.9-233.1-73.2-232.2-70.3-231.9z M-62.2-189.9c7.9,0,15.9,0.1,23.8-0.1c2.2-0.1,4.7-0.6,6.6-1.8c5.7-3.4,8-10,6.2-16.6
		c-1.4-5.2-6.4-10.6-13.6-10c-1.6,0.1-1.9-0.6-1.9-2c0.1-1.6,0.1-3.3,0-4.9c-0.7-7.4-7.1-13.5-14.2-13.6c-6,0-10.3,2.9-12.9,8.1
		c-1.1,2.1-2,2.3-3.9,1.2c-1.2-0.7-2.7-1.1-4-1.2c-6-0.4-11,3.8-12.2,10.4c-0.3,1.6-1,2.3-2.4,2.8c-6,2.3-9.5,9.2-8.3,16
		c1.1,6.3,6.5,11.8,13.4,11.5C-77.8-190.1-70-189.9-62.2-189.9z M-62-170.3C-62-170.3-62-170.3-62-170.3c-2.2,0-4.4,0-6.6,0
		c-1.3,0-1.8,0.6-1.6,1.8c0.2,1.1-0.7,2.8,1.5,2.9c4.4,0.1,8.7,0.1,13.1,0c2.1,0,1.3-1.8,1.4-2.9c0.2-1.2-0.3-1.8-1.7-1.8
		C-57.9-170.2-60-170.3-62-170.3z"/>
	<path d="M-53-234.8c4.3,0.2,7.9,4,7.9,7.6c0,0.6-0.6,1.1-0.9,1.7c-0.4-0.5-1.2-1-1.3-1.6c-0.6-3.2-2.5-4.9-5.5-5.7
		c-0.6-0.2-1.1-0.8-1.6-1.2C-53.8-234.3-53.2-234.7-53-234.8z"/>
</g>
<g>
	<path d="M-192.8-355.7c2-1.9,3.6-4.1,5.7-5.4c8.3-5.2,19.2-0.2,20.6,9.6c0.5,3.3,1.2,4.9,4.8,5.8c5.9,1.5,9.3,7.9,8.5,14.7
		c-0.7,6-5.4,10.9-11.3,11.4c-3.4,0.3-6.8,0.3-10.2,0.2c-1.8,0-2.3,0.6-2.3,2.4c0.1,4.2,0,8.4,0.1,12.5c0,2-0.5,2.8-2.7,2.8
		c-18.1-0.1-36.2-0.1-54.2,0c-1.8,0-2.5-0.6-2.5-2.4c0.1-13,0.1-26.1,0-39.1c0-1.8,0.6-2.5,2.5-2.5c7.6,0.1,15.2,0,22.8,0
		c1.1,0,2.1,0,2.4-1.5C-206.9-354.4-200.3-358.5-192.8-355.7z M-185.8-321.6C-185.8-321.6-185.8-321.6-185.8-321.6
		c6.4,0,12.8,0,19.1,0c4.5,0,8-1.8,10-5.9c2-4.3,1.9-8.5-0.9-12.5c-1.5-2.2-3.7-3.8-6.4-4.2c-1.4-0.2-3.4,0.2-4-0.6
		c-0.7-0.9-0.3-2.8-0.3-4.3c-0.2-5.9-5.3-12.9-13.2-11.9c-4.1,0.5-7,2.9-8.9,6.5c-0.6,1.2-1.2,2-2.8,1.2c-6.2-2.8-11.8,0-13.4,6.6
		c-0.3,1.4-0.9,2.3-2.3,2.9c-5.1,2.3-7.8,7.7-6.6,12.7c1.4,6.2,5.2,9.3,11.4,9.3C-198-321.5-191.9-321.6-185.8-321.6z M-217.5-336.7
		c-5.3,0-10.2,0-15.2,0c-1.3,0-1.4,0.9-1.4,1.9c0,9.6,0,19.3,0,28.9c0,1.5,0.6,2,2,2c16.9,0,33.9,0,50.8,0c1.5,0,2.2-0.5,2.1-2.1
		c-0.1-3.5-0.1-7.1,0-10.6c0.1-2.2-0.7-2.8-2.8-2.7c-7.4,0.1-14.7,0.1-22.1,0c-7.8,0-13.2-5.1-13.7-12.7
		C-217.9-333.5-217.6-335-217.5-336.7z M-213.4-343.6c-6.7,0-12.9,0-19.1,0c-2.1,0-1.5,1.6-1.6,2.8c-0.1,1.3,0.4,1.9,1.8,1.9
		c4.7-0.1,9.5,0,14.2-0.1c0.7,0,1.5-0.4,2-0.9C-215.2-340.8-214.5-342-213.4-343.6z"/>
	<path d="M-224.4-340.1c-0.3-0.4-0.6-0.8-0.9-1.2c0.5-0.3,0.9-0.8,1.4-0.9c0.3,0,1,0.6,1.1,0.9c0,0.6-0.3,1.2-0.5,1.8
		C-223.7-339.7-224.1-339.9-224.4-340.1z"/>
	<path d="M-233-339.6c-0.2-0.5-0.6-1.1-0.4-1.6c0.1-0.4,0.7-1,1.1-1.1c0.3-0.1,0.8,0.5,1.2,0.8c-0.3,0.4-0.6,0.9-1,1.3
		C-232.4-339.9-232.7-339.8-233-339.6z"/>
	<path d="M-228.1-339.9c-0.6-0.6-1.1-1-1.1-1.3c0-0.3,0.6-1,0.9-1c0.5,0.1,0.9,0.6,1.3,0.9C-227.3-340.9-227.6-340.5-228.1-339.9z"
		/>
</g>
<g>
	<path d="M71.3-308.7c-0.2,0.5-0.2,0.6-0.2,0.8c-0.4,6-0.4,6,5.5,6c0.9,0,1.8,0,2.8,0c1.3-0.1,2.1,0.5,1.9,1.8c-0.2,1.9,0.9,2,2.4,2
		c8.5,0,17,0,25.5,0c0.6,0,1.3,0,1.9,0.1c0.3,0.1,0.8,0.5,0.8,0.8c0,0.4-0.3,1-0.6,1.1c-0.8,0.2-1.7,0.3-2.5,0.3
		c-8.3,0-16.6,0-24.9,0c-1.7,0-2.7,0.3-2.6,2.3c0,0.5-1.1,1.5-1.7,1.5c-6.2,0.1-12.5,0.1-18.7,0.1c-1.4,0-2.2-0.6-2.1-2
		c0.1-1.4-0.6-1.8-1.9-1.8c-8.1,0-16.2,0-24.2,0c-1.2,0-3.3,0.6-3.4-1.1c0-1.9,2.1-1,3.3-1c7.9-0.1,15.9-0.1,23.8,0
		c1.6,0,2.6-0.3,2.5-2.2c-0.1-1.3,0.7-1.7,1.9-1.7c2.2,0,4.4,0,6.6,0c1.3,0,1.7-0.5,1.8-1.8c0.3-5,0.3-5-4.6-5c-7.2,0-14.3,0-21.5,0
		c-0.8,0-1.7,0-2.5-0.1c-2.4-0.2-3.5-1.3-3.5-3.7c-0.1-4.4-0.1-8.8,0-13.2c0-2.4,1.1-3.4,3.5-3.7c0.7-0.1,1.4-0.1,2.1-0.1
		c18.5,0,37,0,55.5,0c4.5,0,5.5,1,5.5,5.5c0,3.4,0,6.8,0,10.2c0,3.9-1.1,5-5.1,5.1c-8.2,0-16.4,0-24.7,0
		C72.9-308.7,72.1-308.7,71.3-308.7z M70.1-327.3c-9.5,0-19,0-28.5,0c-2.4,0-2.8,0.4-2.8,2.9c0,3.5,0,7.1,0,10.6
		c0,2.4,0.4,2.8,2.9,2.8c2,0,4,0,6,0c16.9,0,33.9,0,50.8,0c1.9,0,2.7-0.6,2.7-2.6c-0.1-3.6,0-7.2,0-10.8c0-2.7-0.2-2.9-2.9-2.9
		C88.8-327.3,79.4-327.3,70.1-327.3z M69.8-294.3c2.4,0,4.8-0.1,7.2,0c1.4,0,2.1-0.4,2-1.9c-0.1-0.6,0-1.3,0-1.9
		c0.1-1.3-0.4-1.9-1.8-1.9c-4.9,0.1-9.8,0.1-14.7,0c-1.2,0-1.9,0.4-1.8,1.7c0,0.6,0.1,1.1,0,1.7c-0.2,1.7,0.4,2.4,2.2,2.3
		C65.3-294.4,67.5-294.3,69.8-294.3z"/>
	<path d="M69.9-330.6c-9.4,0-18.8,0-28.3,0c-4.1,0-4.9-0.8-4.9-5c0-3.5,0-6.9,0-10.4c0-4.1,1-5.2,5.1-5.2c14.3,0,28.6,0,42.9,0
		c4.5,0,9.1,0,13.6,0c3.8,0,5,1.2,5,4.9c0,3.8,0,7.7,0,11.5c0,3-1.1,4.2-4.1,4.2C89.5-330.5,79.7-330.6,69.9-330.6z M70-349
		c-9.3,0-18.7,0-28,0c-3,0-3.2,0.3-3.3,3.3c0,3.3,0,6.7,0,10c0,2.6,0.4,2.9,3,2.9c10.2,0,20.4,0,30.6,0c8.6,0,17.3,0,25.9,0
		c2.7,0,2.9-0.3,2.9-2.9c0-3.4,0-6.8,0-10.2c0-2.8-0.2-3-3-3.1C88.7-349,79.4-349,70-349z"/>
	<path d="M69.9-352.3c-9.6,0-19.1,0-28.7,0c-3.5,0-4.4-0.9-4.4-4.4c0-4,0-7.9,0-11.9c0-3.1,1.1-4.2,4.3-4.3c4.4-0.1,8.8,0,13.2,0
		c14.6,0,29.2,0,43.8,0c4.4,0,5.4,1,5.4,5.4c0,3.7,0,7.4,0,11.1c0,2.9-1.2,4.2-4.1,4.2C89.4-352.3,79.7-352.3,69.9-352.3z M70-370.6
		c-9.4,0-18.9,0-28.3,0c-2.5,0-2.9,0.4-2.9,3c0,3.3,0,6.7,0,10c0,3,0.4,3.4,3.5,3.4c8.1,0,16.2,0,24.2,0c10.6,0,21.1,0,31.7,0
		c2.6,0,2.9-0.3,2.9-2.9c0-3.5,0-7.1,0-10.6c0-2.5-0.3-2.8-2.8-2.8C88.8-370.6,79.4-370.6,70-370.6z"/>
	<path d="M82.6-320.2c2.8,0,5.5-0.1,8.3,0c0.6,0,1.2,0.7,1.8,1.1c-0.6,0.4-1.2,1.1-1.7,1.1c-5.5,0.1-11,0.1-16.6,0
		c-0.6,0-1.2-0.7-1.7-1.1c0.6-0.4,1.1-1.1,1.7-1.1C77-320.3,79.8-320.2,82.6-320.2z"/>
	<path d="M42.7-319c0-2.5,1.6-4.2,4-4.2c2.4,0,4.2,1.7,4.3,4.1c0,2.3-1.9,4.2-4.1,4.2C44.5-314.9,42.7-316.6,42.7-319z M49.6-319
		c-1.3-1-2.1-2-2.8-2c-0.6,0-1.6,1.2-1.6,1.9c0,0.6,1,1.7,1.7,1.8C47.5-317.2,48.2-318.1,49.6-319z"/>
	<path d="M58.5-323.2c2.5,0,4.2,1.6,4.3,4c0,2.3-1.8,4.2-4.1,4.3c-2.2,0-4.2-1.9-4.3-4.1C54.4-321.3,56.2-323.2,58.5-323.2z
		 M58.7-322c-1,1.4-1.9,2.2-1.9,3c0,0.6,1.2,1.7,1.8,1.7c0.6,0,1.8-1,1.8-1.6C60.5-319.8,59.6-320.6,58.7-322z"/>
	<path d="M82.5-341.9c2.7,0,5.4-0.1,8.1,0.1c0.7,0,1.3,0.7,2,1c-0.6,0.4-1.3,1.1-1.9,1.1c-5.4,0.1-10.8,0.1-16.1,0
		c-0.7,0-1.3-0.7-2-1.1c0.7-0.4,1.4-1.1,2.1-1.1C77.3-342,79.9-341.9,82.5-341.9z"/>
	<path d="M42.7-340.8c0-2.5,1.7-4.2,4.1-4.1c2.4,0.1,4.2,1.9,4.2,4.2c0,2.3-1.9,4.2-4.2,4.2C44.4-336.6,42.7-338.4,42.7-340.8z
		 M49.6-340.8c-1.3-0.9-2.1-1.8-2.8-1.7c-0.7,0.1-1.7,1.2-1.7,1.8c0,0.6,1.1,1.7,1.8,1.7C47.5-339,48.3-339.9,49.6-340.8z"/>
	<path d="M58.7-344.9c2.4,0,4.2,1.8,4.1,4.2c0,2.3-2,4.2-4.3,4.1c-2.2,0-4.2-2-4.2-4.2C54.4-343.2,56.3-345,58.7-344.9z M58.7-338.2
		c0.9-1.2,1.8-1.9,1.8-2.6c-0.1-0.7-1.2-1.9-1.7-1.8c-0.8,0.1-1.8,1.1-1.9,1.8C56.7-340.1,57.7-339.3,58.7-338.2z"/>
	<path d="M62.8-362.6c0,2.3-1.8,4.2-4.1,4.2c-2.2,0.1-4.2-1.9-4.3-4.1c0-2.2,1.9-4.2,4.2-4.2C60.9-366.7,62.8-364.9,62.8-362.6z
		 M58.6-359.9c0.9-1.2,1.9-1.9,1.8-2.6c-0.1-0.7-1.2-1.9-1.7-1.8c-0.8,0.1-1.8,1.1-1.9,1.8C56.7-361.9,57.7-361.1,58.6-359.9z"/>
	<path d="M82.4-361.4c-2.6,0-5.2,0.1-7.9,0c-0.7,0-1.3-0.7-2-1.1c0.6-0.4,1.3-1.1,1.9-1.1c5.3-0.1,10.6-0.1,15.9,0
		c0.7,0,1.4,0.8,2.1,1.2c-0.7,0.3-1.3,1-2,1C87.8-361.3,85.1-361.4,82.4-361.4z"/>
	<path d="M42.7-362.4c0-2.5,1.6-4.2,4-4.3c2.3,0,4.2,1.8,4.3,4.1c0,2.3-1.8,4.2-4.1,4.3C44.5-358.3,42.7-360,42.7-362.4z
		 M46.9-359.8c0.8-1.3,1.8-2.1,1.7-2.7c-0.2-0.8-1.3-1.3-1.9-1.9c-0.6,0.7-1.6,1.3-1.6,2C45-361.7,46-361,46.9-359.8z"/>
</g>
<path class="st0" d="M-20,198.5c0,0-3.7-53.9-9.2-76.7c-5.8-22.6-16.3-13.5-18.5-7.5c-2.1,6-12.5,12.5-25.1-34.8
	c-12.9-47.3-32.2-54.4-47.9-29.2S-152,62-165.7,34.9c-15-29.9-55.7-53.9-50.5-13.8c5.6,44.3-6,38-34.6,21.1
	c-28.4-17-38-23.4-50.3-13.8c-12.3,9.5,0,15.9,6,27.1c6,11.2-2.8,12.5-17,12.5s-26.2-1.9-30.9,9.9c-4.7,11.8,23.2,15-9.2,26
	c-25.1,8.4-10.7,26.7,4.1,29c14.8,2.4,14.6,11.4,10.3,18.7c-4.3,7.3-10.3,20.4,26.9,20.8c37.4,0.4,37.6,9,21.7,18.5
	c-15.9,9.5-2.4,28.4,28.4,26.9c30.9-1.5,92.2-22.4,70.9,10.5s17,37.6,44.3,18.1c28.6-20.4,42.3-18.9,37.4-4.1
	c-4.9,14.8,2.8,16.5,18.7,10.7c15.9-5.8,22.8-24.3,36.8-25.6c14-1.1,21.3,6.4,25.1,3c4.5-5.2-53.5-46.2-136.3-79.1
	c-82.5-32.5-152.6-36.1-171.3-36.1s-20.4,0.4-20.4,0.4s53.9-8.4,130.5,5.8S-20,198.5-20,198.5L-20,198.5z"/>
<g>
	<path class="st0" d="M94.3,182.2c-28.7-10.9-54.8-21.1-81.1-31.2c-2.6-0.9-5.4-1.4-7.8-2.8c-2.1-1.4-3.5-3.8-5.4-5.7
		c1.9-1.7,3.5-4.3,5.9-5.2c26.8-10.7,53.6-21.1,80.4-31.5c1.9-0.7,4-1.7,7.8-3.3C74.6,94.8,56.9,88,39.3,81.1
		c-11.3-4.3-22.6-8.5-33.6-13c-2.1-0.9-3.5-3.8-5.4-5.7c1.9-1.7,3.8-4.3,5.9-5.2C52.7,39,99.5,21.2,146,2.5
		c10.3-4.3,19.3-2.6,28.9,1.2c44.9,17.8,89.8,35,134.6,52.3c0.7,0.2,1.6,0.5,2.3,0.9c2.1,1.9,4,4,6.1,5.9c-1.9,1.9-3.5,4.3-5.9,5.2
		c-20.4,8-40.9,15.9-61.3,23.7c-8.2,3.1-16.2,6.4-26.8,10.4c9.6,4,17.2,7.1,24.9,10.2c20.7,8,41.4,15.9,62,24.1
		c2.6,0.9,4.7,4,6.8,6.2c-2.3,2.1-4.5,5-7.3,5.9c-23.3,9.2-46.5,18-69.8,26.8c-4.9,1.9-9.6,3.8-16.7,6.9c8.9,3.8,16,6.9,23,9.7
		c21.4,8.3,43,16.6,64.4,25.1c2.3,0.9,4.2,3.8,6.3,5.7c-2.1,1.9-4,4.7-6.3,5.7c-44.9,17.5-90,34.1-134.6,52.3
		c-12.7,5.2-23.3,5-35.7,0c-44.4-18-89.3-34.6-133.9-52.1c-2.6-0.9-4.7-4-6.8-6.2c2.1-1.9,4.2-4.5,6.6-5.4
		c26.8-10.7,53.6-21.1,80.4-31.5C88.9,184.6,90.5,183.9,94.3,182.2z M17.9,142.2c2.6,1.4,3.3,2.1,4,2.4
		c43.9,17,87.9,34.1,131.8,50.7c3.8,1.4,8.7,0.7,12.5-0.7c32.4-12.1,64.9-24.6,97.3-37.2c12-4.5,23.7-9.2,36.7-14.2
		c-2.1-1.4-2.8-2.1-4-2.6c-27-10.4-54-21.1-81.3-31.2c-3.1-1.2-7-0.7-10.1,0.5c-13.2,4.7-25.8,10.4-39,14.9c-4,1.4-9.2,1.4-13.2,0.2
		c-12.7-4.3-24.9-9.9-37.6-14.4c-4.2-1.4-9.6-1.9-13.9-0.5c-19,6.6-37.8,14.2-56.9,21.5C36,134.9,27.6,138.4,17.9,142.2z
		 M17.2,222.2c5.6,2.4,9.4,4,13.2,5.4c38.8,14.9,77.5,29.6,116.3,45c8.7,3.6,16.4,3.3,24.9,0c29.4-11.8,59.2-23,88.8-34.3
		c12.9-5,25.8-10.2,39.5-15.6c-1.6-1.4-2.3-2.1-3.1-2.4c-27.3-10.7-54.5-21.3-82-31.5c-3.1-1.2-7-0.5-10.1,0.5
		c-13.2,4.7-25.8,10.4-39,14.9c-4.2,1.4-9.6,1.2-13.9-0.2c-13.4-4-26.1-9.7-39.2-14.4c-2.6-0.9-6.1-1.7-8.7-0.7
		C75.7,199.5,47.3,210.6,17.2,222.2z M17.7,62.4c2.8,1.7,3.5,2.4,4.7,2.6C66.1,81.8,110,98.9,154,115.4c3.5,1.2,8,0.7,11.5-0.7
		c32.4-12.1,64.9-24.6,97.3-37.2c12-4.7,24.2-9.5,38.3-15.2c-7.5-2.8-12.9-4.7-18.1-6.9c-37.8-14.7-75.4-29.1-113.3-44
		c-7.3-2.8-13.9-3.1-21.1-0.2c-25.1,10.2-50.5,19.6-75.7,29.4C55.1,47.5,37.2,54.6,17.7,62.4z"/>
	<path class="st0" d="M159.6,37.6c8.2,3.1,16.7,6.4,25.1,9.7c8.5,3.3,16.9,6.4,25.1,9.9c2.1,0.9,3.8,3.6,5.6,5.4
		c-1.9,1.9-3.3,4.7-5.4,5.7c-15.3,6.2-30.5,12.5-46.1,17.3c-5.4,1.7-12-0.9-17.9-2.8c-13.2-4.5-26.1-9.7-39-14.9
		c-1.9-0.7-4.5-3.3-4.5-5c0-1.9,2.6-4.5,4.5-5.2c16-6.4,32.2-12.5,48.2-18.7C156.6,38.3,158,38,159.6,37.6z M118.7,62.6
		c13.9,5.4,25.8,10.2,37.6,14.7c0.9,0.5,2.3,0.7,3.1,0.5c12.5-4.5,24.7-9.5,37.1-14c-12-6.6-24.2-11.4-36.4-15.6
		c-1.2-0.5-2.8-0.2-4,0.2C144.6,52.7,132.8,57.2,118.7,62.6z"/>
</g>
</svg>
