<?xml version="1.0" encoding="utf-8"?>
<!-- Generator: Adobe Illustrator 20.1.0, SVG Export Plug-In . SVG Version: 6.00 Build 0)  -->
<svg version="1.1" id="Layer_1" xmlns="http://www.w3.org/2000/svg" xmlns:xlink="http://www.w3.org/1999/xlink" x="0px" y="0px"
	 viewBox="0 0 573 359" style="enable-background:new 0 0 573 359;" xml:space="preserve">
<style type="text/css">
	.st0{fill:#3E55DB;}
	.st1{fill:#5193F4;}
</style>
<path class="st0" d="M-589.5,358.2c0,0,3.1,2.9,5.5-2.1s13.2-30.2,27.5-47.1s29.1-36.4,56.1-35.2c27,1.2,35.2-9.9,44-18.1
	c8.8-8.2,16.4-13.1,39-10.3c22.6,2.9,22.6,22.3,46.1,27.4c23.4,5.1,36.3,4.6,64.9-15.2c28.5-19.8,49.5-2.5,73.5,1.1
	s40.3-3,61.6-12.8c21.3-9.7,41.2-31.3,50.4-62.8c9.1-31.5,2.7-38.5,57.9-55.2s43.9-78,38-94.9C-31,16.1-78.1,1.1-78.1,1.1
	s-33.3-0.1-54.8,37.1s-46,46.9-64.9,39.3c-18.8-7.5-37.1-18-74.3,3.2c-37.1,21.3-79.9,85.4-93.9,96.4
	C-380.2,188.2-588.7,260.2-589.5,358.2z"/>
<path class="st1" d="M-68.2,0c-4.8,0-9.7,0.8-14.3,2.4c-29.7,10.3-26.4,20.9-39,50.7c-12.6,29.7-38.9,35.3-75.2,23.8
	c-54.2-17.2-76.3,34.9-91.7,48.7c-30.8,26.9-114.2,43.1-172.8,67.3c-84.6,34.9-120.8,104.6-128.4,132.2c-7.6,27.6,0.1,33,0.1,33
	c2.9,2.7,4.9-7.9,11.7-26c6.9-18.1,24-44.9,35.2-50.1c11.2-5.1,18.1-16.2,30.6-20.6c12.6-4.4,14.5,1.7,37.7-21.1
	c23.2-22.9,43.4-29.7,78.4,3c35,32.8,60.9,36.2,73.1,15.6s41.5-43,75.7-20.6c34.3,22.5,75,21.7,99.7-15.6s5.3-71.6,39.6-89.5
	s78-10.7,85.3-64.4C-16.4,23.7-42.2,0.1-68.2,0z M-81.1,63.3c0,0-0.9,1.6-3.5,4.5c-12.2,15-58.9,66.3-161.3,109
	c-121.4,50.7-172.4,44.5-172.4,44.5s81.8-10.6,200.6-68.5c93-45.3,124-74.5,133.2-85C-82.3,65-81.1,63.3-81.1,63.3L-81.1,63.3z"/>
</svg>
