<?xml version="1.0" encoding="utf-8"?>
<!-- Generator: Adobe Illustrator 20.1.0, SVG Export Plug-In . SVG Version: 6.00 Build 0)  -->
<svg version="1.1" id="Layer_1" xmlns="http://www.w3.org/2000/svg" xmlns:xlink="http://www.w3.org/1999/xlink" x="0px" y="0px"
	 viewBox="0 0 169 96" style="enable-background:new 0 0 169 96;" xml:space="preserve">
<style type="text/css">
	.st0{fill:#A23DF2;}
	.st1{fill:#E921F4;}
</style>
<path class="st0" d="M137,87.1c0,0,24.9,14.4,28.9,6.6C184.6,57.2,114,38.9,95,34.8C71.4,29.6,55.3,23.6,39.3,6.9
	C23.3-9.7-9,6.8,2.4,22.8c11.3,16,16,5.3,32.3,17.1C50.8,51.5,44.7,75,77,84C99.5,90.3,137,87.1,137,87.1L137,87.1z"/>
<path class="st1" d="M16.9,3.8c-4.7,0-9,1.1-12.4,2.9C-0.1,11-1.8,16.9,2.4,22.8c3.1,4.4,5.7,6.8,8.2,8.1c9-0.3,21-0.7,29,13.5
	C49.9,56.8,48.5,76,77,84c1.6,0.5,3.3,0.9,5.1,1.2c5.7-5.3,21.9-17.2,46.7-9.8c31.4,9.3,40.2,21.6,38.3,5.4c-1-9.1-11-21-24-29.6
	c-8.4-4.4-17.6-7.9-26.1-10.7c-2.5-0.4-5-0.6-7.5-0.5C84,40.8,53.6,41,41.9,20.3C35,8,25.4,3.9,16.9,3.8z"/>
</svg>
