<?xml version="1.0" encoding="utf-8"?>
<!-- Generator: Adobe Illustrator 20.1.0, SVG Export Plug-In . SVG Version: 6.00 Build 0)  -->
<svg version="1.1" id="Layer_1" xmlns="http://www.w3.org/2000/svg" xmlns:xlink="http://www.w3.org/1999/xlink" x="0px" y="0px"
	 viewBox="0 0 464 291" style="enable-background:new 0 0 464 291;" xml:space="preserve">
<style type="text/css">
	.st0{fill:#A23DF2;}
	.st1{fill:#E921F4;}
	.st2{fill:#00EDFF;}
	.st3{fill:#15F5FF;}
</style>
<path class="st0" d="M-22.8,290.3c0,0-2.5,2.3-4.5-1.7c-1.9-4-10.7-24.4-22.3-38.2c-11.6-13.7-23.6-29.5-45.5-28.6
	s-28.5-8-35.6-14.7c-7.1-6.6-13.3-10.6-31.6-8.3c-18.3,2.3-18.3,18.1-37.3,22.2c-19,4.2-29.4,3.7-52.6-12.3
	c-23.1-16.1-40.1-2-59.5,0.9s-32.7-2.5-49.9-10.4s-33.4-25.4-40.8-50.9c-7.4-25.5-2.2-31.2-46.9-44.8
	c-44.5-13.4-35.4-63.1-30.5-76.7c4.8-13.7,43-25.8,43-25.8s26.9-0.1,44.4,30c17.4,30.1,37.3,38,52.5,31.9s30.1-14.6,60.2,2.6
	c30.1,17.2,64.7,69.2,76.1,78.1C-192.3,152.6-23.5,210.9-22.8,290.3z"/>
<path class="st1" d="M-445,0c3.9,0,7.8,0.6,11.6,1.9c24,8.3,21.4,17,31.6,41.1c10.2,24.1,31.5,28.6,60.9,19.3
	c43.9-13.9,61.8,28.3,74.2,39.5c24.9,21.8,92.5,34.9,139.9,54.6c68.5,28.4,97.9,84.9,104,107.3c6.2,22.4-0.1,26.8-0.1,26.8
	c-2.4,2.2-3.9-6.4-9.5-21.1c-5.5-14.7-19.4-36.4-28.5-40.6c-9.1-4.2-14.6-13.1-24.8-16.7c-10.2-3.6-11.7,1.4-30.5-17.1
	s-35.1-24.1-63.5,2.5c-28.4,26.5-49.3,29.3-59.2,12.7c-9.9-16.7-33.6-34.9-61.3-16.7c-27.7,18.2-60.7,17.6-80.8-12.7
	c-20-30.3-4.3-58-32.1-72.5c-27.6-14.7-63-8.8-68.9-52.3C-486.9,19.2-466,0.1-445,0z M-434.5,51.3c0,0,0.8,1.3,2.8,3.6
	c9.9,12.2,47.7,53.7,130.6,88.4c98.3,41.1,139.6,36.1,139.6,36.1s-66.2-8.6-162.4-55.5C-399.2,87.1-424.3,63.5-431.7,55
	C-433.5,52.7-434.5,51.3-434.5,51.3L-434.5,51.3z"/>
<path class="st2" d="M309.2,225.2c0,12-0.2,21.9,0.1,31.8c0.2,7.7-2.5,11.3-10.8,11.3c-86.4-0.2-172.8-0.2-259.3,0
	c-7.8,0-10.1-3.4-10.1-10.7c0.1-74.7,0.2-149.4,0-224.1c0-8,2.8-10.8,10.9-10.8c85.7,0.2,171.5,0.2,257.2,0.1
	c8.9,0,12.6,3.1,12.2,12c-0.4,10.1-0.1,20.3-0.1,31.7c42.9-15.6,79.4-8,106.5,26.4c23.2,29.4,25.5,63.5,6.1,95.8
	C396.1,231.6,356.9,240.3,309.2,225.2z M170,65.4c-38.9,0-77.8,0.4-116.7-0.2c-10.6-0.2-13.4,3.2-13.3,13.5
	c0.4,54.7,0.2,109.5,0.2,164.2c0,14.4,0,14.4,15,14.4c71.3,0,142.6,0,213.8,0c29.5,0,29.6,0,29.1-30c-0.1-3.9-0.5-8.7-2.8-11.5
	c-18-22.1-20.1-23-48.7-25.9c-2.1-0.2-4.2,0.1-6.2-0.5c-3.4-1-6.6-2.6-9.9-4c1.5-3.2,2.4-6.9,4.7-9.4c6.4-6.7,13.7-12.6,20-19.4
	c2.7-3,5.1-7.6,5.1-11.5c0.4-27.2,11.4-49.1,31.6-66.9c2.7-2.4,3.9-6.6,5.8-9.9c-3.7-1-7.4-2.9-11.1-2.9
	C247.8,65.3,208.9,65.4,170,65.4z M247.9,177c1.1,0.9,2.2,1.8,3.3,2.7c3,0.3,6,0.9,9,0.7c12.4-0.5,21.9,3,29.7,14.1
	c12.1,17.3,30.5,25.3,51.3,27c39.4,3.2,75.8-25.9,80.9-64.3c5.4-40.8-20-77.8-58.8-85.8c-40.4-8.3-80.2,14.7-89.1,54.3
	C269.8,145.4,271.1,166.3,247.9,177z M168.4,54.6c5.2,0,10.3,0,15.5,0c34.8,0,69.6-0.1,104.3,0.1c6.5,0,9.9-1.2,10.3-8.9
	c0.5-10-3.6-12.1-12.6-12.1c-78.2,0.2-156.3,0.2-234.5,0.1C44,33.6,40,35.1,40,43.8c-0.1,9,3.6,10.9,11.7,10.9
	C90.5,54.4,129.5,54.6,168.4,54.6z"/>
<path class="st3" d="M139.9,216.4c-25.8,0-51.6,0-77.4,0c-2.4,0-5.1,0.6-7.1-0.3c-2.7-1.2-4.8-3.6-7.2-5.5c2.5-1.8,4.9-3.8,7.6-5.1
	c1.4-0.7,3.4-0.2,5.1-0.2c53.3,0,106.6,0,159.9,0c1.4,0,3-0.4,4.1,0.1c3,1.5,5.9,3.4,8.8,5.1c-3.1,1.9-6.1,5.5-9.2,5.5
	C196.4,216.6,168.1,216.4,139.9,216.4z"/>
<path class="st3" d="M195.7,117.2c-14.4,0-28.8,0.3-43.2-0.2c-2.9-0.1-5.7-3.3-8.6-5c2.7-1.7,5.3-4.8,8-4.8
	c29.2-0.4,58.3-0.4,87.5-0.1c2.6,0,5.2,3.1,7.9,4.8c-2.8,1.8-5.5,5-8.3,5.1C224.5,117.5,210.1,117.2,195.7,117.2z"/>
<path class="st3" d="M90.5,166.8c-11,0-22,0.4-33-0.2c-3.2-0.2-6.1-3.5-9.2-5.3c2.9-1.8,5.7-5.1,8.7-5.1c23-0.4,46.1-0.4,69.1,0
	c2.8,0.1,5.5,3.6,8.2,5.6c-2.9,1.7-5.8,4.7-8.7,4.9C113.9,167.1,102.2,166.8,90.5,166.8z"/>
<path class="st3" d="M153.3,191.6c-10.6,0-21.3,0.4-31.9-0.2c-3-0.2-5.8-3.2-8.7-4.9c2.7-1.9,5.4-5.5,8.2-5.5
	c21.2-0.5,42.5-0.5,63.8,0c2.9,0.1,5.8,3.3,8.7,5.1c-3.1,1.9-6,5.1-9.2,5.3C173.9,192,163.6,191.6,153.3,191.6z"/>
<path class="st3" d="M179.7,166.8c-10.3,0-20.6,0.3-30.8-0.2c-2.5-0.1-4.9-3.3-7.3-5.1c2.5-1.8,5-5.2,7.5-5.2
	c20.2-0.4,40.4-0.5,60.7,0c2.6,0.1,5.2,3.8,7.8,5.9c-2.6,1.6-5.2,4.4-8,4.5C199.6,167.1,189.6,166.8,179.7,166.8
	C179.7,166.8,179.7,166.8,179.7,166.8z"/>
<path class="st3" d="M143.7,142c-8.9,0-17.8,0.3-26.7-0.2c-2.3-0.1-4.5-3-6.7-4.6c2-1.9,4-5.3,6.1-5.3c19.2-0.4,38.3-0.4,57.5,0
	c1.9,0,3.7,3.8,5.6,5.8c-2,1.5-3.9,4.1-6,4.2C163.6,142.2,153.6,142,143.7,142C143.7,142,143.7,142,143.7,142z"/>
<path class="st3" d="M75.4,191.5c-6.5,0-13,0.5-19.5-0.2c-2.7-0.3-5.1-3.1-7.7-4.8c2.3-1.9,4.6-5.4,7-5.5c14-0.5,28-0.5,42,0
	c2.3,0.1,4.5,3.1,6.8,4.8c-2.4,1.9-4.6,5.1-7.1,5.4C89.8,192,82.6,191.5,75.4,191.5C75.4,191.5,75.4,191.5,75.4,191.5z"/>
<path class="st3" d="M76.3,230.2c7.2,0,14.5-0.4,21.6,0.3c2.3,0.2,4.4,3.2,6.5,5c-2.1,1.8-4.2,5.2-6.5,5.2
	c-14.4,0.5-28.8,0.5-43.2,0c-2.2-0.1-4.3-3.4-6.5-5.2c2.5-1.8,4.8-4.7,7.5-5C62.5,229.7,69.4,230.2,76.3,230.2z"/>
<path class="st3" d="M76,92.4c-6.9,0-13.8,0.4-20.6-0.2c-2.4-0.2-4.7-2.8-7-4.3c2.3-1.9,4.6-5.4,7-5.5c13.7-0.5,27.5-0.5,41.2,0
	c2.6,0.1,5.1,3.3,7.7,5c-2.6,1.7-5,4.5-7.7,4.7C89.8,92.9,82.9,92.4,76,92.4z"/>
<path class="st3" d="M75.3,142c-6.5,0-13.1,0.5-19.6-0.2c-2.6-0.3-5-3.3-7.4-5c2.2-1.7,4.4-4.9,6.7-5c13.4-0.5,26.8-0.6,40.2,0
	c2.3,0.1,4.5,3.8,6.8,5.8c-2.4,1.5-4.6,4-7.1,4.2C88.4,142.4,81.8,142,75.3,142z"/>
<path class="st3" d="M110.5,117.1c-6.2,0-12.4,0.4-18.5-0.2c-2.2-0.2-4.1-2.7-6.2-4.1c1.9-1.9,3.8-5.4,5.9-5.5
	c12.6-0.5,25.3-0.5,38,0c2.1,0.1,4.1,3.4,6.1,5.2c-2.3,1.5-4.4,4.2-6.8,4.4C122.9,117.6,116.7,117.1,110.5,117.1
	C110.5,117.1,110.5,117.1,110.5,117.1z"/>
<path class="st3" d="M139.1,230.2c5.5,0,11.1-0.6,16.5,0.2c2.6,0.4,4.9,3.4,7.3,5.2c-2.2,1.8-4.4,4.9-6.6,5
	c-12.4,0.5-24.8,0.5-37.1-0.1c-2.2-0.1-4.2-3.5-6.3-5.3c2.2-1.7,4.3-4.6,6.7-4.8C126,229.8,132.6,230.2,139.1,230.2
	C139.1,230.2,139.1,230.2,139.1,230.2z"/>
<path class="st3" d="M182.6,240.9c-1.7,0-3.8,0.6-5-0.1c-2.6-1.5-4.8-3.8-7.1-5.7c2.3-1.6,4.4-4,6.9-4.7c3.2-0.8,7-0.9,10.1-0.1
	c3.1,0.8,5.7,3.3,8.5,5c-2.7,1.9-5.3,4-8.3,5.5c-1.4,0.7-3.3,0.1-5.1,0.1C182.6,241,182.6,240.9,182.6,240.9z"/>
<path class="st3" d="M63.2,117.4c-2,0-4.4,0.6-5.8-0.1c-3-1.5-5.5-3.8-8.3-5.7c2.7-1.6,5.1-4,8-4.7c3.7-0.8,8-0.9,11.7-0.1
	c3.5,0.8,6.6,3.3,9.8,5c-3.2,1.9-6.2,4-9.6,5.5c-1.6,0.7-3.9,0.1-5.8,0.1C63.2,117.4,63.2,117.4,63.2,117.4z"/>
<path class="st3" d="M351.8,117.1c-2.7,2.9-6.7,5.4-7.8,8.8c-3.6,11.4-6.1,23-9.2,35.3c0,0,0,0-0.1,0c-0.1,0.3-0.2,0.5-0.4,0.7
	c0,0,0,0.1,0,0.1c0,0,0,0,0,0c0,0.1-0.1,0.1-0.1,0.2c0,0.2-0.1,0.3-0.1,0.5c-0.1,1.6-0.1,3.2-0.1,4.8c0.3,0.5,0.6,0.9,0.9,1.4
	c9.1,5.2,9.3-1.9,11-8.5c2.7-10.7,5.5-21.3,7.6-32.1C354.2,124.7,352.5,120.8,351.8,117.1z"/>
<path class="st3" d="M382.3,143.8c-8.6-5.6-15.1-9.4-21-13.9c-2-1.5-2.7-4.8-3.9-7.3c2.8-0.5,6.2-2.3,8.2-1.2
	c10,5.2,19.7,11,29.2,17c5.1,3.2,4.6,7.8-0.1,10.8c-9.2,5.8-18.7,11.3-28.5,16.2c-2.2,1.1-5.9-0.9-8.9-1.5c1.2-2.5,1.8-5.9,3.8-7.3
	C367.4,152.3,374.2,148.7,382.3,143.8z"/>
<path class="st3" d="M303.5,143c8.6,5.6,15.1,9.4,21,13.9c2,1.5,2.7,4.8,3.9,7.3c-2.8,0.5-6.2,2.3-8.2,1.2c-10-5.2-19.7-11-29.2-17
	c-5.1-3.2-4.6-7.8,0.1-10.8c9.2-5.8,18.7-11.3,28.5-16.2c2.2-1.1,5.9,0.9,8.9,1.5c-1.2,2.5-1.8,5.9-3.8,7.3
	C318.5,134.6,311.7,138.2,303.5,143z"/>
<path class="st3" d="M65.8,49.8c-1.5-2.1-3.1-4.2-4.6-6.3c2.4-1.4,4.7-3.9,7.1-4c1.6-0.1,4.8,3,4.9,4.8c0.2,2.6-1.8,5.4-2.8,8.1
	C68.8,51.5,67.3,50.6,65.8,49.8z"/>
<path class="st3" d="M57.6,43.3c-4.2,2.9-6.2,5.3-8.1,5.2c-2.5-0.1-4.9-2.2-7.3-3.5c1.8-1.9,3.3-5,5.4-5.4
	C49.9,39.2,52.6,41.3,57.6,43.3z"/>
<path class="st3" d="M86.6,50.9c-2.4-2.9-3.9-4.7-5.4-6.6c2.1-1.7,4.1-4.7,6.2-4.7c2.1,0,4.2,3,6.3,4.7C91.6,46.2,89.6,48,86.6,50.9
	z"/>
</svg>
