<?xml version="1.0" encoding="utf-8"?>
<!-- Generator: Adobe Illustrator 20.1.0, SVG Export Plug-In . SVG Version: 6.00 Build 0)  -->
<svg version="1.1" id="Layer_1" xmlns="http://www.w3.org/2000/svg" xmlns:xlink="http://www.w3.org/1999/xlink" x="0px" y="0px"
	 viewBox="0 0 161 120" style="enable-background:new 0 0 161 120;" xml:space="preserve">
<style type="text/css">
	.st0{fill:#F75B41;}
</style>
<path class="st0" d="M161,92.2c0,0-1.7-25.1-4.3-35.7c-2.7-10.5-7.6-6.3-8.6-3.5c-1,2.8-5.8,5.8-11.7-16.2c-6-22-15-25.3-22.3-13.6
	c-7.3,11.7-14.5,5.5-20.9-7.1C86.2,2.2,67.3-9,69.7,9.7c2.6,20.6-2.8,17.7-16.1,9.8c-13.2-7.9-17.7-10.9-23.4-6.4
	c-5.7,4.4,0,7.4,2.8,12.6c2.8,5.2-1.3,5.8-7.9,5.8c-6.6,0-12.2-0.9-14.4,4.6c-2.2,5.5,10.8,7-4.3,12.1c-11.7,3.9-5,12.4,1.9,13.5
	c6.9,1.1,6.8,5.3,4.8,8.7c-2,3.4-4.8,9.5,12.5,9.7c17.4,0.2,17.5,4.2,10.1,8.6c-7.4,4.4-1.1,13.2,13.2,12.5
	c14.4-0.7,42.9-10.4,33,4.9c-9.9,15.3,7.9,17.5,20.6,8.4c13.3-9.5,19.7-8.8,17.4-1.9s1.3,7.7,8.7,5c7.4-2.7,10.6-11.3,17.1-11.9
	c6.5-0.5,9.9,3,11.7,1.4c2.1-2.4-24.9-21.5-63.4-36.8C55.6,55.2,23,53.5,14.3,53.5s-9.5,0.2-9.5,0.2s25.1-3.9,60.7,2.7
	C101.1,63,161,92.2,161,92.2L161,92.2z"/>
</svg>
