<?xml version="1.0" encoding="utf-8"?>
<!-- Generator: Adobe Illustrator 20.1.0, SVG Export Plug-In . SVG Version: 6.00 Build 0)  -->
<svg version="1.1" id="Layer_1" xmlns="http://www.w3.org/2000/svg" xmlns:xlink="http://www.w3.org/1999/xlink" x="0px" y="0px"
	 viewBox="0 0 333.2 284.5" style="enable-background:new 0 0 333.2 284.5;" xml:space="preserve">
<style type="text/css">
	.st0{fill:#FFCE00;}
	.st1{fill:#E8A615;}
</style>
<path class="st0" d="M-25.1,45.3c3.9-5.3-7-24.2-47.9-37.5s-78-7.5-93.2-4.3s-25.1,0.4-46.7-3.4c-21.7-3.8-36.2,11.1-32.8,29.3
	s1.1,18.8-33.2,26.9c-34.4,8.2-74.5,20.2-62.1,64s-2.4,37.4-13.9,46.8c-11.6,9.4-24.8,39.6-6,59.9c10.3,11.1,19.6,17.8,18,31.2
	c-2.4,19.6,1.1,30.4,16.1,24.8s22.9-24.2,25.5-38.3c2.6-14.1,7.1-21.1,33.9-20.1c15.7,0.6,23.9-15.6,26.3-28.2
	c1.6-8.3-1.6-15.8-1.2-22.1c1.3-21,15.2-17,40.1-24.8c27.4-8.6,32.6-32.7,31.9-53.9c-0.6-21.2,3.5-63.1,43.5-70.3
	c20.7-3.8,51,3.6,70.4,11.1C-38.3,43.4-30.5,50.4-25.1,45.3L-25.1,45.3z"/>
<path class="st1" d="M-329.4,278.5l4.5,1.5c0,0,4.4-64.3,29.2-125.3c26.8-65.8,71.4-104,115.5-126c-60.1,25.7-92.8,62-122,123.7
	C-333.6,218.9-329.4,278.5-329.4,278.5z"/>
<path class="st0" d="M174.4,66.5c15.1-0.6,24.6,11.7,19.2,24.4c-1.6,3.8-7,6.4-11.2,8.7c-4.6,2.5-11.6,1-12.9,8.8
	c-1.5,8.6-4.3,16.6,5.3,23.5c9.3,6.6,9.2,12.4,2.7,21.8c-7.7,11.1-11.4,12.1-22.4,6.2c-10.5-5.6-17.5-5-25.3,4.1
	c-2.5,3-2.6,8.9-2.4,13.4c0.7,13-0.9,15-16.6,17.7c-9.8,1.7-13.7-1.1-16.6-12.1c-3.3-12.8-8.4-17-21.4-15.9
	c-3.1,0.2-6.7,2.9-8.8,5.5c-11.1,13.8-20,10.4-31.1-2.5c-2.5-2.9-1-10.9,1.1-15.5c5.6-12.2,5.9-16.3-2.9-26.3c-1.7-2-6-2.9-8.8-2.6
	C3.2,128.5,0.3,122.5,0,103.7c-0.2-9.5,8.3-10.6,15.2-11.7c6.9-1,9.9-4.5,12.2-10.9c3.1-8.5-0.1-13.5-6.1-19
	c-10.2-9.3-8-22.9,4.1-29.9c6.6-3.8,12-0.3,17.4,2.8c5,2.8,9.3,4.7,15.7,1.4c8.7-4.4,10.9-9.9,9.6-19C66.4,5.7,69.6,2.8,84.3,0.4
	c10.1-1.6,14.5,1.3,17,11.6c1.5,6.1,1.4,12.5,10.3,14.3c9.2,1.9,15.7,0.4,21.4-7.3c6-8,11.9-8.5,19.8-3.1
	c12.4,8.5,14.2,12.8,8.2,22.5c-4.7,7.5-7.2,13.9-0.8,22.3C164.7,66.8,169.6,67.2,174.4,66.5z M173.9,142.3c-2-1.6-3.6-3.2-5.5-4.4
	c-12.4-8-10-19-7.4-30.9c2.3-10.7,9.1-14.1,18.5-15.4c5.3-0.7,6.7-3.7,5.9-9c-1-7.1-5.3-8-10.9-7c-10.7,1.9-17.1-2.8-22.9-11.8
	c-6.4-9.9-6.2-18.3,0.6-27.2c4.1-5.4,2.9-9.2-2.9-12.2c-2-1-3.9-2.1-6.3-3.3c-3.2,3.5-5.9,7.3-9.4,10c-3.4,2.6-7.6,5.4-11.6,5.6
	c-17.1,0.9-23.9-4.2-28.5-20.6c-1.6-5.8-4.5-7.7-10.4-6.6c-6,1-6.4,4-6.3,9.4C76.9,25,76.6,32.9,73,37
	c-10.4,12.1-21.4,13.3-35.3,5.1c-5.8-3.4-8.4-1.2-11.8,3c-3.9,4.8-2.6,8.2,1.9,11.2c9.3,6.2,11,14.3,8.4,25.1
	c-2.6,11-7.3,18.2-19.1,19.1c-7.4,0.6-8.5,4.9-7.5,11.2c1,7,6.2,6.1,10.3,5.2c11.2-2.5,17,3,22.6,11.9c6.6,10.6,6.9,19.9-0.6,29.7
	c-3.3,4.3-2.7,7.6,2.2,10.2c2.2,1.2,4.2,2.8,7.7,5.3c2.5-3.1,5.1-6.1,7.4-9.2c5.1-6.8,11.7-7.6,19.6-6.4c13.4,2,23.1,7.1,24.1,22.3
	c0.4,5.6,3.6,6.6,8.9,5.8c6.6-1.1,8.8-4.2,7.3-10.5c-2.7-10.9,0.6-18.9,11.3-23.2c1.8-0.7,3.3-2.2,5-3.3c6-4,12.1-4.3,18.3-0.5
	C164.8,156,164.2,158.3,173.9,142.3z"/>
<path class="st0" d="M272.8,128.7c-1.9,5.7,1.6,9.2,6.5,12.4c5.1,3.3,9.8,3.9,14.8,0.1c11.9-9,17.8-4.6,25.3,8.3
	c3.8,6.6,0.4,12.2-5.1,16.1c-6.3,4.5-7.6,9.7-5.2,16.8c1.6,4.8,3.9,7.3,9.2,8.4c14.1,2.9,18.9,13.8,10.9,25.9c-2.1,3.1-8,4.9-12.2,5
	c-15.5,0.5-22.2,11.2-15,24.8c5,9.4,3.9,14-4.7,20.2c-9,6.4-14.3,6.3-21.2-2.1c-4.8-5.9-10-5.9-16.6-4.6c-6.7,1.3-8.2,5.7-9.6,11.2
	c-3,12-6.9,14.2-19.7,11.8c-9.7-1.8-12.7-5.7-10.7-17.2c1.5-8.7-4.4-11.2-9.5-15c-5-3.7-9-2.5-13.8,0.8c-9.4,6.3-14.3,5.4-20.3-2.6
	c-8.1-10.8-8-14.9,1.5-23.1c4.6-4,7.4-7.6,5.4-14.4c-2-6.7-4.6-10.8-12.1-11.9c-9.3-1.5-13-7.2-11.8-15.5
	c1.8-12.5,5.1-15.9,15.8-15.3c6.8,0.3,12.5,0.5,16.4-7c2.7-5.2,3.2-8.8,0.1-13.9c-6.7-11-5.2-16.2,5.6-23.2c8-5.1,12.2-4.7,19.1,3.1
	c4.5,5.1,8.7,7.8,16.1,5.8c6-1.6,8.3-4.8,9.6-10.1c3.1-12.9,5.6-14.5,19-12.6C270.7,112,273.5,116.1,272.8,128.7z M305,145.4
	c-1.5,0.6-2.6,1-3.6,1.5c-21.7,11.6-36.6,3.4-37.3-21.1c-0.2-5.6-3.6-7.4-7.4-6.9c-2.5,0.3-6.1,4-6.5,6.5
	c-1.7,10.9-8.7,14.5-18.4,16.9c-9.2,2.3-15.4-0.6-20.9-7.3c-2.9-3.5-5.4-6.2-10.5-2.5c-5.3,3.8-2.8,7.1-1.3,11.6
	c1.7,5.3,3.6,11.8,1.9,16.6c-3.7,11-10.5,19.6-24.5,16.9c-4.1-0.8-7.8-0.1-8.7,5.4c-1,5.9,2.6,6.7,6.9,8.4c4.9,2,11,4.5,13.4,8.7
	c7,12.1,5.1,21.8-4.9,31.8c-4,4-4.3,7.4-0.6,11.7c4.7,5.4,8.7,0.8,11.9-1.2c11-6.6,19,0.3,27.2,5.4c6.7,4.1,8,10.7,6.3,17.9
	c-1.2,5.1,0.2,8.1,5.6,9.3c6.3,1.4,7-2.9,8.1-7.1c4.9-18.6,25.3-24.2,39.2-10.6c3.4,3.3,6.2,6,11.5,2.1c5.8-4.3,2.7-8,0.2-11.5
	c-7-9.8-1.3-17.4,3.2-25.7c3.9-7.2,9.4-10.2,17.3-9.4c4.8,0.5,9.2,0.4,10-6c0.8-6.3-3.6-6.7-7.8-7.5c-7.6-1.6-12.4-5.6-14.4-13.6
	c-2.3-9-3.7-16.8,4.5-23.9C313.7,154.7,313.3,154,305,145.4z"/>
<path class="st1" d="M140.8,98.6c-0.3,24.1-19.5,42.3-44.2,41.8c-24-0.4-42-19.1-41.8-43.3C55,73.3,74.5,54.2,98.6,54.5
	C122.5,54.8,141.1,74.2,140.8,98.6z M63.8,97.8c0.1,18.8,15.3,34.4,33.7,34.5c18.9,0.1,34.5-15.6,34.4-34.7
	c-0.1-19.6-15-34.3-34.5-34.1C78.2,63.8,63.7,78.6,63.8,97.8z"/>
<path class="st1" d="M245.4,235.4c-21.5-0.3-38.7-17.7-38.6-39.1c0.1-21.3,17.7-38.4,39.4-38.2c21.1,0.2,39.3,18.5,38.7,39.1
	C284.3,218.8,266.8,235.7,245.4,235.4z M246.2,167.1c-16.9-0.1-30.6,13.1-30.6,29.7c-0.1,16.2,13.4,29.5,29.9,29.5
	c17.2,0.1,30.4-12.8,30.4-29.7C275.9,180.3,262.7,167.3,246.2,167.1z"/>
</svg>
