<?xml version="1.0" encoding="utf-8"?>
<!-- Generator: Adobe Illustrator 20.1.0, SVG Export Plug-In . SVG Version: 6.00 Build 0)  -->
<svg version="1.1" id="Layer_1" xmlns="http://www.w3.org/2000/svg" xmlns:xlink="http://www.w3.org/1999/xlink" x="0px" y="0px"
	 viewBox="0 0 84 68" style="enable-background:new 0 0 84 68;" xml:space="preserve">
<style type="text/css">
	.st0{fill:#F49351;}
	.st1{fill:#436FDD;}
	.st2{fill:#FFB81A;}
</style>
<path class="st0" d="M-45.3,67.1c0,0,23.2-1,24.7-20.9C-19,26.4-30.2,0.9-63.9,0s-45,37.9-38.3,52.6c6.6,14.7,23.8,15.5,31.6,15.4
	s17.4-0.1,17.4-0.1l-4-27.9L-45.3,67.1z"/>
<path class="st1" d="M-54,1.1l-1.2,27.3l8.9-25.1C-48.7,2.3-51.3,1.6-54,1.1L-54,1.1z M-74.7,1.2c-3,0.8-5.9,2-8.6,3.5l13.9,26.1
	L-74.7,1.2L-74.7,1.2z M-28.6,16.6l-10.8,14l14.7-7.5C-25.8,20.8-27.1,18.6-28.6,16.6L-28.6,16.6z M-97.8,19.8
	c-1.8,3.1-3.2,6.4-4.2,9.8l18.5,1.5L-97.8,19.8L-97.8,19.8z M-20.6,38.3l-29.9,4.2l30.1,2.1C-20.4,42.5-20.4,40.4-20.6,38.3
	L-20.6,38.3z M-67,40.6l-29.4,20c3,2.6,6.5,4.3,10,5.4L-67,40.6z"/>
<g>
	<path class="st2" d="M46.9,31.5c-0.4,5.8-2.6,11.3-5.9,16.5c-3.4,5.4-7.8,10-12.6,14.2c-0.1,0.1-0.3,0.3-0.4,0.3
		c-0.7,0.1-1.3,0.2-2,0.4c0.2-0.6,0.3-1.4,0.7-1.8c1.9-1.9,4.1-3.6,5.9-5.6c5.9-6.2,10.5-13.1,12.1-21.7c0.2-1.1,0.3-2.3,0.3-3.5
		c0-1.6-1.4-3-2.9-3.1c-1.6-0.1-3.2,1.2-3.3,2.8c-0.4,4-1.5,7.9-3.6,11.4c-0.3,0.5-1.1,0.7-1.6,1.1c0-0.7-0.2-1.4,0-2
		c1.7-3.4,2.9-6.9,3.2-10.7c0.2-2.8,2.7-4.6,5.7-4.4C45.3,25.8,47,27.9,46.9,31.5z"/>
	<path class="st2" d="M44.1,8.6c-5.2,0.2-9.3,2.5-12,7c-2.4,4.1-4.8,8.2-7.2,12.3c-0.2,0.3-0.3,0.7-0.6,0.9
		c-0.4,0.3-0.9,0.4-1.4,0.5c-0.1-0.5-0.3-1.1-0.2-1.4c0.5-1.1,1.1-2.2,1.8-3.3c2.1-3.6,4.1-7.2,6.3-10.7c4.6-7.3,13.9-9.6,21.2-5
		c4.8,3,6.6,7.8,6.9,13.2c0,0.5-0.5,1-0.8,1.5c-0.4-0.5-1-0.9-1-1.4c-0.2-3.2-1.1-6.1-3-8.6C51.8,10.2,48.3,8.8,44.1,8.6z"/>
	<path class="st2" d="M65.8,27.8c-1,6-1.9,11.7-2.8,17.4c0,0.2,0,0.4-0.2,0.5c-0.4,0.4-0.9,0.8-1.3,1.2c-0.2-0.6-0.6-1.2-0.5-1.7
		c0.4-2.4,1.1-4.7,1.4-7.1c1.2-7.6,1.5-15.3-0.6-22.8c-2-7.1-6.5-11.8-14-13.2c-0.4-0.1-0.8-0.1-1.1-0.3c-0.4-0.2-0.6-0.6-0.9-1
		c0.4-0.3,0.8-0.8,1.2-0.8c0.6-0.1,1.2,0.1,1.8,0.2c7.1,1.7,12.1,6,14.2,13C64.5,18.1,65,23,65.8,27.8z"/>
	<path class="st2" d="M54,26.8c-0.5,6-2.3,11.1-4.1,16.1C49.1,45,48.2,47,47.2,49c-0.3,0.5-1,0.8-1.6,1.1c0-0.7-0.3-1.4,0-2
		c2.7-5.7,4.7-11.7,6.1-17.8c1.2-5.2-0.8-9.8-5.3-12c-2.8-1.3-5.6-1.3-8.3,0.5c-0.5,0.4-1.4,0.3-2.1,0.4c0.4-0.7,0.6-1.7,1.2-2.2
		c5.4-3.6,13.7-0.6,15.9,5.7C53.6,24.3,53.8,25.9,54,26.8z"/>
	<path class="st2" d="M12.1,34.1c-0.1-0.6-0.3-1.4-0.1-1.9c0.8-1.9,1.8-3.7,2.7-5.4c3.7-6.9,7.8-13.5,13.4-19
		c2.4-2.4,5.4-4.2,8.2-6.2c0.5-0.4,1.5,0,2.3,0c-0.5,0.5-0.8,1.3-1.4,1.6c-5.4,2.8-9.5,7.1-12.8,12.1c-3.8,5.6-7,11.6-10.5,17.4
		c-0.3,0.5-0.7,1-1.1,1.6C12.6,34.2,12.4,34.1,12.1,34.1z"/>
	<path class="st2" d="M58.7,31.7c-1.3,5.2-2.4,10.4-3.9,15.4c-2.1,6.9-5,13.4-9.1,19.4c-0.6,0.9-2.2,2.1-2.3,2
		c-1.4-1.2,0.1-2.1,0.7-2.9c6.8-10.1,10.3-21.4,12.3-33.3c0.1-0.3,0-0.7,0.2-0.9c0.3-0.5,0.8-0.9,1.2-1.3C58,30.5,58.3,31,58.7,31.7
		z"/>
	<path class="st2" d="M33.9,26.6c-0.2,0.7-0.4,1.2-0.6,1.7c-3.2,8.1-7.6,15.5-13.6,21.9c-0.3,0.4-0.7,0.8-1.1,1
		c-0.5,0.3-1.2,0.3-1.8,0.4c0.1-0.6,0.1-1.3,0.4-1.7c0.8-1.1,1.8-2,2.7-3c5-5.8,8.8-12.4,11.5-19.5c0.2-0.4,0.2-0.9,0.5-1.2
		c0.3-0.3,0.8-0.5,1.1-0.5C33.5,25.8,33.7,26.3,33.9,26.6z"/>
	<path class="st2" d="M14.3,45c-0.1-0.5-0.5-1.2-0.3-1.6c2-3.6,4-7.1,6.1-10.6c0.2-0.3,0.8-0.3,1.2-0.5c0.1,0.5,0.4,1.1,0.3,1.4
		c-0.5,1.1-1.2,2.2-1.8,3.2c-1.3,2.2-2.5,4.4-3.8,6.6c-0.3,0.5-0.7,0.9-1.1,1.4C14.7,45,14.5,45,14.3,45z"/>
	<path class="st2" d="M30.6,48.1c-0.3,0.4-0.5,0.8-0.8,1.1c-2.7,2.6-5.3,5.2-8.1,7.8c-0.3,0.3-1.1,0.1-1.7,0.2
		c0.1-0.5,0.1-1.2,0.5-1.5c2.7-2.6,5.4-5.2,8.1-7.8c0.3-0.3,0.9-0.5,1.4-0.6C30.1,47.3,30.4,47.8,30.6,48.1z"/>
	<path class="st2" d="M33.7,68c-0.2-0.7-0.6-1.3-0.4-1.6c0.3-0.6,0.9-1.2,1.3-1.7c1.9-2.5,3.8-5,5.8-7.4c0.3-0.4,1-0.6,1.6-0.8
		c0,0.6,0.2,1.4-0.1,1.7c-2.2,3-4.5,5.9-6.8,8.7C34.9,67.2,34.5,67.5,33.7,68z"/>
	<path class="st2" d="M61.3,51.6c-1.2,2.8-2.3,5.5-3.5,8.1c-0.1,0.3-0.9,0.5-1.2,0.3c-0.3-0.1-0.5-0.9-0.4-1.2c1-2.6,2-5.2,3.1-7.7
		c0.1-0.3,0.8-0.7,1.1-0.6C60.8,50.6,61,51.2,61.3,51.6z"/>
</g>
</svg>
