<?xml version="1.0" encoding="utf-8"?>
<!-- Generator: Adobe Illustrator 20.1.0, SVG Export Plug-In . SVG Version: 6.00 Build 0)  -->
<svg version="1.1" id="Layer_1" xmlns="http://www.w3.org/2000/svg" xmlns:xlink="http://www.w3.org/1999/xlink" x="0px" y="0px"
	 viewBox="0 0 1600 864" style="enable-background:new 0 0 1600 864;" xml:space="preserve">
<style type="text/css">
	.st0{fill:#09298E;}
</style>
<path class="st0" d="M902,170c-59.8-0.6-77.3,16.3-135.9,89.3C672.7,375.7,609,567,560,430.7c-49-136.3-149.3-122.1-259.1,91.1
	c-109.8,213.2-176.2,27.9-180.8-3.1c-4.5-31-45.8-85.4-96.5,17.3C16.1,551.2,8.1,569.8,0,590.3L0,864h28.3
	c215.4-47.9,655.6-136.5,935.1-129c369.6,9.8,614.7,99.4,629.5,104.9c-4.2-1.5-22.3-6.9-96.4-22.7c-90.4-19.3-429.5-73.8-858.6-1.1
	c-78.6,13.3-156.8,29.3-234.3,47.9H1600v-77.8c-3.5-2.3-7-4.5-10.6-6.7c-144.3-84.9-7.8-72.8-18-133.8c-10.3-61-69.9-64.1-138-78.7
	c-68.1-14.5-244.8,23.1-204.6-24.4c40.3-47.5,105.6-65,56.4-123.4c-49.2-58.4-101.7-37.3-255.2,14.7c-153.6,52.1-128.1,60.6-56-146
	C1002.2,207.4,947.1,170.5,902,170L902,170z"/>
</svg>
