<?xml version="1.0" encoding="utf-8"?>
<!-- Generator: Adobe Illustrator 20.1.0, SVG Export Plug-In . SVG Version: 6.00 Build 0)  -->
<svg version="1.1" id="Layer_1" xmlns="http://www.w3.org/2000/svg" xmlns:xlink="http://www.w3.org/1999/xlink" x="0px" y="0px"
	 viewBox="0 0 1600 517" style="enable-background:new 0 0 1600 517;" xml:space="preserve">
<style type="text/css">
	.st0{fill:#09298E;}
</style>
<path class="st0" d="M171.7,0C191.9,64.8,222,156.2,246,204.4c39.7,79.8,71.7,37.3,75.1,13.2s36.1-56.4,122,109.2
	c86,165.7,164,176.5,201.9,70.3C682.8,291,751.5,327.7,824.4,418c80.2,99.3,250.7,156.5,199.3,10.6
	c-56.6-160.6-7.9-146.3,111.7-106.1s160.5,56.4,198.6,10.9c38.1-45.5-12.8-59-44.2-95.9c-31.4-36.9,0.1-49,53-60.5
	c53-11.5,99.4-14,107.2-61.5c7.9-47.5-98.4-37.8,13.7-104.2c6.3-3.7,11.8-7.5,16.5-11.3h-137c-85.9,20.5-212.3,42.8-366.7,47.4
	C843.9,51.4,664.2,27.5,506.2,0H171.7z M830.9,0c187.3,20.9,345.2,12.2,448.6,0H830.9L830.9,0z"/>
</svg>
