<?xml version="1.0" encoding="utf-8"?>
<!-- Generator: Adobe Illustrator 20.1.0, SVG Export Plug-In . SVG Version: 6.00 Build 0)  -->
<svg version="1.1" id="Layer_1" xmlns="http://www.w3.org/2000/svg" xmlns:xlink="http://www.w3.org/1999/xlink" x="0px" y="0px"
	 viewBox="0 0 72 93" style="enable-background:new 0 0 72 93;" xml:space="preserve">
<style type="text/css">
	.st0{fill:#7CFC51;}
	.st1{fill:#32CC00;}
</style>
<path class="st0" d="M13.5,92.6c4.2,1.3,18.9,1.1,28.7-25.3C53,38,58.2,33.4,67.1,24.1C79.3,11.2,67.5-8.1,44.6,3.6
	C21.6,15.4-0.3,53.1,0,70.1C0.2,81.5,3.6,89.7,13.5,92.6z"/>
<path class="st1" d="M55.7,5.3c-0.4,0-0.8,0.1-1.1,0.4c0,0-17,15.3-29.6,37.4c-9.3,16.3-11.3,38.4-11.8,49.5c0.1,0,0.1,0.1,0.2,0.1
	c0.7,0.2,1.7,0.3,2.8,0.4c0.5-10.7,2.5-32.8,11.4-48.4c12.3-21.7,29-36.7,29-36.7c0.6-0.6,0.7-1.5,0.1-2.1
	C56.5,5.5,56.1,5.3,55.7,5.3z"/>
</svg>
