<?xml version="1.0" encoding="utf-8"?>
<!-- Generator: Adobe Illustrator 20.1.0, SVG Export Plug-In . SVG Version: 6.00 Build 0)  -->
<svg version="1.1" id="Layer_1" xmlns="http://www.w3.org/2000/svg" xmlns:xlink="http://www.w3.org/1999/xlink" x="0px" y="0px"
	 viewBox="0 0 1600 502" style="enable-background:new 0 0 1600 502;" xml:space="preserve">
<style type="text/css">
	.st0{fill:#09298E;fill-opacity:0.353;}
</style>
<path class="st0" d="M807.4,39.7C770.6,39.3,711,89.9,682,147.4c-42.2,83.8-90.1,124.4-138.1,47.1c-48-77.3-107.8-55.5-147.3,90
	c-39.6,145.4-70.8,125.5-77.7,107c-6.8-18.4-39.4-46.5-57,23.3c-5.6,22.2-10.5,54-14.7,87.2h330.4c99.6-38,203.9-72.5,287.9-88.1
	c228.6-42.4,391-19.4,400.6-18c-2.8-0.4-14.6-1.3-62.2-1.3c-57.2,0-267.2,10.6-516.6,107.4h522.1c-11-21.7-8.9-46.1,34-53.2
	c45.9-7.6,89.7-63.8,12.6-89.5c-99.8-33.3-14.3-43.7-28.6-79.9c-14.3-36.1-51.3-30.3-95.1-30.3s-70.7-4.2-52.2-38.7
	c18.5-34.5,56.4-53.8,18.5-83.2c-37.9-29.4-67.4-9.6-154.9,42.5c-87.5,52.1-123.6,71.8-106.3-64.7C843.4,58.6,829.5,40,807.4,39.7
	L807.4,39.7z"/>
</svg>
