<svg id="Layer_1" data-name="Layer 1" xmlns="http://www.w3.org/2000/svg" viewBox="0 0 100 100"><title>githubArtboard 1</title><path d="M85.9,39.89a21.32,21.32,0,0,0-4.74-13.33,21.53,21.53,0,0,0-.93-13A2.86,2.86,0,0,0,78.43,12c-1.16-.4-5.54-1.14-14.46,4.65A42.89,42.89,0,0,0,52.2,15.17,43,43,0,0,0,40.42,16.6c-9.16-5.92-13.92-5-14.88-4.68a2.88,2.88,0,0,0-1.8,1.68,21.51,21.51,0,0,0-1,12.93A20.22,20.22,0,0,0,18.05,40c0,18.28,10.46,23.8,20.05,25.75a15.89,15.89,0,0,0-1,3.75,2.94,2.94,0,0,0,0,.42v5.06c-8.72.72-10.59-4.38-10.77-5l-.15-.4a14.63,14.63,0,0,0-8.27-7.35,2.89,2.89,0,1,0-1.83,5.48,8.74,8.74,0,0,1,4.69,4c1.16,3.75,5.89,9.69,16.3,9V85.5a2.89,2.89,0,1,0,5.78,0V70.08a8.31,8.31,0,0,1,2.1-4.51,2.88,2.88,0,0,0-1.65-5c-10.08-1.17-19.4-4.49-19.4-20.77a14.21,14.21,0,0,1,4.23-10.62,3.06,3.06,0,0,0,.66-3.07,14.32,14.32,0,0,1-.18-8.76A25.08,25.08,0,0,1,38.37,22a3,3,0,0,0,2.54.35,35.67,35.67,0,0,1,11.34-1.54,35.55,35.55,0,0,1,11.32,1.54A3,3,0,0,0,66.12,22a26,26,0,0,1,9.35-4.55,14.61,14.61,0,0,1-.21,8.85,2.85,2.85,0,0,0,.56,2.81,16.06,16.06,0,0,1,4.35,10.76c0,16.24-9.8,19.62-19.41,20.77a2.88,2.88,0,0,0-1.39,5.18c1,.77,2.22,2.95,2.22,6.61V85.49a2.89,2.89,0,0,0,5.78,0V72.4a17.62,17.62,0,0,0-1.24-6.73C73.9,64,85.9,58.91,85.9,39.89Z"/></svg>