<svg id="Layer_1" data-name="Layer 1" xmlns="http://www.w3.org/2000/svg" viewBox="0 0 100 100"><defs><style>.cls-1{fill:none;stroke:#000;stroke-linecap:round;stroke-linejoin:round;stroke-width:3px;}</style></defs><title>Artboard 1</title><path class="cls-1" d="M87,58V85.39H71.16V59.84c0-6.42-2.29-10.8-8-10.8A8.69,8.69,0,0,0,55,54.85a11.08,11.08,0,0,0-.53,3.87V85.39H38.56s.22-43.27,0-47.75H54.44V44.4l-.1.16h.1v-.15c2.12-3.26,5.88-7.9,14.31-7.9C79.2,36.51,87,43.34,87,58ZM22,14.61c-5.43,0-9,3.57-9,8.25s3.46,8.26,8.78,8.26h.11c5.54,0,9-3.67,9-8.26S27.39,14.61,22,14.61Zm-8,70.78H29.79V37.64H13.91Z"/></svg>