<?xml version="1.0" encoding="utf-8"?>
<!-- Generator: Adobe Illustrator 20.1.0, SVG Export Plug-In . SVG Version: 6.00 Build 0)  -->
<svg version="1.1" id="Layer_1" xmlns="http://www.w3.org/2000/svg" xmlns:xlink="http://www.w3.org/1999/xlink" x="0px" y="0px"
	 viewBox="0 0 100 100" style="enable-background:new 0 0 100 100;" xml:space="preserve">
<style type="text/css">
	.st0{fill:#FFFFFF;}
	.st1{font-family:'OperatorMonoForPowerline-Medium';}
	.st2{font-size:67.5565px;}
</style>
<g>
	<path class="st0" d="M164.6,42.4c-0.1,0.5,0,1,0.2,1.5c0.1,0.2,0.2,0.4,0.2,0.6c0,0.2,0.1,0.4,0.1,0.6c0.1,0.3,0.2,0.5,0.6,0.7
		c0.4,0.2,0.6,0.4,0.7,0.6c0.4,0.4,0.8,0.7,1.2,0.9c0.1,0,0.1,0,0.2,0c0.1,0,0.1,0,0.2,0c0.5,0.4,1.1,0.6,1.8,0.7
		c0.5,0,1,0.1,1.5,0.4c0.2,0.1,0.3,0.2,0.5,0.2s0.4,0.1,0.5,0.1c1,0.2,1.8,0.4,2.4,0.8c0,0.1,0.1,0.1,0.2,0.1
		c0.3,0.1,0.6,0.1,0.9,0.3c0.3,0.1,0.5,0.3,0.8,0.4l0.6,0.3c0.1,0.1,0.2,0.1,0.2,0.2c0,0.1,0.1,0.1,0.2,0.1c0.3,0.1,0.5,0.2,0.6,0.4
		l0.5,0.5c0.3,0.5,0.8,0.9,1.4,1.1c0.2,0.1,0.4,0.2,0.7,0.6c0.1,0.2,0.2,0.3,0.3,0.4c0.1,0.1,0.2,0.3,0.3,0.4
		c0.3,0.4,0.6,0.7,0.9,0.8c0.1,0.1,0.2,0.2,0.4,0.5c0.2,0.6,0.4,1.1,0.6,1.7c0.2,0.5,0.5,1.1,0.8,1.6c0.1,0.1,0.2,0.2,0.2,0.4
		c0,0.1,0,0.3,0.1,0.4c0,0.6,0.1,1.2,0.4,1.7c0.2,0.2,0.2,0.3,0.1,0.5c0,0.2,0,0.4,0,0.6c0,0.2,0.1,0.4,0.1,0.7c0,0.2,0,0.4,0,0.6
		s0,0.3-0.1,0.6c-0.1,0.1-0.1,0.3-0.1,0.5c0.1,0.4,0,0.9,0,1.3c-0.1,0.4-0.2,0.9-0.3,1.3c-0.1,0.1-0.2,0.2-0.2,0.4
		c0,0.2,0,0.3-0.1,0.4c0,0.1,0,0.2-0.1,0.2c-0.1,0.3-0.2,0.6-0.4,1l-0.5,1c-0.1,0.3-0.2,0.5-0.4,0.7s-0.3,0.5-0.5,0.7
		c-0.1,0.1-0.2,0.2-0.3,0.4c-0.1,0.1-0.2,0.3-0.3,0.4c-0.1,0.1-0.2,0.2-0.2,0.3c-0.1,0.1-0.1,0.2-0.2,0.4l-0.5,0.6l-1.3,1.2v0.1
		c-0.5,0.3-1,0.6-1.5,0.9s-1,0.7-1.6,0.9l-2.2,0.9l-0.8,0.2c-0.1,0-0.2,0-0.3,0c-0.1,0-0.2,0-0.3,0l-1.4,0.4h-0.1
		c-0.6-0.1-1.2-0.1-1.8,0c-0.6,0.1-1.2,0.1-1.8,0l-0.6-0.2c-0.2-0.1-0.4-0.2-0.6-0.2c-0.2,0-0.4-0.1-0.6-0.1
		c-0.4-0.1-0.7-0.1-1.1-0.2c-0.3-0.1-0.7-0.2-1.1-0.3c-0.5-0.3-1-0.4-1.4-0.4c-0.7-0.2-1.4-0.5-1.8-1l-0.4-0.3
		c-0.4-0.2-0.8-0.5-1.1-0.8c-0.3-0.3-0.7-0.6-1.1-0.9c-0.3-0.3-0.5-0.4-0.6-0.5c-0.4-0.3-0.6-0.6-0.7-0.9c-0.2-0.3-0.4-0.6-0.7-0.7
		c-0.2-0.1-0.3-0.2-0.3-0.4c-0.1-0.3-0.2-0.6-0.4-0.9l-0.5-0.8c-0.3-0.4-0.4-0.7-0.4-1c0-0.2-0.1-0.3-0.2-0.6
		c-0.1-0.3-0.2-0.6-0.3-0.9s-0.2-0.6-0.2-1c0-0.1,0-0.2-0.1-0.3c-0.1-0.1-0.1-0.2-0.1-0.3c-0.1-0.2-0.2-0.4-0.2-0.5
		c-0.2-0.4-0.1-0.7,0.3-0.9c0.3-0.2,0.6-0.2,0.9-0.2c0.3,0,0.5,0,0.7,0s0.4-0.1,0.6-0.1c0.3-0.1,0.5-0.1,0.6-0.1
		c0.4,0,0.6,0,0.8-0.1l1.4-0.2c0.2-0.1,0.6-0.1,1-0.1c0.2,0,0.4,0,0.6,0c0.2,0,0.4-0.1,0.6-0.2h0.1c0.1-0.1,0.1-0.1,0.2-0.1
		c0.5-0.1,0.8,0.1,1,0.5l0.6,1.9c0.1,0.3,0.2,0.5,0.5,0.8l1.7,1.4c0.3,0.3,0.6,0.5,0.9,0.6c0.3,0.1,0.6,0.2,0.9,0.3
		c0.3,0.1,0.6,0.2,0.9,0.2c0.5,0.3,1.1,0.4,1.6,0.3s1-0.1,1.6-0.2c0.6-0.1,1.2-0.3,1.8-0.7l0.9-0.5l0.5-0.5l0.4-0.6
		c0.4-0.6,0.7-1.2,0.9-1.8c0.1-0.4,0.2-0.7,0.2-1.1c0-0.3,0-0.7,0.1-1.1l-0.7-2c-0.1-0.1-0.2-0.3-0.4-0.5c-0.4-0.2-0.6-0.5-0.8-1
		c-0.2-0.2-0.3-0.4-0.5-0.6c-0.2-0.2-0.4-0.3-0.6-0.5c-0.3-0.2-0.6-0.2-0.9-0.2c-0.2,0-0.3-0.1-0.6-0.2c-0.4-0.2-0.8-0.4-1.2-0.4
		c-0.4-0.1-0.8-0.2-1.2-0.4c-0.1-0.1-0.2-0.1-0.4-0.1l-0.7-0.2c-0.3-0.2-0.7-0.4-1-0.5l-1.1-0.3l-1-0.3c-0.3-0.1-0.6-0.2-0.9-0.4
		l-1-0.6l-1.3-0.9l-1.4-1l-0.6-0.6c-0.2-0.3-0.4-0.5-0.7-0.8c-0.2-0.3-0.5-0.6-0.8-0.8c-0.2-0.1-0.3-0.3-0.3-0.5
		c-0.1-0.3-0.2-0.6-0.4-0.8c-0.2-0.2-0.3-0.5-0.4-0.8l-0.3-0.9c-0.1-0.3-0.2-0.5-0.5-0.8c-0.2-0.2-0.3-0.5-0.3-0.9
		c-0.1-0.3-0.1-0.6-0.1-0.9s-0.1-0.6-0.2-0.9c0.1-0.3,0.1-0.6,0-0.9c-0.1-0.3-0.1-0.6-0.2-0.9c0-0.3,0-0.6,0.1-0.9
		c0.1-0.3,0.1-0.6,0.2-0.9c0-0.1,0-0.1,0-0.2c0-0.1,0-0.1,0-0.2c-0.1-0.5,0-0.9,0.2-1.4c0.2-0.5,0.4-0.9,0.5-1.3
		c0-0.1,0-0.2,0.1-0.3c0.1-0.1,0.1-0.2,0.2-0.3l1.3-2.2l0.3-0.4c0.4-0.3,0.6-0.6,0.8-1c0.2-0.2,0.4-0.5,0.7-0.7l0.3-0.2
		c0.5-0.6,1.2-1.2,2-1.6l1.6-1c0.3-0.2,0.6-0.2,1-0.2c0.3-0.2,0.5-0.3,0.8-0.4c0.3,0,0.6-0.1,0.9-0.2c0.6-0.2,1.3-0.3,2.1-0.3
		c0.4-0.1,0.8-0.1,1.2-0.1c0.4,0,0.7,0,1.1,0c0.3,0.1,0.6,0.1,0.9,0.2c0.3,0.1,0.6,0.1,0.8,0.2c0.2,0,0.3,0.1,0.6,0.2
		c0.4,0,0.8,0.1,1.2,0.2c0.3,0.1,0.7,0.3,1,0.4s0.7,0.2,1.2,0.3c0.3,0,0.6,0.1,1,0.3l0.7,0.5c0.5,0.2,1,0.6,1.4,1l0.3,0.3
		c0.3,0.3,0.5,0.5,0.8,0.7c0.3,0.2,0.5,0.4,0.8,0.7c0.2,0.2,0.4,0.5,0.6,0.8c0.1,0.3,0.2,0.5,0.6,0.7c0.3,0.2,0.5,0.5,0.6,0.8
		c0.1,0.3,0.1,0.5-0.1,0.7s-0.3,0.3-0.5,0.4c-0.2,0.1-0.4,0.3-0.6,0.4c-0.2,0.1-0.4,0.1-0.6,0.3c-0.2,0.1-0.4,0.3-0.6,0.4
		c-0.2,0.2-0.3,0.2-0.3,0.2c-0.3,0.1-0.5,0.2-0.7,0.3s-0.4,0.2-0.6,0.3c-0.4,0.2-0.9,0.4-1.3,0.7c-0.5,0.2-0.9,0.5-1.3,0.8
		c-0.5,0.3-0.9,0.3-1.3,0c-0.3-0.2-0.6-0.4-0.9-0.6c-0.1-0.1-0.3-0.2-0.5-0.4c-0.4-0.5-0.9-0.7-1.4-0.8l-0.6-0.2l-1.2-0.4
		c-0.3-0.1-0.6-0.1-1-0.1c-0.3,0.1-0.6,0.1-0.9,0.2l-1.2,0.2c-0.2,0-0.4,0.1-0.6,0.2c-0.2,0.2-0.5,0.4-0.9,0.6
		c-0.3,0.2-0.6,0.5-0.7,0.9c-0.1,0.2-0.2,0.3-0.2,0.4c-0.1,0.1-0.1,0.3-0.2,0.4c-0.2,0.3-0.3,0.6-0.3,1
		C164.6,42.1,164.6,42.2,164.6,42.4z M156.3,66.8c0,0.2,0.1,0.3,0.3,0.3c0.1-0.1,0.2-0.2,0.2-0.3l-0.2-0.2L156.3,66.8z M158.2,43.1
		c0.1,0,0.2-0.1,0.3-0.2c0.1-0.1,0.1-0.1,0.1-0.2l-0.1-0.2l-0.2,0.1c-0.1,0.1-0.1,0.2-0.2,0.2C158.1,42.9,158.1,43,158.2,43.1z
		 M158.5,41.7l-0.2-0.2h-0.1c0,0.1,0,0.2,0.1,0.2H158.5z M158.3,44.5c0.1,0,0.2,0,0.2,0s0.1,0,0.2,0c0.1-0.1,0-0.3-0.2-0.7
		L158.3,44.5z M158.5,45.4c0,0.2,0,0.3,0,0.5s0,0.3,0,0.4c0,0.1,0,0.2,0.1,0.2c0.3,0.2,0.6,0.3,0.7,0.2v-0.2
		c-0.3-0.2-0.5-0.4-0.5-0.8l-0.1-0.1C158.6,45.6,158.6,45.5,158.5,45.4z M158.5,38.6v0.2V38.6L158.5,38.6z M158.5,68
		c0.1,0.3,0.1,0.4,0.2,0.4l0.2-0.2l-0.1-0.2C158.7,67.9,158.7,67.9,158.5,68L158.5,68z M158.8,39.5l-0.2,0.1l0.1,0.1L158.8,39.5
		L158.8,39.5z M159.4,43.6c-0.1-0.1-0.2-0.1-0.2-0.1c-0.2,0-0.2,0.1-0.1,0.2l0.2,0.1L159.4,43.6z M159.2,39
		c-0.1-0.1-0.1-0.1-0.2-0.1v0.2C159.1,39,159.2,39,159.2,39z M159.2,69.9c-0.1,0.1-0.1,0.1-0.1,0.2s0.1,0.2,0.2,0.2l0.1-0.1
		C159.5,70,159.4,69.9,159.2,69.9z M159.4,69.1L159.4,69.1L159.4,69.1L159.4,69.1z M159.4,45.1c0.2,0.2,0.4,0.1,0.5-0.1l0.2-0.2
		l-0.3-0.2L159.4,45.1z M159.5,71.8l-0.2,0.2h0.1L159.5,71.8L159.5,71.8z M159.9,42.1c-0.1-0.1-0.1-0.1-0.1-0.2
		c-0.1,0-0.1,0-0.2,0.1l0.1,0.1C159.7,42.1,159.9,42.1,159.9,42.1z M160.1,49.3c0.2-0.3,0.2-0.5,0-0.6c-0.3,0.1-0.5,0.2-0.5,0.3
		C159.6,49.2,159.8,49.3,160.1,49.3L160.1,49.3z M159.8,70c0.1,0,0.2,0,0.2-0.1l-0.1-0.1L159.8,70z M159.9,47.4l0.3,0.7
		c0.1-0.1,0.1-0.2,0.2-0.3c0.1-0.1,0.1-0.2,0.2-0.3c0.2-0.2,0.2-0.3,0-0.6h-0.2c-0.2,0-0.2,0.1-0.1,0.2c0.1,0,0.1,0.1,0.1,0.2
		L159.9,47.4L159.9,47.4z M160.3,39.7v0.2V39.7L160.3,39.7z M161,49.1c-0.1-0.1-0.2,0-0.2,0.1s-0.1,0.2-0.2,0.1
		c0,0.2-0.1,0.4-0.2,0.6l0.1,0.1c0.1,0,0.2-0.1,0.2-0.2c0.1-0.1,0.2-0.2,0.2-0.2l0.2-0.2c0-0.1,0-0.2,0-0.2
		C161,49.2,161,49.1,161,49.1z M160.7,48.8c0.1-0.1,0.1-0.1,0.2-0.1v-0.2l-0.2-0.1l-0.1,0.1C160.5,48.6,160.6,48.7,160.7,48.8z
		 M160.8,45.3c-0.2,0.2-0.2,0.3,0,0.5c0.1-0.1,0.1-0.1,0.1-0.2c0-0.1,0.1-0.1,0.2-0.2L160.8,45.3z M160.8,72
		c0.1,0.1,0.2,0.1,0.2,0.1c0.1,0,0.1,0,0.2,0.1c0,0.1,0,0.1,0,0.2s0,0.1,0,0.2l0.2,0.1l0.2-0.2c0.1-0.1,0-0.2-0.2-0.3
		c-0.1-0.1-0.2-0.2-0.3-0.2c-0.1,0-0.2-0.1-0.3-0.2c-0.1,0.1-0.1,0.1-0.1,0.2C160.8,71.8,160.8,71.9,160.8,72z M161.4,50.5
		c0.1-0.1,0.1-0.1,0.1-0.2l-0.1-0.2h-0.1L161.4,50.5L161.4,50.5z M161.5,46.5l0.1,0.2c0.1,0,0.1,0,0.2-0.1L161.5,46.5z M162.4,51.2
		l-0.2-0.7L162,51c-0.1,0.1-0.1,0.2-0.2,0.2c-0.1,0-0.1,0.1,0,0.3L162.4,51.2z M162,36.7L162,36.7c-0.1-0.1-0.2,0-0.2,0.1
		s0,0.1,0.1,0.2l0.1-0.1c0.1,0,0.1-0.1,0.2-0.2H162z M162,44.4L162,44.4l-0.2-0.1L162,44.4L162,44.4z M162.1,48.4
		c0-0.1-0.1-0.1-0.2-0.1l-0.1,0.2h0.2C162,48.4,162.1,48.4,162.1,48.4z M162.4,45.1c-0.1,0-0.2,0-0.3,0c-0.1,0-0.2,0-0.3,0.1
		C162,45.3,162.2,45.3,162.4,45.1z M162.1,74.2c0.1-0.1,0.2-0.1,0.2-0.2s0.1-0.1,0.1-0.2l-0.3-0.2l-0.2,0.3L162.1,74.2z M162.6,72.4
		c-0.2,0.1-0.4,0.2-0.6,0.4C162.2,72.8,162.4,72.7,162.6,72.4z M162.4,46.1L162.4,46.1h-0.2l0.1,0.2L162.4,46.1z M162.4,41.1
		l-0.2-0.1l-0.1,0.2l0.1,0.1C162.4,41.2,162.4,41.2,162.4,41.1z M163.2,73.7c0.2,0.1,0.3,0.1,0.6,0.1c0.2,0,0.3,0,0.4-0.1
		c-0.1-0.2-0.2-0.4-0.2-0.6l-0.2-0.5c-0.2,0-0.3,0-0.5,0s-0.3,0-0.5,0l-0.2,0.4l0.5,0.3L163.2,73.7z M162.9,36.2l-0.2-0.2l-0.1,0.1
		L162.9,36.2L162.9,36.2z M163.2,73.7H163c-0.3,0.2-0.3,0.4-0.2,0.6c0.1,0.1,0.1,0.2,0.2,0.2c0.1,0.1,0.1,0.2,0.1,0.2
		c0,0.2,0.1,0.2,0.3,0.1c0-0.2-0.1-0.4-0.2-0.6C163.1,74.1,163.1,73.9,163.2,73.7z M162.8,52c0,0.1,0,0.1,0.1,0.2l0.1-0.1L162.8,52z
		 M162.9,71.7L162.9,71.7v0.2V71.7L162.9,71.7z M163,50.2c-0.1,0.2-0.1,0.4-0.1,0.5l0.2,0.3c0.2,0.2,0.3,0.2,0.3,0l-0.1-0.2
		c-0.1-0.1-0.1-0.1-0.1-0.2L163,50.2z M163.3,48.4c0-0.1-0.1-0.2-0.2-0.2c-0.2,0-0.2,0.1-0.2,0.2c0,0.1,0,0.1,0.1,0.2
		C163.2,48.8,163.3,48.7,163.3,48.4z M163,49.7c0,0.1,0,0.1,0.1,0.2l0.2-0.1L163,49.7L163,49.7z M163.4,73.1c0-0.1,0-0.1-0.1-0.2
		c0.1-0.1,0.1-0.1,0.2-0.1l0.1,0.1L163.4,73.1z M163.9,53c0-0.3,0-0.5,0.1-0.7l-0.4,0.4L163.9,53z M163.7,33.5
		c0.1-0.1,0.1-0.1,0.1-0.2c0-0.2-0.1-0.2-0.2-0.2v0.2C163.7,33.3,163.7,33.4,163.7,33.5z M163.6,71.3c0.1,0.1,0.1,0.1,0.2,0H163.6
		L163.6,71.3z M163.8,51.6c0.1-0.1,0.1-0.1,0.2-0.1l-0.1-0.1L163.8,51.6L163.8,51.6z M164.3,50c-0.2,0-0.2,0-0.2,0.1l0.1,0.1
		L164.3,50z M164.3,74.5L164.3,74.5H164l0.1,0.1L164.3,74.5z M164.2,35.9c0.1-0.1,0.2-0.2,0.2-0.2l-0.2-0.1V35.9L164.2,35.9z
		 M164.5,73.2c-0.2-0.2-0.3-0.2-0.3-0.1s0,0.1,0.1,0.2L164.5,73.2z M164.3,75.1L164.3,75.1L164.3,75.1L164.3,75.1z M164.5,48.9
		l-0.2-0.1h-0.1v0.1H164.5z M164.5,74c-0.1,0.1-0.1,0.1-0.1,0.2s0.1,0.1,0.2,0.1l0.1-0.1L164.5,74z M164.9,51.9c0-0.1,0-0.1,0.1-0.2
		c0.1-0.1,0.1-0.1,0-0.2h-0.2l-0.2,0.2L164.9,51.9z M164.8,51.9c-0.1,0-0.2,0.1-0.2,0.2c0,0.1,0,0.2,0,0.2s0,0.1,0,0.2
		c0.2,0,0.3-0.1,0.2-0.3V51.9z M165.1,53.4c0.1-0.2,0.1-0.3,0-0.3c0,0-0.2,0-0.4,0L165.1,53.4z M165.3,49.3
		c-0.3-0.2-0.4-0.1-0.5,0.2L165.3,49.3z M164.8,72.8L164.8,72.8L164.8,72.8L164.8,72.8z M164.8,74.5L164.8,74.5h0.2H164.8z
		 M165.2,74.9L165.2,74.9l-0.3-0.1l-0.1,0.1H165.2z M165.4,51c-0.1,0.1-0.1,0.1-0.2,0.1v0.2h0.2V51z M165.6,52.2l-0.2,0.2
		c0,0.1,0.1,0.2,0.2,0.2c0.1,0.1,0.2,0.1,0.2-0.1l-0.1-0.1C165.6,52.4,165.6,52.3,165.6,52.2z M166.4,53.5c-0.2,0-0.3,0-0.4,0.1
		c-0.1-0.1-0.1-0.2-0.1-0.3c0.1-0.1,0-0.1-0.2-0.2c-0.2,0.2-0.3,0.4-0.3,0.6l0.9,0.3c0-0.1,0-0.2,0.1-0.3
		C166.5,53.7,166.5,53.6,166.4,53.5z M165.7,73.1L165.7,73.1l-0.2,0.1L165.7,73.1L165.7,73.1z M165.8,34.2L166,34
		c0.1-0.1,0.1-0.2-0.2-0.2l-0.2,0.1C165.7,34.1,165.8,34.1,165.8,34.2z M165.9,52c0.1,0,0.1-0.1,0.1-0.2h-0.2L165.9,52z M166.4,34.9
		c-0.1,0-0.2,0.1-0.2,0.2v0.2c0.2,0.1,0.3,0.1,0.5-0.2L166.4,34.9z M166.3,52.1L166.3,52.1c-0.1,0.1-0.1,0.2,0,0.2V52.1L166.3,52.1z
		 M166.3,74.4L166.3,74.4L166.3,74.4L166.3,74.4z M167,75.5c0.2,0,0.3,0,0.3-0.1l-0.4-0.6c0,0.1,0,0.2,0,0.3
		C167,75.3,167,75.4,167,75.5z M167,34.6c0,0.2,0,0.3,0.1,0.3h0.2v-0.1C167.2,34.7,167.2,34.6,167,34.6z M167.2,34.3L167.2,34.3
		l0.2,0.1L167.2,34.3z M168,35.6l0.1-0.2h-0.2c-0.1,0-0.1,0.1-0.2,0.2H168z M168,33.1l0.3,0.2c0.1,0.1,0.2,0.1,0.3,0.2
		c-0.2-0.3-0.3-0.5-0.4-0.6v-0.2l-0.2-0.1C168.1,32.7,168.1,32.9,168,33.1z M168.2,32.2c0.1,0.1,0.1,0.1,0.2,0.1
		c0.1,0,0.1-0.1,0.1-0.2L168.2,32.2L168.2,32.2z M168.4,74.9c-0.1,0-0.1-0.1-0.1-0.2c-0.1,0.1-0.1,0.2-0.1,0.4
		C168.5,75.2,168.5,75.1,168.4,74.9z M168.3,53.7L168.3,53.7L168.3,53.7L168.3,53.7z M168.9,74.9c0-0.1,0.1-0.1,0.2-0.1
		c0.1,0,0.1-0.1,0-0.1c-0.2,0-0.4,0-0.8,0L168.9,74.9z M168.5,33.7L168.5,33.7l0.2,0.1L168.5,33.7z M168.5,34.2h0.2H168.5
		L168.5,34.2z M168.7,54.7l0.2,0.1v-0.1H168.7z M169.4,33.6L169.4,33.6L169.4,33.6L169.4,33.6z M169.6,33.1l0.1-0.2h-0.2L169.6,33.1
		L169.6,33.1z M170,72.9c-0.1-0.1-0.1-0.1-0.2-0.1v0.1l0.1,0.2L170,72.9z M170.9,73.3c0,0.1,0,0.1-0.1,0.2v0.1h0.1V73.3z
		 M171.2,74.9L171.2,74.9L171.2,74.9L171.2,74.9z M171.6,73.3L171.6,73.3l0.2,0.2l0.1-0.1L171.6,73.3z M171.6,75.2L171.6,75.2
		L171.6,75.2L171.6,75.2z M172,75.8L172,75.8l-0.2,0.1v0.2L172,75.8z M172.1,74.4c0.3,0.2,0.5,0.2,0.8,0l-0.2-0.3
		c0-0.1,0-0.1,0.1-0.2c0.1-0.1,0-0.1-0.1-0.2c-0.3,0.2-0.4,0.3-0.4,0.4C172.4,74.2,172.3,74.3,172.1,74.4L172.1,74.4
		c0.1-0.1,0-0.2-0.1-0.2v0.1C172,74.5,172,74.5,172.1,74.4z M172.4,35.4c-0.1,0.1-0.2,0.2-0.2,0.2l0.2,0.1l0.1-0.1
		C172.5,35.6,172.5,35.5,172.4,35.4z M172.4,75.9c0-0.1,0.1-0.2,0.2-0.3l-0.1-0.1c-0.1-0.1-0.1-0.1-0.2,0c-0.1,0.1-0.1,0.1-0.1,0.2
		C172.3,75.6,172.3,75.7,172.4,75.9z M172.4,54.8c0.1,0.1,0.2,0.2,0.2,0.2c0.1,0,0.1,0,0.2-0.1c0-0.1,0-0.2,0-0.4c0-0.1,0-0.3,0-0.4
		c0-0.1-0.1-0.3-0.2-0.5L172.4,54.8z M172.8,72.2c-0.1,0.1-0.1,0.1-0.1,0.2c-0.1,0.1,0,0.1,0.1,0.2c0-0.1,0.1-0.1,0.2-0.2
		L172.8,72.2z M173.5,75.3h-0.2c0-0.1-0.1,0-0.2,0.1C173.3,75.4,173.4,75.4,173.5,75.3z M173.5,74.6L173.5,74.6L173.5,74.6
		L173.5,74.6z M173.6,75.4l-0.1-0.1v0.2L173.6,75.4L173.6,75.4L173.6,75.4z M173.6,35.5c0,0.3,0,0.4,0.1,0.5l0.1,0.2L174,36
		L173.6,35.5z M174.1,52.3L174.1,52.3l-0.1-0.1L174.1,52.3L174.1,52.3z M174.1,32.3c-0.1,0.1-0.1,0.2,0,0.2V32.3z M174.1,74.1
		c0.1,0,0.2,0,0.2-0.1v-0.1L174.1,74.1z M174.8,73.1c0.1,0,0.1-0.1,0.1-0.4c0-0.2-0.1-0.3-0.4-0.2l-0.2,0.1c-0.1,0.2-0.1,0.3,0,0.4
		c0.1,0.2,0.2,0.3,0.3,0.3L174.8,73.1z M174.3,72.6c0,0.2,0.1,0.3,0.2,0.3s0.2,0.1,0.3,0.2C174.7,72.8,174.5,72.6,174.3,72.6z
		 M174.3,74.9c0.1,0,0.1,0,0.2-0.1l-0.1-0.1L174.3,74.9L174.3,74.9z M174.8,35.2c0.2,0,0.2-0.1,0.2-0.2h0.1c0.1,0.1,0.1,0.1,0.2,0.1
		V35c0-0.1-0.1-0.2-0.2-0.2l-0.1,0.1L174.8,35.2z M174.9,75l-0.1-0.2l-0.1,0.1L174.9,75L174.9,75z M175,74.5l0.1-0.2l-0.2-0.1
		L175,74.5z M175,33.3c0.1,0,0.1-0.1,0.2-0.2H175V33.3z M175.3,35.9c-0.2,0.2-0.2,0.3,0,0.5c0.1,0.2,0,0.3-0.2,0.4l0.6,0.7
		c0.1-0.1,0.1-0.2,0.2-0.4c0.1-0.1,0.1-0.3,0-0.4c-0.4-0.1-0.5-0.3-0.5-0.6C175.5,35.9,175.5,35.9,175.3,35.9z M175.4,56
		c0.2-0.2,0.2-0.3,0.2-0.3s-0.1-0.1-0.3-0.2C175.2,55.7,175.2,55.9,175.4,56z M175.6,73.7L175.6,73.7v0.2V73.7z M175.7,72.1
		c0.1,0.1,0.2,0.2,0.2,0.2l0.1-0.2H175.7z M176,35.9c-0.1,0-0.1,0-0.2-0.1l-0.1,0.1l0.2,0.2C176,36.1,176,36,176,35.9z M175.8,37.9
		c0.1,0.1,0.1,0.1,0.2,0.1L175.8,37.9L175.8,37.9z M176,55.5L176,55.5L176,55.5L176,55.5z M176.4,56.7c-0.1-0.1-0.1-0.1-0.2-0.1
		L176.4,56.7L176.4,56.7z M176.4,34.8L176.4,34.8c-0.2,0.5-0.1,0.6,0.2,0.6l0.1-0.1C176.9,35.1,176.8,34.9,176.4,34.8z M176.5,33.9
		L176.5,33.9L176.5,33.9L176.5,33.9z M176.6,74.1c0.1-0.1,0.2-0.2,0.2-0.2L176.6,74.1C176.6,74,176.6,74.1,176.6,74.1z M177,71.1
		L177,71.1c-0.1-0.1-0.2-0.1-0.3,0v0.2L177,71.1z M176.8,58.9c0.1,0,0.1,0,0.2-0.1v-0.2l-0.2,0.1V58.9z M176.8,58.3
		c0.2,0.1,0.4,0.1,0.6-0.1c-0.1,0-0.2,0-0.3,0C177,58.3,177,58.3,176.8,58.3z M177.6,69.9c-0.2,0.1-0.3,0.2-0.4,0.2
		c-0.1,0.1-0.2,0.1-0.3,0.2c0.3,0.2,0.5,0.3,0.6,0.2c0.2-0.1,0.2-0.1,0.2-0.3C177.7,70.2,177.6,70.1,177.6,69.9z M177.2,71.9
		L177.2,71.9l-0.2-0.1L177.2,71.9z M177.5,34.7c-0.1,0.1-0.2,0.1-0.2,0.2c0,0.1-0.1,0.2-0.2,0.3h0.4V34.7z M177.5,60.5
		c-0.1,0.1-0.1,0.1-0.1,0.2c-0.1,0.1-0.1,0.2,0.1,0.3h0.2C177.8,60.7,177.7,60.6,177.5,60.5L177.5,60.5z M177.5,34.7
		c0.4,0.3,0.7,0.2,0.9-0.2c0-0.3-0.1-0.3-0.3-0.2L177.5,34.7z M177.7,59.6c-0.1,0.1-0.1,0.1-0.1,0.2c0,0.1,0,0.1-0.1,0.2
		C177.8,59.9,177.9,59.7,177.7,59.6z M177.8,36.7l-0.2,0.3h0.2V36.7z M178.1,61.4c-0.1-0.1-0.2-0.1-0.3-0.1v0.1
		C177.9,61.4,178,61.4,178.1,61.4L178.1,61.4z M177.9,62.1c0,0.3,0.1,0.5,0.3,0.5s0.3-0.1,0.5-0.3C178.4,62.3,178.2,62.2,177.9,62.1
		z M178,68.3L178,68.3L178,68.3L178,68.3z M177.9,69.9c0.1,0,0.1,0,0.2,0c0.1,0,0.1,0,0.2,0c-0.1-0.1-0.2-0.1-0.3-0.1v0.1H177.9z
		 M178.1,72.6L178.1,72.6h-0.2l0.1,0.1C178,72.7,178.1,72.7,178.1,72.6z M178,63.7c-0.2,0.2-0.1,0.4,0.1,0.6h0.2
		c0.1-0.1,0.2-0.2,0.2-0.2C178.3,63.8,178.2,63.7,178,63.7z M179,71c-0.1-0.1-0.2-0.2-0.3-0.2l-0.3-0.3L178,71
		c0.3,0,0.4,0.1,0.5,0.3c0.1,0.2,0.3,0.3,0.5,0.2c-0.2-0.1-0.3-0.2-0.2-0.3C178.9,71.2,179,71.1,179,71z M178.3,55.3
		c0,0.1,0.1,0.1,0.2,0.1c-0.1-0.2-0.2-0.4-0.3-0.6L178.3,55.3z M178.1,61.4c0,0.1,0,0.2,0.1,0.2l0.2-0.1L178.1,61.4L178.1,61.4z
		 M178.8,66.9c0.1-0.1,0.1-0.1,0-0.2c-0.1,0.1-0.2,0.2-0.3,0.2c-0.1,0.1-0.2,0.2-0.2,0.4c0.2,0,0.3,0,0.3-0.1l-0.1,0.2v0.2
		c0.1,0.1,0.2,0.2,0.4,0.2c0-0.1,0-0.2,0-0.2s0-0.1,0-0.2c-0.1-0.2-0.2-0.2-0.4-0.1L178.8,66.9z M178.6,58.4L178.6,58.4l-0.2-0.1
		c-0.2,0.2-0.2,0.4,0,0.6L178.6,58.4z M178.6,36.2L178.6,36.2L178.6,36.2L178.6,36.2z M179.1,63.7L179.1,63.7l0.1-0.2L179.1,63.7z
		 M179.2,35.1c0,0.3,0.1,0.4,0.4,0.3C179.5,35.3,179.3,35.1,179.2,35.1z M179.5,64l-0.2-0.1l-0.1,0.1l0.1,0.1
		C179.4,64.1,179.4,64,179.5,64z M179.4,36.1c0.2,0,0.2,0,0.2-0.1v-0.2L179.4,36.1z M179.4,61.4c0.1-0.1,0.1-0.1,0.2-0.1l-0.1-0.2
		L179.4,61.4L179.4,61.4z M180.1,68.3c-0.1,0.2-0.1,0.3-0.1,0.4s0,0.1-0.1,0.2l-0.3,0.2c0.1,0.2,0.1,0.3,0.3,0.4
		c0.1,0,0.3,0.1,0.4,0.1c0.1-0.2,0.1-0.4,0.1-0.6C180.3,68.8,180.2,68.6,180.1,68.3z M180,67.5L180,67.5h-0.2H180L180,67.5z
		 M180.3,62.6l-0.2-0.1c-0.2-0.1-0.2,0-0.2,0.2l0.1,0.1C180.1,62.9,180.2,62.8,180.3,62.6z M180,58.8c0.3-0.1,0.4-0.3,0.2-0.6
		c0,0.2,0,0.3-0.1,0.4C180.2,58.7,180.2,58.7,180,58.8z M180.1,59.9L180.1,59.9c0.1,0,0.1-0.1,0.2-0.2l-0.1-0.1L180.1,59.9z
		 M180.9,68.7L180.9,68.7l-0.2-0.6l-0.2,0.4C180.7,68.5,180.8,68.6,180.9,68.7z M180.9,66.6c-0.1-0.1-0.1-0.1-0.2-0.1h-0.1l0.1,0.1
		H180.9z M181.3,59.9c0,0.2,0,0.4,0.1,0.5c0.1,0.1,0.1,0.2,0.1,0.3s0.1,0.2,0.2,0.2c0-0.1,0-0.2,0-0.2c0-0.1,0-0.1,0-0.2
		c-0.1-0.1-0.2-0.2-0.3-0.3C181.5,60.1,181.4,60,181.3,59.9z M181.5,67.7L181.5,67.7L181.5,67.7L181.5,67.7z M181.9,67.3L181.9,67.3
		c-0.1,0-0.2,0-0.2,0.1v0.1L181.9,67.3z M182.1,65.1c0.1-0.3,0.2-0.5,0.2-0.6c-0.1-0.1-0.2-0.1-0.2,0c-0.1,0.1-0.1,0.2-0.2,0.3
		L182.1,65.1z M182.2,62.7L182.2,62.7H182H182.2L182.2,62.7z"/>
	<path class="st0" d="M189.6,61.5h0.6c0.3-0.1,0.5-0.1,0.8-0.1c0.2,0,0.5,0,0.8,0h0.8c0.3,0,0.6,0,0.9,0.1c0.1,0.1,0.2,0.1,0.3,0
		c0.1-0.1,0.2-0.1,0.3-0.1h1c0.5,0,0.8,0.2,1,0.7l0.2,0.9v0.3c0.1,0.3,0.2,0.5,0.2,0.7c0.1,0.2,0.1,0.5,0.2,0.7
		c0.2,0.5,0.4,1,0.6,1.3c0.1,0.1,0.2,0.3,0.3,0.5c0.1,0.2,0.2,0.4,0.4,0.6c0.2,0.2,0.3,0.3,0.5,0.6c0.2,0.2,0.4,0.3,0.6,0.4
		c0.4,0.2,0.7,0.4,0.9,0.6c0.1,0.1,0.2,0.2,0.3,0.2c0.1,0.1,0.2,0.1,0.3,0.2l1.9,0.7c0.1,0.1,0.2,0.1,0.4,0.1c0.2,0,0.4,0,0.6,0
		c0.2,0,0.4,0,0.6,0c0.4,0.1,0.7,0.1,1-0.1c0.2-0.2,0.4-0.2,0.6-0.1c0.4,0,0.8-0.1,1.2-0.2c0.2-0.1,0.4-0.2,0.6-0.2
		c0.2,0,0.4-0.1,0.5-0.2c0.2-0.1,0.4-0.2,0.6-0.4l0.3-0.2c0.1-0.1,0.2-0.1,0.3-0.2l0.3-0.2c0.3-0.3,0.5-0.5,0.8-0.7
		c0.2-0.2,0.4-0.4,0.6-0.7c0.3-0.4,0.5-0.7,0.7-1c0.2-0.3,0.4-0.7,0.5-1.1c0-0.1,0.1-0.3,0.2-0.6c0.2-0.4,0.2-0.8,0.2-1.2
		c0-0.3,0-0.5,0.1-0.6c0.1-0.2,0.2-0.5,0.2-0.9c0-0.3,0-0.5,0-0.7s0-0.4,0-0.6c0-0.2-0.1-0.4-0.2-0.7c-0.1-0.4-0.1-0.6,0-0.8
		c0.1-0.1,0.1-0.2,0.1-0.4V56c0-0.1,0-0.2,0-0.2s0-0.1,0-0.2c0-0.1,0-0.2,0-0.3s0-0.2,0-0.3c0.1-0.3,0.1-0.6,0.1-1.1v-1.7
		c-0.2-0.4-0.2-0.7,0-1.1c0.1-0.1,0.1-0.1,0-0.2c0-0.1,0-0.2,0-0.3v-1.4c0.1-0.2,0-0.4,0-0.6c-0.1-0.2-0.1-0.4-0.1-0.6
		c0-0.2,0-0.4,0.1-0.6c0.1-0.2,0.1-0.4,0-0.6v-1.3c0.1-0.2,0-0.4,0-0.6c-0.1-0.2-0.1-0.3-0.1-0.6c0-0.2,0-0.4,0.1-0.6
		c0.1-0.2,0.1-0.3,0-0.5c0-0.3,0-0.5,0-0.8c0-0.2,0-0.5,0-0.8c-0.1-0.7-0.1-1.4,0-2c0.1-0.3,0.1-0.5,0-0.8c0-0.3,0-0.5,0-0.8
		c0-0.2,0-0.4-0.1-0.6c-0.1-0.2-0.1-0.3-0.1-0.5s0-0.3,0.1-0.5c0.1-0.2,0.1-0.3,0-0.5v-1.6c0-0.2,0-0.4-0.1-0.6s-0.1-0.3-0.1-0.5
		s0-0.4,0.1-0.6s0.1-0.3,0.1-0.5v-1.4c0-0.4,0-0.7-0.1-0.9c-0.2-0.6,0.1-1,0.6-1.2c0.1,0,0.2,0,0.2,0c0.1,0,0.1,0,0.2,0
		c0.4,0.1,0.7,0.1,1,0c0.3-0.1,0.6,0,1,0.1h0.3c0.4,0,0.9,0,1.3,0c0.5,0,0.9,0,1.3,0h0.3c0.3,0.1,0.7,0.1,1.1,0h0.9
		c0.1,0,0.3,0.1,0.6,0.2c0.2,0.1,0.2,0.3,0.2,0.5c0.1,0.3,0.1,0.6,0.1,0.9v0.9c0.1,0,0.1,0.1,0,0.2c-0.1,0.3-0.1,0.7-0.1,1
		s0,0.7,0,1.1c0,0.2,0,0.3,0,0.5s0,0.3,0,0.5v1c0.4,0.2,0.4,0.3,0.4,0.4V37c0,0.3,0,0.6,0.1,1c0,0.2,0,0.4,0,0.6c0,0.2,0,0.4,0,0.6
		c-0.1,0.2-0.1,0.5-0.1,0.7c0.1,0.2,0.1,0.4,0,0.6c0,0.2,0,0.4,0,0.6c0,0.1,0,0.2,0,0.3s0,0.2,0,0.3c0.1,0.4,0.1,0.7,0,1
		c0,0.2,0,0.3,0,0.5v1.1c0,0.3,0,0.6,0.1,1c0,0.2,0,0.4,0,0.6c0,0.2,0,0.4,0,0.6c-0.1,0-0.1,0.2-0.1,0.5c0,0.4,0,0.7,0,1.1
		c0,0.3,0,0.7,0,1.1c0.1,0.1,0.1,0.2,0,0.4c0,0.1,0,0.3,0,0.4c0,0,0,0.2,0,0.4c0,0.2,0,0.4,0,0.5v0.6c0.1,0.2,0.1,0.3,0.1,0.6v1.4
		c-0.1,0.4-0.1,0.6-0.1,0.7c0.1,0.4,0.1,0.7,0,1.1c-0.1,0.4-0.1,0.7,0,1.1c0.1,0.1,0.1,0.2,0,0.3c0,0.1,0,0.2,0,0.3
		c0,0.2,0,0.4,0,0.6s0,0.4,0,0.5c0.1,0.1,0.1,0.2,0,0.3c0,0.1,0,0.2,0,0.3c0,0.3,0,0.6,0.1,0.8c0.1,0.4,0.1,0.9-0.1,1.3v0.6
		c0,0.4,0,0.7-0.1,1v0.2c0.1,0.3,0.1,0.5,0,0.7c-0.1,0.2-0.1,0.4-0.2,0.7c-0.1,0.2-0.1,0.4-0.2,0.6c-0.1,0.2,0,0.3,0.1,0.6
		c0,0.2-0.1,0.3-0.2,0.6c-0.2,0.2-0.3,0.6-0.4,1.1l-0.3,1.1c-0.1,0.4-0.2,0.7-0.4,1s-0.3,0.6-0.4,0.9c-0.1,0.3-0.3,0.6-0.6,0.9
		l-1,1.4c0,0.1,0,0.2-0.1,0.2c-0.3,0.3-0.6,0.7-0.9,1s-0.6,0.7-1,1c-0.1,0.1-0.3,0.2-0.5,0.4c-0.3,0.4-0.7,0.7-1.2,1l-1,0.8
		c-0.1,0.1-0.2,0.1-0.3,0.2c-0.1,0.1-0.2,0.1-0.3,0.2c-0.2,0.1-0.3,0.2-0.5,0.2c-0.2,0.1-0.3,0.2-0.4,0.3l-0.2,0.2l-1.9,0.4
		l-1.1,0.5c-0.3,0.1-0.5,0.2-0.6,0.2c-0.3,0-0.5,0-0.8,0.1S207,79,206.7,79c-0.4,0.1-0.7,0.1-1.1,0.2c-0.3,0.1-0.7,0-1.1-0.1
		c-0.3,0-0.5,0-0.6,0.1c-0.3,0.1-0.7,0-1.2-0.1l-0.2-0.1c-0.4,0-0.8-0.1-1.2-0.2c-0.4-0.1-0.8-0.2-1.2-0.3c-0.4-0.1-0.8-0.2-1.2-0.4
		c-0.4-0.1-0.8-0.3-1.2-0.4c-0.4-0.2-0.8-0.3-1.2-0.5c-0.3-0.2-0.7-0.3-1.2-0.4l-0.6-0.4c-0.3-0.3-0.5-0.5-0.8-0.7
		c-0.3-0.2-0.6-0.4-1-0.6c-0.3-0.2-0.5-0.4-0.6-0.6c-0.2-0.3-0.5-0.5-0.7-0.6c-0.3-0.2-0.6-0.6-0.9-1c-0.2-0.4-0.5-0.8-0.9-1.3
		c-0.4-0.3-0.7-0.7-0.7-1.2l-0.3-0.6l-0.5-0.9c-0.2-0.5-0.4-1-0.7-1.4c-0.2-0.2-0.2-0.5-0.2-0.9c0-0.3,0-0.5,0-0.7
		c0-0.2-0.1-0.5-0.2-0.7c-0.2-0.4-0.2-0.6-0.2-0.9l-0.2-1.5c-0.1-0.2-0.1-0.4-0.1-0.6c0-0.5,0.2-0.7,0.7-0.7c0.1-0.1,0.2-0.1,0.4,0
		c0.2,0,0.3,0,0.5,0v-0.2L189.6,61.5z M190.3,65.5c-0.1-0.2-0.2-0.2-0.4,0H190.3z M190.7,64.9L190.7,64.9l-0.2-0.1
		C190.5,64.9,190.6,65,190.7,64.9L190.7,64.9z M190.9,64.6c0.5,0.1,0.7,0.3,0.6,0.6l0.1,0.1c0,0.1,0,0.1,0.1,0.2
		c0.1-0.2,0.1-0.3,0.1-0.6l0.7-0.2l-0.5-0.3c-0.2-0.1-0.3-0.2-0.4-0.3l-0.2,0.3L190.9,64.6z M191,66.6L191,66.6l-0.1,0.2h0.2
		C191,66.8,191,66.7,191,66.6z M191.2,66.8c0,0.1,0,0.2-0.1,0.2h0.2C191.3,66.9,191.2,66.8,191.2,66.8z M192.1,65.9
		c-0.1-0.2-0.2-0.3-0.4-0.2C191.8,65.9,191.9,66,192.1,65.9z M192.1,65.9c-0.2,0.3-0.2,0.5-0.1,0.7c0.2-0.2,0.2-0.3,0.2-0.3
		C192.2,66.2,192.2,66.1,192.1,65.9z M192.1,64.2c0.2,0.2,0.4,0.2,0.6,0.2c0.1,0.2,0.1,0.3,0,0.4c-0.1,0.1-0.1,0.2,0.2,0.3
		C193,65,193,65,193,64.9c-0.1-0.1-0.1-0.1,0-0.2l0.2-0.2c0.2-0.4,0.2-0.7,0-0.9c-0.3-0.1-0.5-0.1-0.6,0
		C192.5,63.8,192.4,63.9,192.1,64.2z M192.3,67l-0.1-0.2L192.3,67L192.3,67z M192.9,67.7c-0.2,0.1-0.3,0.2-0.4,0.2s-0.2,0.1-0.2,0.3
		C192.6,68.3,192.8,68.1,192.9,67.7z M192.9,66.9c-0.1,0-0.1,0.1-0.2,0.2v0.1h0.1l0.2-0.1L192.9,66.9z M193.5,69.5
		c0.1-0.2,0-0.3-0.2-0.4c-0.1,0-0.1,0.1-0.2,0.2H193c-0.1,0-0.1,0.1-0.1,0.2C193.1,69.5,193.3,69.6,193.5,69.5z M193,64.2
		c0-0.1,0-0.1-0.1-0.2l0.1-0.1l0.2,0.2C193.1,64.1,193.1,64.2,193,64.2z M192.9,65.5L192.9,65.5L192.9,65.5L192.9,65.5z M194.4,68.1
		c-0.1-0.3-0.1-0.5-0.1-0.7s-0.2-0.4-0.4-0.5c-0.1,0.1-0.3,0.2-0.6,0.5l0.3,0.6c0.1,0.2,0.2,0.2,0.3,0.2c0.1,0,0.1,0,0.2,0
		C194.2,68.2,194.3,68.1,194.4,68.1z M193.5,69.5c-0.1,0.2-0.1,0.2,0.2,0.2l0.1-0.1C193.7,69.6,193.7,69.5,193.5,69.5z M193.7,64.5
		L193.7,64.5c0.1,0.1,0.2,0.1,0.2,0.1c0.1-0.1,0.1-0.1,0-0.2l-0.1-0.1L193.7,64.5z M194.5,69.3l-0.2,0.3c0.1,0.2,0.2,0.2,0.4,0.2
		l0.1-0.1v-0.1L194.5,69.3z M194.5,67.8V68l0.1,0.1c0-0.1,0-0.2,0.1-0.2L194.5,67.8z M194.9,68c0,0.1,0,0.2,0.1,0.2l0.1-0.1
		L194.9,68z M195.6,72.6L195.6,72.6l0.2-0.1L195.6,72.6z M195.7,73.1c-0.1,0-0.1,0-0.2,0.1l0.1,0.1
		C195.7,73.3,195.7,73.2,195.7,73.1z M195.7,70.9c0.1,0.3,0.2,0.4,0.2,0.4s0.2-0.1,0.4-0.3C196.2,71,196,71,195.7,70.9z M195.9,73.7
		c0.2,0.2,0.3,0.3,0.3,0.4c0.1,0,0.2,0,0.3,0c0.2,0,0.2-0.1,0.1-0.3L195.9,73.7L195.9,73.7z M196.2,69.4c0.2-0.2,0.2-0.3,0.2-0.4
		l-0.2-0.2c-0.1,0.1-0.2,0.2-0.2,0.3v0.2C196.1,69.3,196.2,69.4,196.2,69.4z M196.4,70.5c0.1,0.1,0.1,0.1,0.2,0.1h0.1L196.4,70.5
		L196.4,70.5z M197.3,72.9L197.3,72.9L197.3,72.9L197.3,72.9z M198.4,72c-0.1,0.1-0.1,0.1-0.1,0.2h0.1V72z M199.4,72.1L199.4,72.1
		l0.3,0.1L199.4,72.1z M201.1,72.8L201.1,72.8L201.1,72.8L201.1,72.8z M208.7,75.8c-0.1-0.1-0.1-0.1-0.2,0H208.7L208.7,75.8z
		 M210.6,72.5l-0.2-0.1v0.1H210.6L210.6,72.5z M212.8,69.1L212.8,69.1l-0.2-0.1C212.7,69.1,212.7,69.1,212.8,69.1z M213.8,72.7
		L213.8,72.7L213.8,72.7L213.8,72.7L213.8,72.7z M213.8,73.3h0.2l0,0l-0.1-0.2L213.8,73.3z M214.3,72c0-0.1,0-0.2-0.1-0.2H214V72
		H214.3L214.3,72z M214.9,71.6c-0.1-0.2-0.1-0.3-0.2-0.4h-0.2c-0.1,0.1-0.1,0.2,0,0.2C214.5,71.5,214.6,71.5,214.9,71.6z
		 M215.4,49.4c-0.1-0.1-0.1-0.1-0.2-0.1c0,0-0.1-0.1-0.2-0.2v0.5L215.4,49.4z M215.3,55.4c0,0.1,0,0.1-0.1,0.2
		c0,0.1,0.1,0.2,0.2,0.2l0.2-0.2L215.3,55.4z M215.4,54.3c-0.1,0.1-0.1,0.1-0.1,0.2l0.1,0.1l0.2-0.2
		C215.5,54.4,215.5,54.3,215.4,54.3z M215.5,69.8c0.1,0.1,0.1,0.1,0.2,0.1L215.5,69.8L215.5,69.8z M215.8,51.1L215.8,51.1
		L215.8,51.1L215.8,51.1z M217,54.6l0.2-0.3c0.1-0.1,0.1-0.2-0.1-0.3c-0.1-0.1-0.1-0.1-0.2-0.1c0,0-0.1,0-0.2-0.1l-0.3-0.4
		c-0.1,0.2-0.2,0.3-0.2,0.4C216.5,53.9,216.8,54.2,217,54.6z M216.4,50.4C216.5,50.5,216.5,50.5,216.4,50.4L216.4,50.4z M216.5,50.7
		c0.1,0.1,0.1,0.1,0.2,0.1C216.7,50.7,216.6,50.7,216.5,50.7z M216.8,50.8L216.8,50.8L216.8,50.8L216.8,50.8z M216.8,50.8
		c0.1,0.1,0.1,0.2,0.2,0.2c0.1,0.1,0.1,0.1,0.2,0.2c0.1-0.1,0.1-0.2,0.2-0.2c0.1-0.1,0.1-0.1,0-0.2H216.8z M217.2,46.2L217.2,46.2
		L217.2,46.2L217.2,46.2z M217.3,46.6L217.3,46.6L217.3,46.6L217.3,46.6z M217.7,53.8c-0.1-0.1-0.1-0.1-0.2,0H217.7z M217.6,54.8
		L217.6,54.8V55V54.8L217.6,54.8z M218,58.8c-0.2-0.1-0.3,0-0.4,0.2c0,0.2,0.1,0.3,0.4,0.3V58.8z M217.8,50.3L217.8,50.3L217.8,50.3
		L217.8,50.3z M218.2,56.6c-0.1-0.1-0.1-0.2-0.1-0.4c0-0.1-0.1-0.3-0.2-0.4c0,0.1-0.1,0.1-0.2,0.2c0.1,0,0.1,0.1,0.2,0.4h0.1
		L218.2,56.6z M217.8,41.6L217.8,41.6L217.8,41.6L217.8,41.6z M217.9,36.9L217.9,36.9l0.1-0.2h-0.2
		C217.8,36.8,217.9,36.9,217.9,36.9z M218.1,54.8c-0.1,0.1-0.1,0.1-0.2,0.1L218,55L218.1,54.8L218.1,54.8z M218,47.7
		c0,0.1,0.1,0.1,0.2,0.2l0.2-0.1l-0.1-0.1C218.2,47.7,218.1,47.7,218,47.7z M218,62.5L218,62.5l0.2-0.1L218,62.5z M218.1,53.4
		c0.3,0,0.5-0.1,0.5-0.3s-0.1-0.3-0.3-0.3C218,53,218,53.2,218.1,53.4z M218.3,46.4l-0.1-0.2L218.3,46.4L218.3,46.4z M218.5,46.5
		l0.2,0.2h0.1c0.1-0.1,0.1-0.2-0.1-0.2H218.5z M218.6,65.4c-0.1-0.1-0.1-0.1-0.2,0H218.6L218.6,65.4z M218.6,40.6
		c-0.2,0.1-0.2,0.2,0,0.3l0.6-0.5L218.6,40.6z M218.7,44.8c-0.1-0.1-0.1-0.1-0.2,0H218.7z M219.2,50.8c0.1-0.2,0.1-0.4,0.1-0.5
		c-0.1,0-0.2,0-0.2,0c-0.1,0-0.1,0-0.2,0L219.2,50.8z M219.9,48.5c-0.2-0.1-0.3-0.1-0.3-0.2c-0.1,0-0.1-0.1-0.1-0.2
		c0-0.1-0.1-0.1-0.2,0s-0.1,0.2-0.1,0.2c0.1,0.1,0.1,0.1,0.1,0.2v0.2l0.1,0.1L219.9,48.5z M219.5,54.6L219.5,54.6
		c-0.2-0.1-0.2,0-0.2,0.1l0.1,0.1L219.5,54.6z"/>
</g>
<g>
	<text transform="matrix(1 0 0 1 -8.6323 66.6865)" class="st0 st1 st2">:SJ</text>
</g>
</svg>
