<?xml version="1.0" encoding="utf-8"?>
<!-- Generator: Adobe Illustrator 20.1.0, SVG Export Plug-In . SVG Version: 6.00 Build 0)  -->
<svg version="1.1" id="Layer_1" xmlns="http://www.w3.org/2000/svg" xmlns:xlink="http://www.w3.org/1999/xlink" x="0px" y="0px"
	 viewBox="0 0 100 100" style="enable-background:new 0 0 100 100;" xml:space="preserve">
<style type="text/css">
	.st0{fill:#FFFFFF;}
</style>
<g>
	<path class="st0" d="M25.6,40.1c-0.1,0.5,0,1,0.2,1.5c0.1,0.2,0.2,0.4,0.2,0.6c0,0.2,0.1,0.4,0.1,0.6c0.1,0.3,0.2,0.5,0.6,0.7
		c0.4,0.2,0.6,0.4,0.7,0.6c0.4,0.4,0.8,0.7,1.2,0.9c0.1,0,0.1,0,0.2,0c0.1,0,0.1,0,0.2,0c0.5,0.4,1.1,0.6,1.8,0.7
		c0.5,0,1,0.1,1.5,0.4c0.2,0.1,0.3,0.2,0.5,0.2c0.2,0,0.4,0.1,0.5,0.1c1,0.2,1.8,0.4,2.4,0.8c0,0.1,0.1,0.1,0.2,0.1
		c0.3,0.1,0.6,0.1,0.9,0.3c0.3,0.1,0.5,0.3,0.8,0.4l0.6,0.3c0.1,0.1,0.2,0.1,0.2,0.2c0,0.1,0.1,0.1,0.2,0.1c0.3,0.1,0.5,0.2,0.6,0.4
		l0.5,0.5c0.3,0.5,0.8,0.9,1.4,1.1c0.2,0.1,0.4,0.2,0.7,0.6c0.1,0.2,0.2,0.3,0.3,0.4c0.1,0.1,0.2,0.3,0.3,0.4
		c0.3,0.4,0.6,0.7,0.9,0.8c0.1,0.1,0.2,0.2,0.4,0.5c0.2,0.6,0.4,1.1,0.6,1.7c0.2,0.5,0.5,1.1,0.8,1.6c0.1,0.1,0.2,0.2,0.2,0.4
		c0,0.1,0,0.3,0.1,0.4c0,0.6,0.1,1.2,0.4,1.7c0.2,0.2,0.2,0.3,0.1,0.5c0,0.2,0,0.4,0,0.6c0,0.2,0.1,0.4,0.1,0.7c0,0.2,0,0.4,0,0.6
		c0,0.2,0,0.3-0.1,0.6c-0.1,0.1-0.1,0.3-0.1,0.5c0.1,0.4,0,0.9,0,1.3c-0.1,0.4-0.2,0.9-0.3,1.3c-0.1,0.1-0.2,0.2-0.2,0.4
		c0,0.2,0,0.3-0.1,0.4c0,0.1,0,0.2-0.1,0.2c-0.1,0.3-0.2,0.6-0.4,1l-0.5,1c-0.1,0.3-0.2,0.5-0.4,0.7c-0.2,0.2-0.3,0.5-0.5,0.7
		c-0.1,0.1-0.2,0.2-0.3,0.4c-0.1,0.1-0.2,0.3-0.3,0.4c-0.1,0.1-0.2,0.2-0.2,0.3c-0.1,0.1-0.1,0.2-0.2,0.4l-0.5,0.6l-1.3,1.2L40.5,73
		c-0.5,0.3-1,0.6-1.5,0.9c-0.5,0.3-1,0.7-1.6,0.9l-2.2,0.9l-0.8,0.2c-0.1,0-0.2,0-0.3,0c-0.1,0-0.2,0-0.3,0l-1.4,0.4h-0.1
		c-0.6-0.1-1.2-0.1-1.8,0c-0.6,0.1-1.2,0.1-1.8,0l-0.6-0.2c-0.2-0.1-0.4-0.2-0.6-0.2c-0.2,0-0.4-0.1-0.6-0.1
		c-0.4-0.1-0.7-0.1-1.1-0.2c-0.3-0.1-0.7-0.2-1.1-0.3c-0.5-0.3-1-0.4-1.4-0.4c-0.7-0.2-1.4-0.5-1.8-1l-0.4-0.3
		c-0.4-0.2-0.8-0.5-1.1-0.8c-0.3-0.3-0.7-0.6-1.1-0.9c-0.3-0.3-0.5-0.4-0.6-0.5c-0.4-0.3-0.6-0.6-0.7-0.9c-0.2-0.3-0.4-0.6-0.7-0.7
		c-0.2-0.1-0.3-0.2-0.3-0.4c-0.1-0.3-0.2-0.6-0.4-0.9l-0.5-0.8c-0.3-0.4-0.4-0.7-0.4-1c0-0.2-0.1-0.3-0.2-0.6
		c-0.1-0.3-0.2-0.6-0.3-0.9c-0.1-0.3-0.2-0.6-0.2-1c0-0.1,0-0.2-0.1-0.3c-0.1-0.1-0.1-0.2-0.1-0.3c-0.1-0.2-0.2-0.4-0.2-0.5
		c-0.2-0.4-0.1-0.7,0.3-0.9c0.3-0.2,0.6-0.2,0.9-0.2c0.3,0,0.5,0,0.7,0c0.2,0,0.4-0.1,0.6-0.1c0.3-0.1,0.5-0.1,0.6-0.1
		c0.4,0,0.6,0,0.8-0.1l1.4-0.2c0.2-0.1,0.6-0.1,1-0.1c0.2,0,0.4,0,0.6,0c0.2,0,0.4-0.1,0.6-0.2h0.1c0.1-0.1,0.1-0.1,0.2-0.1
		c0.5-0.1,0.8,0.1,1,0.5l0.6,1.9c0.1,0.3,0.2,0.5,0.5,0.8l1.7,1.4c0.3,0.3,0.6,0.5,0.9,0.6c0.3,0.1,0.6,0.2,0.9,0.3
		c0.3,0.1,0.6,0.2,0.9,0.2c0.5,0.3,1.1,0.4,1.6,0.3c0.5-0.1,1-0.1,1.6-0.2c0.6-0.1,1.2-0.3,1.8-0.7l0.9-0.5l0.5-0.5l0.4-0.6
		c0.4-0.6,0.7-1.2,0.9-1.8c0.1-0.4,0.2-0.7,0.2-1.1c0-0.3,0-0.7,0.1-1.1l-0.7-2c-0.1-0.1-0.2-0.3-0.4-0.5c-0.4-0.2-0.6-0.5-0.8-1
		c-0.2-0.2-0.3-0.4-0.5-0.6c-0.2-0.2-0.4-0.3-0.6-0.5c-0.3-0.2-0.6-0.2-0.9-0.2c-0.2,0-0.3-0.1-0.6-0.2c-0.4-0.2-0.8-0.4-1.2-0.4
		c-0.4-0.1-0.8-0.2-1.2-0.4c-0.1-0.1-0.2-0.1-0.4-0.1l-0.7-0.2c-0.3-0.2-0.7-0.4-1-0.5l-1.1-0.3l-1-0.3c-0.3-0.1-0.6-0.2-0.9-0.4
		l-1-0.6l-1.3-0.9l-1.4-1l-0.6-0.6c-0.2-0.3-0.4-0.5-0.7-0.8c-0.2-0.3-0.5-0.6-0.8-0.8c-0.2-0.1-0.3-0.3-0.3-0.5
		c-0.1-0.3-0.2-0.6-0.4-0.8c-0.2-0.2-0.3-0.5-0.4-0.8l-0.3-0.9c-0.1-0.3-0.2-0.5-0.5-0.8c-0.2-0.2-0.3-0.5-0.3-0.9
		c-0.1-0.3-0.1-0.6-0.1-0.9s-0.1-0.6-0.2-0.9c0.1-0.3,0.1-0.6,0-0.9c-0.1-0.3-0.1-0.6-0.2-0.9c0-0.3,0-0.6,0.1-0.9
		c0.1-0.3,0.1-0.6,0.2-0.9c0-0.1,0-0.1,0-0.2c0-0.1,0-0.1,0-0.2c-0.1-0.5,0-0.9,0.2-1.4c0.2-0.5,0.4-0.9,0.5-1.3
		c0-0.1,0-0.2,0.1-0.3c0.1-0.1,0.1-0.2,0.2-0.3l1.3-2.2l0.3-0.4c0.4-0.3,0.6-0.6,0.8-1c0.2-0.2,0.4-0.5,0.7-0.7l0.3-0.2
		c0.5-0.6,1.2-1.2,2-1.6l1.6-1c0.3-0.2,0.6-0.2,1-0.2c0.3-0.2,0.5-0.3,0.8-0.4c0.3,0,0.6-0.1,0.9-0.2c0.6-0.2,1.3-0.3,2.1-0.3
		c0.4-0.1,0.8-0.1,1.2-0.1c0.4,0,0.7,0,1.1,0c0.3,0.1,0.6,0.1,0.9,0.2c0.3,0.1,0.6,0.1,0.8,0.2c0.2,0,0.3,0.1,0.6,0.2
		c0.4,0,0.8,0.1,1.2,0.2c0.3,0.1,0.7,0.3,1,0.4c0.3,0.1,0.7,0.2,1.2,0.3c0.3,0,0.6,0.1,1,0.3l0.7,0.5c0.5,0.2,1,0.6,1.4,1l0.3,0.3
		c0.3,0.3,0.5,0.5,0.8,0.7c0.3,0.2,0.5,0.4,0.8,0.7c0.2,0.2,0.4,0.5,0.6,0.8c0.1,0.3,0.2,0.5,0.6,0.7c0.3,0.2,0.5,0.5,0.6,0.8
		c0.1,0.3,0.1,0.5-0.1,0.7c-0.2,0.2-0.3,0.3-0.5,0.4c-0.2,0.1-0.4,0.3-0.6,0.4c-0.2,0.1-0.4,0.1-0.6,0.3c-0.2,0.1-0.4,0.3-0.6,0.4
		c-0.2,0.2-0.3,0.2-0.3,0.2c-0.3,0.1-0.5,0.2-0.7,0.3c-0.2,0.1-0.4,0.2-0.6,0.3c-0.4,0.2-0.9,0.4-1.3,0.7c-0.5,0.2-0.9,0.5-1.3,0.8
		c-0.5,0.3-0.9,0.3-1.3,0c-0.3-0.2-0.6-0.4-0.9-0.6c-0.1-0.1-0.3-0.2-0.5-0.4c-0.4-0.5-0.9-0.7-1.4-0.8l-0.6-0.2l-1.2-0.4
		c-0.3-0.1-0.6-0.1-1-0.1c-0.3,0.1-0.6,0.1-0.9,0.2l-1.2,0.2c-0.2,0-0.4,0.1-0.6,0.2c-0.2,0.2-0.5,0.4-0.9,0.6
		c-0.3,0.2-0.6,0.5-0.7,0.9c-0.1,0.2-0.2,0.3-0.2,0.4c-0.1,0.1-0.1,0.3-0.2,0.4c-0.2,0.3-0.3,0.6-0.3,1
		C25.6,39.8,25.6,39.9,25.6,40.1z M17.3,64.5c0,0.2,0.1,0.3,0.3,0.3c0.1-0.1,0.2-0.2,0.2-0.3l-0.2-0.2L17.3,64.5z M19.2,40.8
		c0.1,0,0.2-0.1,0.3-0.2c0.1-0.1,0.1-0.1,0.1-0.2l-0.1-0.2l-0.2,0.1c-0.1,0.1-0.1,0.2-0.2,0.2C19.1,40.6,19.1,40.7,19.2,40.8z
		 M19.5,39.4l-0.2-0.2h-0.1c0,0.1,0,0.2,0.1,0.2H19.5z M19.3,42.2c0.1,0,0.2,0,0.2,0c0,0,0.1,0,0.2,0c0.1-0.1,0-0.3-0.2-0.7
		L19.3,42.2z M19.5,43.1c0,0.2,0,0.3,0,0.5c0,0.2,0,0.3,0,0.4c0,0.1,0,0.2,0.1,0.2c0.3,0.2,0.6,0.3,0.7,0.2v-0.2
		c-0.3-0.2-0.5-0.4-0.5-0.8l-0.1-0.1C19.6,43.3,19.6,43.2,19.5,43.1z M19.5,36.3v0.2V36.3L19.5,36.3z M19.5,65.7
		c0.1,0.3,0.1,0.4,0.2,0.4l0.2-0.2l-0.1-0.2C19.7,65.6,19.7,65.6,19.5,65.7L19.5,65.7z M19.8,37.2l-0.2,0.1l0.1,0.1L19.8,37.2
		L19.8,37.2z M20.4,41.3c-0.1-0.1-0.2-0.1-0.2-0.1c-0.2,0-0.2,0.1-0.1,0.2l0.2,0.1L20.4,41.3z M20.2,36.7c-0.1-0.1-0.1-0.1-0.2-0.1
		v0.2C20.1,36.7,20.2,36.7,20.2,36.7z M20.2,67.6c-0.1,0.1-0.1,0.1-0.1,0.2c0,0.1,0.1,0.2,0.2,0.2l0.1-0.1
		C20.5,67.7,20.4,67.6,20.2,67.6z M20.4,66.8L20.4,66.8L20.4,66.8L20.4,66.8z M20.4,42.8c0.2,0.2,0.4,0.1,0.5-0.1l0.2-0.2l-0.3-0.2
		L20.4,42.8z M20.5,69.5l-0.2,0.2h0.1L20.5,69.5L20.5,69.5z M20.9,39.8c-0.1-0.1-0.1-0.1-0.1-0.2c-0.1,0-0.1,0-0.2,0.1l0.1,0.1H20.9
		z M21.1,47c0.2-0.3,0.2-0.5,0-0.6c-0.3,0.1-0.5,0.2-0.5,0.3C20.6,46.9,20.8,47,21.1,47L21.1,47z M20.8,67.7c0.1,0,0.2,0,0.2-0.1
		l-0.1-0.1L20.8,67.7z M20.9,45.1l0.3,0.7c0.1-0.1,0.1-0.2,0.2-0.3c0.1-0.1,0.1-0.2,0.2-0.3c0.2-0.2,0.2-0.3,0-0.6h-0.2
		c-0.2,0-0.2,0.1-0.1,0.2c0.1,0,0.1,0.1,0.1,0.2H20.9z M21.3,37.4v0.2V37.4L21.3,37.4z M22,46.8c-0.1-0.1-0.2,0-0.2,0.1
		c0,0.1-0.1,0.2-0.2,0.1c0,0.2-0.1,0.4-0.2,0.6l0.1,0.1c0.1,0,0.2-0.1,0.2-0.2c0.1-0.1,0.2-0.2,0.2-0.2l0.2-0.2c0-0.1,0-0.2,0-0.2
		C22,46.9,22,46.8,22,46.8z M21.7,46.5c0.1-0.1,0.1-0.1,0.2-0.1v-0.2l-0.2-0.1l-0.1,0.1C21.5,46.3,21.6,46.4,21.7,46.5z M21.8,43
		c-0.2,0.2-0.2,0.3,0,0.5c0.1-0.1,0.1-0.1,0.1-0.2c0-0.1,0.1-0.1,0.2-0.2L21.8,43z M21.8,69.7c0.1,0.1,0.2,0.1,0.2,0.1
		c0.1,0,0.1,0,0.2,0.1c0,0.1,0,0.1,0,0.2c0,0.1,0,0.1,0,0.2l0.2,0.1l0.2-0.2c0.1-0.1,0-0.2-0.2-0.3c-0.1-0.1-0.2-0.2-0.3-0.2
		c-0.1,0-0.2-0.1-0.3-0.2c-0.1,0.1-0.1,0.1-0.1,0.2C21.8,69.5,21.8,69.6,21.8,69.7z M22.4,48.2c0.1-0.1,0.1-0.1,0.1-0.2l-0.1-0.2
		h-0.1L22.4,48.2L22.4,48.2z M22.5,44.2l0.1,0.2c0.1,0,0.1,0,0.2-0.1L22.5,44.2z M23.4,48.9l-0.2-0.7L23,48.7
		c-0.1,0.1-0.1,0.2-0.2,0.2c-0.1,0-0.1,0.1,0,0.3L23.4,48.9z M23,34.4L23,34.4c-0.1-0.1-0.2,0-0.2,0.1c0,0.1,0,0.1,0.1,0.2l0.1-0.1
		c0.1,0,0.1-0.1,0.2-0.2H23z M23,42.1L23,42.1L22.8,42L23,42.1L23,42.1z M23.1,46.1C23.1,46,23,46,22.9,46l-0.1,0.2H23
		C23,46.1,23.1,46.1,23.1,46.1z M23.4,42.8c-0.1,0-0.2,0-0.3,0c-0.1,0-0.2,0-0.3,0.1C23,43,23.2,43,23.4,42.8z M23.1,71.9
		c0.1-0.1,0.2-0.1,0.2-0.2c0-0.1,0.1-0.1,0.1-0.2l-0.3-0.2l-0.2,0.3L23.1,71.9z M23.6,70.1c-0.2,0.1-0.4,0.2-0.6,0.4
		C23.2,70.5,23.4,70.4,23.6,70.1z M23.4,43.8L23.4,43.8h-0.2l0.1,0.2L23.4,43.8z M23.4,38.8l-0.2-0.1l-0.1,0.2l0.1,0.1
		C23.4,38.9,23.4,38.9,23.4,38.8z M24.2,71.4c0.2,0.1,0.3,0.1,0.6,0.1c0.2,0,0.3,0,0.4-0.1c-0.1-0.2-0.2-0.4-0.2-0.6l-0.2-0.5
		c-0.2,0-0.3,0-0.5,0c-0.2,0-0.3,0-0.5,0l-0.2,0.4l0.5,0.3L24.2,71.4z M23.9,33.9l-0.2-0.2l-0.1,0.1L23.9,33.9L23.9,33.9z
		 M24.2,71.4H24c-0.3,0.2-0.3,0.4-0.2,0.6c0.1,0.1,0.1,0.2,0.2,0.2c0.1,0.1,0.1,0.2,0.1,0.2c0,0.2,0.1,0.2,0.3,0.1
		c0-0.2-0.1-0.4-0.2-0.6C24.1,71.8,24.1,71.6,24.2,71.4z M23.8,49.7c0,0.1,0,0.1,0.1,0.2l0.1-0.1L23.8,49.7z M23.9,69.4L23.9,69.4
		v0.2V69.4L23.9,69.4z M24,47.9c-0.1,0.2-0.1,0.4-0.1,0.5l0.2,0.3c0.2,0.2,0.3,0.2,0.3,0l-0.1-0.2c-0.1-0.1-0.1-0.1-0.1-0.2L24,47.9
		z M24.3,46.1c0-0.1-0.1-0.2-0.2-0.2c-0.2,0-0.2,0.1-0.2,0.2c0,0.1,0,0.1,0.1,0.2C24.2,46.5,24.3,46.4,24.3,46.1z M24,47.4
		c0,0.1,0,0.1,0.1,0.2l0.2-0.1L24,47.4L24,47.4z M24.4,70.8c0-0.1,0-0.1-0.1-0.2c0.1-0.1,0.1-0.1,0.2-0.1l0.1,0.1L24.4,70.8z
		 M24.9,50.7c0-0.3,0-0.5,0.1-0.7l-0.4,0.4L24.9,50.7z M24.7,31.2c0.1-0.1,0.1-0.1,0.1-0.2c0-0.2-0.1-0.2-0.2-0.2V31
		C24.7,31,24.7,31.1,24.7,31.2z M24.6,69c0.1,0.1,0.1,0.1,0.2,0H24.6L24.6,69z M24.8,49.3c0.1-0.1,0.1-0.1,0.2-0.1l-0.1-0.1
		L24.8,49.3L24.8,49.3z M25.3,47.7c-0.2,0-0.2,0-0.2,0.1l0.1,0.1L25.3,47.7z M25.3,72.2L25.3,72.2H25l0.1,0.1L25.3,72.2z M25.2,33.6
		c0.1-0.1,0.2-0.2,0.2-0.2l-0.2-0.1V33.6L25.2,33.6z M25.5,70.9c-0.2-0.2-0.3-0.2-0.3-0.1c0,0.1,0,0.1,0.1,0.2L25.5,70.9z
		 M25.3,72.8L25.3,72.8L25.3,72.8L25.3,72.8z M25.5,46.6l-0.2-0.1h-0.1v0.1H25.5z M25.5,71.7c-0.1,0.1-0.1,0.1-0.1,0.2
		s0.1,0.1,0.2,0.1l0.1-0.1L25.5,71.7z M25.9,49.6c0-0.1,0-0.1,0.1-0.2c0.1-0.1,0.1-0.1,0-0.2h-0.2l-0.2,0.2L25.9,49.6z M25.8,49.6
		c-0.1,0-0.2,0.1-0.2,0.2c0,0.1,0,0.2,0,0.2c0,0,0,0.1,0,0.2c0.2,0,0.3-0.1,0.2-0.3L25.8,49.6z M26.1,51.1c0.1-0.2,0.1-0.3,0-0.3
		c0,0-0.2,0-0.4,0L26.1,51.1z M26.3,47c-0.3-0.2-0.4-0.1-0.5,0.2L26.3,47z M25.8,70.5L25.8,70.5L25.8,70.5L25.8,70.5z M25.8,72.2
		L25.8,72.2H26H25.8z M26.2,72.6L26.2,72.6l-0.3-0.1l-0.1,0.1H26.2z M26.4,48.7c-0.1,0.1-0.1,0.1-0.2,0.1V49h0.2V48.7z M26.6,49.9
		l-0.2,0.2c0,0.1,0.1,0.2,0.2,0.2c0.1,0.1,0.2,0.1,0.2-0.1l-0.1-0.1C26.6,50.1,26.6,50,26.6,49.9z M27.4,51.2c-0.2,0-0.3,0-0.4,0.1
		c-0.1-0.1-0.1-0.2-0.1-0.3c0.1-0.1,0-0.1-0.2-0.2c-0.2,0.2-0.3,0.4-0.3,0.6l0.9,0.3c0-0.1,0-0.2,0.1-0.3
		C27.5,51.4,27.5,51.3,27.4,51.2z M26.7,70.8L26.7,70.8l-0.2,0.1L26.7,70.8L26.7,70.8z M26.8,31.9l0.2-0.2c0.1-0.1,0.1-0.2-0.2-0.2
		l-0.2,0.1C26.7,31.8,26.8,31.8,26.8,31.9z M26.9,49.7c0.1,0,0.1-0.1,0.1-0.2h-0.2L26.9,49.7z M27.4,32.6c-0.1,0-0.2,0.1-0.2,0.2
		v0.2c0.2,0.1,0.3,0.1,0.5-0.2L27.4,32.6z M27.3,49.8L27.3,49.8c-0.1,0.1-0.1,0.2,0,0.2V49.8L27.3,49.8z M27.3,72.1L27.3,72.1
		L27.3,72.1L27.3,72.1z M28,73.2c0.2,0,0.3,0,0.3-0.1l-0.4-0.6c0,0.1,0,0.2,0,0.3C28,73,28,73.1,28,73.2z M28,32.3
		c0,0.2,0,0.3,0.1,0.3h0.2v-0.1C28.2,32.4,28.2,32.3,28,32.3z M28.2,32L28.2,32l0.2,0.1L28.2,32z M29,33.3l0.1-0.2h-0.2
		c-0.1,0-0.1,0.1-0.2,0.2H29z M29,30.8l0.3,0.2c0.1,0.1,0.2,0.1,0.3,0.2c-0.2-0.3-0.3-0.5-0.4-0.6v-0.2l-0.2-0.1
		C29.1,30.4,29.1,30.6,29,30.8z M29.2,29.9c0.1,0.1,0.1,0.1,0.2,0.1c0.1,0,0.1-0.1,0.1-0.2L29.2,29.9L29.2,29.9z M29.4,72.6
		c-0.1,0-0.1-0.1-0.1-0.2c-0.1,0.1-0.1,0.2-0.1,0.4C29.5,72.9,29.5,72.8,29.4,72.6z M29.3,51.4L29.3,51.4L29.3,51.4L29.3,51.4z
		 M29.9,72.6c0-0.1,0.1-0.1,0.2-0.1c0.1,0,0.1-0.1,0-0.1c-0.2,0-0.4,0-0.8,0L29.9,72.6z M29.5,31.4L29.5,31.4l0.2,0.1L29.5,31.4z
		 M29.5,31.9h0.2H29.5L29.5,31.9z M29.7,52.4l0.2,0.1v-0.1H29.7z M30.4,31.3L30.4,31.3L30.4,31.3L30.4,31.3z M30.6,30.8l0.1-0.2
		h-0.2L30.6,30.8L30.6,30.8z M31,70.6c-0.1-0.1-0.1-0.1-0.2-0.1v0.1l0.1,0.2L31,70.6z M31.9,71c0,0.1,0,0.1-0.1,0.2v0.1h0.1V71z
		 M32.2,72.6L32.2,72.6L32.2,72.6L32.2,72.6z M32.6,71L32.6,71l0.2,0.2l0.1-0.1L32.6,71z M32.6,72.9L32.6,72.9L32.6,72.9L32.6,72.9z
		 M33,73.5L33,73.5l-0.2,0.1v0.2L33,73.5z M33.1,72.1c0.3,0.2,0.5,0.2,0.8,0l-0.2-0.3c0-0.1,0-0.1,0.1-0.2c0.1-0.1,0-0.1-0.1-0.2
		c-0.3,0.2-0.4,0.3-0.4,0.4c0.1,0.1,0,0.2-0.1,0.2L33.1,72.1c0.1-0.1,0-0.2-0.1-0.2L33,72C33,72.2,33,72.2,33.1,72.1z M33.4,33.1
		c-0.1,0.1-0.2,0.2-0.2,0.2l0.2,0.1l0.1-0.1C33.5,33.3,33.5,33.2,33.4,33.1z M33.4,73.6c0-0.1,0.1-0.2,0.2-0.3l-0.1-0.1
		c-0.1-0.1-0.1-0.1-0.2,0c-0.1,0.1-0.1,0.1-0.1,0.2C33.3,73.3,33.3,73.4,33.4,73.6z M33.4,52.5c0.1,0.1,0.2,0.2,0.2,0.2
		c0.1,0,0.1,0,0.2-0.1c0-0.1,0-0.2,0-0.4c0-0.1,0-0.3,0-0.4c0-0.1-0.1-0.3-0.2-0.5L33.4,52.5z M33.8,69.9c-0.1,0.1-0.1,0.1-0.1,0.2
		c-0.1,0.1,0,0.1,0.1,0.2c0-0.1,0.1-0.1,0.2-0.2L33.8,69.9z M34.5,73h-0.2c0-0.1-0.1,0-0.2,0.1C34.3,73.1,34.4,73.1,34.5,73z
		 M34.5,72.3L34.5,72.3L34.5,72.3L34.5,72.3z M34.6,73.1L34.5,73v0.2h0.2V73.1z M34.6,33.2c0,0.3,0,0.4,0.1,0.5l0.1,0.2l0.2-0.2
		L34.6,33.2z M35.1,50L35.1,50L35,49.9L35.1,50L35.1,50z M35.1,30c-0.1,0.1-0.1,0.2,0,0.2V30z M35.1,71.8c0.1,0,0.2,0,0.2-0.1v-0.1
		L35.1,71.8z M35.8,70.8c0.1,0,0.1-0.1,0.1-0.4c0-0.2-0.1-0.3-0.4-0.2l-0.2,0.1c-0.1,0.2-0.1,0.3,0,0.4c0.1,0.2,0.2,0.3,0.3,0.3
		L35.8,70.8z M35.3,70.3c0,0.2,0.1,0.3,0.2,0.3c0.1,0,0.2,0.1,0.3,0.2C35.7,70.5,35.5,70.3,35.3,70.3z M35.3,72.6
		c0.1,0,0.1,0,0.2-0.1l-0.1-0.1L35.3,72.6L35.3,72.6z M35.8,32.9c0.2,0,0.2-0.1,0.2-0.2h0.1c0.1,0.1,0.1,0.1,0.2,0.1v-0.1
		c0-0.1-0.1-0.2-0.2-0.2L36,32.6L35.8,32.9z M35.9,72.7l-0.1-0.2l-0.1,0.1L35.9,72.7L35.9,72.7z M36,72.2l0.1-0.2l-0.2-0.1L36,72.2z
		 M36,31c0.1,0,0.1-0.1,0.2-0.2H36V31z M36.3,33.6c-0.2,0.2-0.2,0.3,0,0.5c0.1,0.2,0,0.3-0.2,0.4l0.6,0.7c0.1-0.1,0.1-0.2,0.2-0.4
		c0.1-0.1,0.1-0.3,0-0.4c-0.4-0.1-0.5-0.3-0.5-0.6C36.5,33.6,36.5,33.6,36.3,33.6z M36.4,53.7c0.2-0.2,0.2-0.3,0.2-0.3
		c0,0-0.1-0.1-0.3-0.2C36.2,53.4,36.2,53.6,36.4,53.7z M36.6,71.4L36.6,71.4v0.2V71.4z M36.7,69.8c0.1,0.1,0.2,0.2,0.2,0.2l0.1-0.2
		H36.7z M37,33.6c-0.1,0-0.1,0-0.2-0.1l-0.1,0.1l0.2,0.2C37,33.8,37,33.7,37,33.6z M36.8,35.6c0.1,0.1,0.1,0.1,0.2,0.1L36.8,35.6
		L36.8,35.6z M37,53.2L37,53.2L37,53.2L37,53.2z M37.4,54.4c-0.1-0.1-0.1-0.1-0.2-0.1L37.4,54.4L37.4,54.4z M37.4,32.5L37.4,32.5
		c-0.2,0.5-0.1,0.6,0.2,0.6l0.1-0.1C37.9,32.8,37.8,32.6,37.4,32.5z M37.5,31.6L37.5,31.6L37.5,31.6L37.5,31.6z M37.6,71.8
		c0.1-0.1,0.2-0.2,0.2-0.2l-0.2,0.1C37.6,71.7,37.6,71.8,37.6,71.8z M38,68.8L38,68.8c-0.1-0.1-0.2-0.1-0.3,0V69L38,68.8z
		 M37.8,56.6c0.1,0,0.1,0,0.2-0.1v-0.2l-0.2,0.1V56.6z M37.8,56c0.2,0.1,0.4,0.1,0.6-0.1c-0.1,0-0.2,0-0.3,0C38,56,38,56,37.8,56z
		 M38.6,67.6c-0.2,0.1-0.3,0.2-0.4,0.2c-0.1,0.1-0.2,0.1-0.3,0.2c0.3,0.2,0.5,0.3,0.6,0.2c0.2-0.1,0.2-0.1,0.2-0.3
		C38.7,67.9,38.6,67.8,38.6,67.6z M38.2,69.6L38.2,69.6L38,69.5L38.2,69.6z M38.5,32.4c-0.1,0.1-0.2,0.1-0.2,0.2
		c0,0.1-0.1,0.2-0.2,0.3h0.4V32.4z M38.5,58.2c-0.1,0.1-0.1,0.1-0.1,0.2c-0.1,0.1-0.1,0.2,0.1,0.3h0.2
		C38.8,58.4,38.7,58.3,38.5,58.2L38.5,58.2z M38.5,32.4c0.4,0.3,0.7,0.2,0.9-0.2c0-0.3-0.1-0.3-0.3-0.2L38.5,32.4z M38.7,57.3
		c-0.1,0.1-0.1,0.1-0.1,0.2c0,0.1,0,0.1-0.1,0.2C38.8,57.6,38.9,57.4,38.7,57.3z M38.8,34.4l-0.2,0.3h0.2V34.4z M39.1,59.1
		C39,59,38.9,59,38.8,59v0.1C38.9,59.1,39,59.1,39.1,59.1L39.1,59.1z M38.9,59.8c0,0.3,0.1,0.5,0.3,0.5c0.2,0,0.3-0.1,0.5-0.3
		C39.4,60,39.2,59.9,38.9,59.8z M39,66L39,66L39,66L39,66z M38.9,67.6c0.1,0,0.1,0,0.2,0c0.1,0,0.1,0,0.2,0
		c-0.1-0.1-0.2-0.1-0.3-0.1V67.6z M39.1,70.3L39.1,70.3h-0.2l0.1,0.1C39,70.4,39.1,70.4,39.1,70.3z M39,61.4
		c-0.2,0.2-0.1,0.4,0.1,0.6h0.2c0.1-0.1,0.2-0.2,0.2-0.2C39.3,61.5,39.2,61.4,39,61.4z M40,68.7c-0.1-0.1-0.2-0.2-0.3-0.2l-0.3-0.3
		L39,68.7c0.3,0,0.4,0.1,0.5,0.3c0.1,0.2,0.3,0.3,0.5,0.2c-0.2-0.1-0.3-0.2-0.2-0.3C39.9,68.9,40,68.8,40,68.7z M39.3,53
		c0,0.1,0.1,0.1,0.2,0.1c-0.1-0.2-0.2-0.4-0.3-0.6L39.3,53z M39.1,59.1c0,0.1,0,0.2,0.1,0.2l0.2-0.1L39.1,59.1L39.1,59.1z
		 M39.8,64.6c0.1-0.1,0.1-0.1,0-0.2c-0.1,0.1-0.2,0.2-0.3,0.2c-0.1,0.1-0.2,0.2-0.2,0.4c0.2,0,0.3,0,0.3-0.1l-0.1,0.2v0.2
		c0.1,0.1,0.2,0.2,0.4,0.2c0-0.1,0-0.2,0-0.2c0,0,0-0.1,0-0.2c-0.1-0.2-0.2-0.2-0.4-0.1L39.8,64.6z M39.6,56.1L39.6,56.1l-0.2-0.1
		c-0.2,0.2-0.2,0.4,0,0.6L39.6,56.1z M39.6,33.9L39.6,33.9L39.6,33.9L39.6,33.9z M40.1,61.4L40.1,61.4l0.1-0.2L40.1,61.4z
		 M40.2,32.8c0,0.3,0.1,0.4,0.4,0.3C40.5,33,40.3,32.8,40.2,32.8z M40.5,61.7l-0.2-0.1l-0.1,0.1l0.1,0.1
		C40.4,61.8,40.4,61.7,40.5,61.7z M40.4,33.8c0.2,0,0.2,0,0.2-0.1v-0.2L40.4,33.8z M40.4,59.1c0.1-0.1,0.1-0.1,0.2-0.1l-0.1-0.2
		L40.4,59V59.1z M41.1,66C41,66.2,41,66.3,41,66.4c0,0.1,0,0.1-0.1,0.2l-0.3,0.2c0.1,0.2,0.1,0.3,0.3,0.4c0.1,0,0.3,0.1,0.4,0.1
		c0.1-0.2,0.1-0.4,0.1-0.6C41.3,66.5,41.2,66.3,41.1,66z M41,65.2L41,65.2h-0.2H41L41,65.2z M41.3,60.3l-0.2-0.1
		c-0.2-0.1-0.2,0-0.2,0.2l0.1,0.1C41.1,60.6,41.2,60.5,41.3,60.3z M41,56.5c0.3-0.1,0.4-0.3,0.2-0.6c0,0.2,0,0.3-0.1,0.4
		C41.2,56.4,41.2,56.4,41,56.5z M41.1,57.6L41.1,57.6c0.1,0,0.1-0.1,0.2-0.2l-0.1-0.1L41.1,57.6z M41.9,66.4L41.9,66.4l-0.2-0.6
		l-0.2,0.4C41.7,66.2,41.8,66.3,41.9,66.4z M41.9,64.3c-0.1-0.1-0.1-0.1-0.2-0.1h-0.1l0.1,0.1H41.9z M42.3,57.6c0,0.2,0,0.4,0.1,0.5
		c0.1,0.1,0.1,0.2,0.1,0.3s0.1,0.2,0.2,0.2c0-0.1,0-0.2,0-0.2c0-0.1,0-0.1,0-0.2c-0.1-0.1-0.2-0.2-0.3-0.3
		C42.5,57.8,42.4,57.7,42.3,57.6z M42.5,65.4L42.5,65.4L42.5,65.4L42.5,65.4z M42.9,65L42.9,65c-0.1,0-0.2,0-0.2,0.1v0.1L42.9,65z
		 M43.1,62.8c0.1-0.3,0.2-0.5,0.2-0.6c-0.1-0.1-0.2-0.1-0.2,0c-0.1,0.1-0.1,0.2-0.2,0.3L43.1,62.8z M43.2,60.4L43.2,60.4h-0.2H43.2
		L43.2,60.4z"/>
	<path class="st0" d="M50.6,59.2h0.6c0.3-0.1,0.5-0.1,0.8-0.1c0.2,0,0.5,0,0.8,0h0.8c0.3,0,0.6,0,0.9,0.1c0.1,0.1,0.2,0.1,0.3,0
		c0.1-0.1,0.2-0.1,0.3-0.1h1c0.5,0,0.8,0.2,1,0.7l0.2,0.9V61c0.1,0.3,0.2,0.5,0.2,0.7c0.1,0.2,0.1,0.5,0.2,0.7
		c0.2,0.5,0.4,1,0.6,1.3c0.1,0.1,0.2,0.3,0.3,0.5c0.1,0.2,0.2,0.4,0.4,0.6c0.2,0.2,0.3,0.3,0.5,0.6c0.2,0.2,0.4,0.3,0.6,0.4
		c0.4,0.2,0.7,0.4,0.9,0.6c0.1,0.1,0.2,0.2,0.3,0.2c0.1,0.1,0.2,0.1,0.3,0.2l1.9,0.7c0.1,0.1,0.2,0.1,0.4,0.1c0.2,0,0.4,0,0.6,0
		c0.2,0,0.4,0,0.6,0c0.4,0.1,0.7,0.1,1-0.1c0.2-0.2,0.4-0.2,0.6-0.1c0.4,0,0.8-0.1,1.2-0.2c0.2-0.1,0.4-0.2,0.6-0.2
		c0.2,0,0.4-0.1,0.5-0.2c0.2-0.1,0.4-0.2,0.6-0.4l0.3-0.2c0.1-0.1,0.2-0.1,0.3-0.2l0.3-0.2c0.3-0.3,0.5-0.5,0.8-0.7
		c0.2-0.2,0.4-0.4,0.6-0.7c0.3-0.4,0.5-0.7,0.7-1c0.2-0.3,0.4-0.7,0.5-1.1c0-0.1,0.1-0.3,0.2-0.6c0.2-0.4,0.2-0.8,0.2-1.2
		c0-0.3,0-0.5,0.1-0.6c0.1-0.2,0.2-0.5,0.2-0.9c0-0.3,0-0.5,0-0.7c0-0.2,0-0.4,0-0.6c0-0.2-0.1-0.4-0.2-0.7c-0.1-0.4-0.1-0.6,0-0.8
		c0.1-0.1,0.1-0.2,0.1-0.4v-2.1c0-0.1,0-0.2,0-0.2c0,0,0-0.1,0-0.2c0-0.1,0-0.2,0-0.3c0-0.1,0-0.2,0-0.3c0.1-0.3,0.1-0.6,0.1-1.1
		v-1.7c-0.2-0.4-0.2-0.7,0-1.1c0.1-0.1,0.1-0.1,0-0.2c0-0.1,0-0.2,0-0.3v-1.4c0.1-0.2,0-0.4,0-0.6c-0.1-0.2-0.1-0.4-0.1-0.6
		c0-0.2,0-0.4,0.1-0.6c0.1-0.2,0.1-0.4,0-0.6v-1.3c0.1-0.2,0-0.4,0-0.6c-0.1-0.2-0.1-0.3-0.1-0.6c0-0.2,0-0.4,0.1-0.6
		c0.1-0.2,0.1-0.3,0-0.5c0-0.3,0-0.5,0-0.8c0-0.2,0-0.5,0-0.8c-0.1-0.7-0.1-1.4,0-2c0.1-0.3,0.1-0.5,0-0.8c0-0.3,0-0.5,0-0.8
		c0-0.2,0-0.4-0.1-0.6c-0.1-0.2-0.1-0.3-0.1-0.5c0-0.2,0-0.3,0.1-0.5c0.1-0.2,0.1-0.3,0-0.5v-1.6c0-0.2,0-0.4-0.1-0.6
		c-0.1-0.2-0.1-0.3-0.1-0.5c0-0.2,0-0.4,0.1-0.6c0.1-0.2,0.1-0.3,0.1-0.5v-1.4c0-0.4,0-0.7-0.1-0.9c-0.2-0.6,0.1-1,0.6-1.2
		c0.1,0,0.2,0,0.2,0c0.1,0,0.1,0,0.2,0c0.4,0.1,0.7,0.1,1,0c0.3-0.1,0.6,0,1,0.1h0.3c0.4,0,0.9,0,1.3,0c0.5,0,0.9,0,1.3,0h0.3
		c0.3,0.1,0.7,0.1,1.1,0h0.9c0.1,0,0.3,0.1,0.6,0.2c0.2,0.1,0.2,0.3,0.2,0.5c0.1,0.3,0.1,0.6,0.1,0.9v0.9c0.1,0,0.1,0.1,0,0.2
		c-0.1,0.3-0.1,0.7-0.1,1c0,0.3,0,0.7,0,1.1c0,0.2,0,0.3,0,0.5c0,0.2,0,0.3,0,0.5v1C83,33.4,83,33.5,83,33.6v1.1c0,0.3,0,0.6,0.1,1
		c0,0.2,0,0.4,0,0.6c0,0.2,0,0.4,0,0.6C83,37.1,83,37.4,83,37.6c0.1,0.2,0.1,0.4,0,0.6c0,0.2,0,0.4,0,0.6c0,0.1,0,0.2,0,0.3
		c0,0.1,0,0.2,0,0.3c0.1,0.4,0.1,0.7,0,1C83,40.6,83,40.7,83,40.9V42c0,0.3,0,0.6,0.1,1c0,0.2,0,0.4,0,0.6c0,0.2,0,0.4,0,0.6
		C83,44.2,83,44.4,83,44.7c0,0.4,0,0.7,0,1.1c0,0.3,0,0.7,0,1.1c0.1,0.1,0.1,0.2,0,0.4c0,0.1,0,0.3,0,0.4C83,47.7,83,47.9,83,48.1
		c0,0.2,0,0.4,0,0.5v0.6c0.1,0.2,0.1,0.3,0.1,0.6v1.4C83,51.6,83,51.8,83,51.9c0.1,0.4,0.1,0.7,0,1.1c-0.1,0.4-0.1,0.7,0,1.1
		c0.1,0.1,0.1,0.2,0,0.3c0,0.1,0,0.2,0,0.3C83,54.9,83,55.1,83,55.3c0,0.2,0,0.4,0,0.5c0.1,0.1,0.1,0.2,0,0.3c0,0.1,0,0.2,0,0.3
		c0,0.3,0,0.6,0.1,0.8c0.1,0.4,0.1,0.9-0.1,1.3v0.6c0,0.4,0,0.7-0.1,1v0.2c0.1,0.3,0.1,0.5,0,0.7c-0.1,0.2-0.1,0.4-0.2,0.7
		c-0.1,0.2-0.1,0.4-0.2,0.6c-0.1,0.2,0,0.3,0.1,0.6c0,0.2-0.1,0.3-0.2,0.6c-0.2,0.2-0.3,0.6-0.4,1.1l-0.3,1.1
		c-0.1,0.4-0.2,0.7-0.4,1c-0.2,0.3-0.3,0.6-0.4,0.9c-0.1,0.3-0.3,0.6-0.6,0.9l-1,1.4c0,0.1,0,0.2-0.1,0.2c-0.3,0.3-0.6,0.7-0.9,1
		s-0.6,0.7-1,1c-0.1,0.1-0.3,0.2-0.5,0.4c-0.3,0.4-0.7,0.7-1.2,1l-1,0.8c-0.1,0.1-0.2,0.1-0.3,0.2c-0.1,0.1-0.2,0.1-0.3,0.2
		c-0.2,0.1-0.3,0.2-0.5,0.2c-0.2,0.1-0.3,0.2-0.4,0.3l-0.2,0.2L71,75.8l-1.1,0.5c-0.3,0.1-0.5,0.2-0.6,0.2c-0.3,0-0.5,0-0.8,0.1
		c-0.3,0.1-0.5,0.1-0.8,0.1c-0.4,0.1-0.7,0.1-1.1,0.2c-0.3,0.1-0.7,0-1.1-0.1c-0.3,0-0.5,0-0.6,0.1c-0.3,0.1-0.7,0-1.2-0.1l-0.2-0.1
		c-0.4,0-0.8-0.1-1.2-0.2c-0.4-0.1-0.8-0.2-1.2-0.3c-0.4-0.1-0.8-0.2-1.2-0.4c-0.4-0.1-0.8-0.3-1.2-0.4c-0.4-0.2-0.8-0.3-1.2-0.5
		c-0.3-0.2-0.7-0.3-1.2-0.4l-0.6-0.4c-0.3-0.3-0.5-0.5-0.8-0.7c-0.3-0.2-0.6-0.4-1-0.6c-0.3-0.2-0.5-0.4-0.6-0.6
		c-0.2-0.3-0.5-0.5-0.7-0.6c-0.3-0.2-0.6-0.6-0.9-1c-0.2-0.4-0.5-0.8-0.9-1.3c-0.4-0.3-0.7-0.7-0.7-1.2l-0.3-0.6l-0.5-0.9
		c-0.2-0.5-0.4-1-0.7-1.4c-0.2-0.2-0.2-0.5-0.2-0.9c0-0.3,0-0.5,0-0.7c0-0.2-0.1-0.5-0.2-0.7C48,62.5,48,62.3,48,62l-0.2-1.5
		c-0.1-0.2-0.1-0.4-0.1-0.6c0-0.5,0.2-0.7,0.7-0.7c0.1-0.1,0.2-0.1,0.4,0c0.2,0,0.3,0,0.5,0V59L50.6,59.2z M51.3,63.2
		c-0.1-0.2-0.2-0.2-0.4,0H51.3z M51.7,62.6L51.7,62.6l-0.2-0.1C51.5,62.6,51.6,62.7,51.7,62.6L51.7,62.6z M51.9,62.3
		c0.5,0.1,0.7,0.3,0.6,0.6l0.1,0.1c0,0.1,0,0.1,0.1,0.2c0.1-0.2,0.1-0.3,0.1-0.6l0.7-0.2l-0.5-0.3c-0.2-0.1-0.3-0.2-0.4-0.3
		l-0.2,0.3L51.9,62.3z M52,64.3L52,64.3l-0.1,0.2h0.2C52,64.5,52,64.4,52,64.3z M52.2,64.5c0,0.1,0,0.2-0.1,0.2h0.2
		C52.3,64.6,52.2,64.5,52.2,64.5z M53.1,63.6c-0.1-0.2-0.2-0.3-0.4-0.2C52.8,63.6,52.9,63.7,53.1,63.6z M53.1,63.6
		c-0.2,0.3-0.2,0.5-0.1,0.7c0.2-0.2,0.2-0.3,0.2-0.3C53.2,63.9,53.2,63.8,53.1,63.6z M53.1,61.9c0.2,0.2,0.4,0.2,0.6,0.2
		c0.1,0.2,0.1,0.3,0,0.4c-0.1,0.1-0.1,0.2,0.2,0.3c0.1-0.1,0.1-0.1,0.1-0.2c-0.1-0.1-0.1-0.1,0-0.2l0.2-0.2c0.2-0.4,0.2-0.7,0-0.9
		c-0.3-0.1-0.5-0.1-0.6,0C53.5,61.5,53.4,61.6,53.1,61.9z M53.3,64.7l-0.1-0.2L53.3,64.7L53.3,64.7z M53.9,65.4
		c-0.2,0.1-0.3,0.2-0.4,0.2s-0.2,0.1-0.2,0.3C53.6,66,53.8,65.8,53.9,65.4z M53.9,64.6c-0.1,0-0.1,0.1-0.2,0.2v0.1h0.1l0.2-0.1
		L53.9,64.6z M54.5,67.2c0.1-0.2,0-0.3-0.2-0.4c-0.1,0-0.1,0.1-0.2,0.2h-0.1c-0.1,0-0.1,0.1-0.1,0.2C54.1,67.2,54.3,67.3,54.5,67.2z
		 M54,61.9c0-0.1,0-0.1-0.1-0.2l0.1-0.1l0.2,0.2C54.1,61.8,54.1,61.9,54,61.9z M53.9,63.2L53.9,63.2L53.9,63.2L53.9,63.2z
		 M55.4,65.8c-0.1-0.3-0.1-0.5-0.1-0.7c0-0.2-0.2-0.4-0.4-0.5c-0.1,0.1-0.3,0.2-0.6,0.5l0.3,0.6c0.1,0.2,0.2,0.2,0.3,0.2
		c0.1,0,0.1,0,0.2,0C55.2,65.9,55.3,65.8,55.4,65.8z M54.5,67.2c-0.1,0.2-0.1,0.2,0.2,0.2l0.1-0.1C54.7,67.3,54.7,67.2,54.5,67.2z
		 M54.7,62.2L54.7,62.2c0.1,0.1,0.2,0.1,0.2,0.1c0.1-0.1,0.1-0.1,0-0.2l-0.1-0.1L54.7,62.2z M55.5,67l-0.2,0.3
		c0.1,0.2,0.2,0.2,0.4,0.2l0.1-0.1v-0.1L55.5,67z M55.5,65.5v0.2l0.1,0.1c0-0.1,0-0.2,0.1-0.2L55.5,65.5z M55.9,65.7
		c0,0.1,0,0.2,0.1,0.2l0.1-0.1L55.9,65.7z M56.6,70.3L56.6,70.3l0.2-0.1L56.6,70.3z M56.7,70.8c-0.1,0-0.1,0-0.2,0.1l0.1,0.1
		C56.7,71,56.7,70.9,56.7,70.8z M56.7,68.6c0.1,0.3,0.2,0.4,0.2,0.4c0,0,0.2-0.1,0.4-0.3C57.2,68.7,57,68.7,56.7,68.6z M56.9,71.4
		c0.2,0.2,0.3,0.3,0.3,0.4c0.1,0,0.2,0,0.3,0c0.2,0,0.2-0.1,0.1-0.3H56.9z M57.2,67.1c0.2-0.2,0.2-0.3,0.2-0.4l-0.2-0.2
		c-0.1,0.1-0.2,0.2-0.2,0.3V67C57.1,67,57.2,67.1,57.2,67.1z M57.4,68.2c0.1,0.1,0.1,0.1,0.2,0.1h0.1L57.4,68.2L57.4,68.2z
		 M58.3,70.6L58.3,70.6L58.3,70.6L58.3,70.6z M59.4,69.7c-0.1,0.1-0.1,0.1-0.1,0.2h0.1V69.7z M60.4,69.8L60.4,69.8l0.3,0.1
		L60.4,69.8z M62.1,70.5L62.1,70.5L62.1,70.5L62.1,70.5z M69.7,73.5c-0.1-0.1-0.1-0.1-0.2,0H69.7L69.7,73.5z M71.6,70.2l-0.2-0.1
		v0.1H71.6L71.6,70.2z M73.8,66.8L73.8,66.8l-0.2-0.1C73.7,66.8,73.7,66.8,73.8,66.8z M74.8,70.4L74.8,70.4L74.8,70.4L74.8,70.4
		L74.8,70.4z M74.8,71h0.2L75,71l-0.1-0.2L74.8,71z M75.3,69.7c0-0.1,0-0.2-0.1-0.2h-0.2v0.2L75.3,69.7L75.3,69.7z M75.9,69.3
		c-0.1-0.2-0.1-0.3-0.2-0.4h-0.2c-0.1,0.1-0.1,0.2,0,0.2C75.5,69.2,75.6,69.2,75.9,69.3z M76.4,47.1C76.3,47,76.3,47,76.2,47
		c0,0-0.1-0.1-0.2-0.2v0.5L76.4,47.1z M76.3,53.1c0,0.1,0,0.1-0.1,0.2c0,0.1,0.1,0.2,0.2,0.2l0.2-0.2L76.3,53.1z M76.4,52
		c-0.1,0.1-0.1,0.1-0.1,0.2l0.1,0.1l0.2-0.2C76.5,52.1,76.5,52,76.4,52z M76.5,67.5c0.1,0.1,0.1,0.1,0.2,0.1L76.5,67.5L76.5,67.5z
		 M76.8,48.8L76.8,48.8L76.8,48.8L76.8,48.8z M78,52.3l0.2-0.3c0.1-0.1,0.1-0.2-0.1-0.3c-0.1-0.1-0.1-0.1-0.2-0.1c0,0-0.1,0-0.2-0.1
		l-0.3-0.4c-0.1,0.2-0.2,0.3-0.2,0.4C77.5,51.6,77.8,51.9,78,52.3z M77.4,48.1C77.5,48.2,77.5,48.2,77.4,48.1L77.4,48.1z M77.5,48.4
		c0.1,0.1,0.1,0.1,0.2,0.1C77.7,48.4,77.6,48.4,77.5,48.4z M77.8,48.5L77.8,48.5L77.8,48.5L77.8,48.5z M77.8,48.5
		c0.1,0.1,0.1,0.2,0.2,0.2c0.1,0.1,0.1,0.1,0.2,0.2c0.1-0.1,0.1-0.2,0.2-0.2c0.1-0.1,0.1-0.1,0-0.2H77.8z M78.2,43.9L78.2,43.9
		L78.2,43.9L78.2,43.9z M78.3,44.3L78.3,44.3L78.3,44.3L78.3,44.3z M78.7,51.5c-0.1-0.1-0.1-0.1-0.2,0H78.7z M78.6,52.5L78.6,52.5
		v0.2V52.5L78.6,52.5z M79,56.5c-0.2-0.1-0.3,0-0.4,0.2c0,0.2,0.1,0.3,0.4,0.3V56.5z M78.8,48L78.8,48L78.8,48L78.8,48z M79.2,54.3
		c-0.1-0.1-0.1-0.2-0.1-0.4c0-0.1-0.1-0.3-0.2-0.4c0,0.1-0.1,0.1-0.2,0.2c0.1,0,0.1,0.1,0.2,0.4H79L79.2,54.3z M78.8,39.3L78.8,39.3
		L78.8,39.3L78.8,39.3z M78.9,34.6L78.9,34.6l0.1-0.2h-0.2C78.8,34.5,78.9,34.6,78.9,34.6z M79.1,52.5c-0.1,0.1-0.1,0.1-0.2,0.1
		l0.1,0.1L79.1,52.5L79.1,52.5z M79,45.4c0,0.1,0.1,0.1,0.2,0.2l0.2-0.1l-0.1-0.1C79.2,45.4,79.1,45.4,79,45.4z M79,60.2L79,60.2
		l0.2-0.1L79,60.2z M79.1,51.1c0.3,0,0.5-0.1,0.5-0.3c0-0.2-0.1-0.3-0.3-0.3C79,50.7,79,50.9,79.1,51.1z M79.3,44.1l-0.1-0.2
		L79.3,44.1L79.3,44.1z M79.5,44.2l0.2,0.2h0.1c0.1-0.1,0.1-0.2-0.1-0.2H79.5z M79.6,63.1c-0.1-0.1-0.1-0.1-0.2,0H79.6L79.6,63.1z
		 M79.6,38.3c-0.2,0.1-0.2,0.2,0,0.3l0.6-0.5L79.6,38.3z M79.7,42.5c-0.1-0.1-0.1-0.1-0.2,0H79.7z M80.2,48.5
		c0.1-0.2,0.1-0.4,0.1-0.5c-0.1,0-0.2,0-0.2,0c-0.1,0-0.1,0-0.2,0L80.2,48.5z M80.9,46.2c-0.2-0.1-0.3-0.1-0.3-0.2
		c-0.1,0-0.1-0.1-0.1-0.2c0-0.1-0.1-0.1-0.2,0c-0.1,0.1-0.1,0.2-0.1,0.2c0.1,0.1,0.1,0.1,0.1,0.2v0.2l0.1,0.1L80.9,46.2z M80.5,52.3
		L80.5,52.3c-0.2-0.1-0.2,0-0.2,0.1l0.1,0.1L80.5,52.3z"/>
</g>
<polygon class="st0" points="38,9.5 8.5,9.5 3.5,9.5 3.5,14.5 3.5,44 8.5,44 8.5,14.5 38,14.5 "/>
<polygon class="st0" points="62,90.5 91.5,90.5 96.5,90.5 96.5,85.5 96.5,56 91.5,56 91.5,85.5 62,85.5 "/>
</svg>
